<?xml version="1.0" standalone="no"?>
<!DOCTYPE svg PUBLIC "-//W3C//DTD SVG 20010904//EN"
 "http://www.w3.org/TR/2001/REC-SVG-20010904/DTD/svg10.dtd">
<svg version="1.0" xmlns="http://www.w3.org/2000/svg"
 width="700.000000pt" height="700.000000pt" viewBox="0 0 700.000000 700.000000"
 preserveAspectRatio="xMidYMid meet">
<metadata>
Created by potrace 1.14, written by Peter Selinger 2001-2017
</metadata>
<g transform="translate(0.000000,700.000000) scale(0.100000,-0.100000)"
fill="#000000" stroke="none">
<path d="M3195 5743 c-11 -2 -94 -18 -185 -35 -91 -17 -167 -34 -170 -38 -3
-4 -20 -11 -37 -15 -42 -9 -57 -30 -17 -23 16 3 72 17 124 31 191 50 279 61
520 61 212 1 237 -1 430 -34 113 -19 207 -37 210 -40 9 -11 90 -40 110 -40 11
0 20 4 20 10 0 15 -36 30 -74 30 -19 0 -41 6 -48 13 -16 16 -226 61 -354 76
-86 10 -486 14 -529 4z"/>
<path d="M2650 5612 c-25 -10 -46 -25 -48 -34 -3 -16 2 -15 57 3 67 23 100 49
60 48 -13 0 -44 -8 -69 -17z"/>
<path d="M4215 5602 c6 -6 37 -21 70 -35 33 -14 86 -36 118 -51 57 -26 73 -23
39 7 -34 31 -255 108 -227 79z"/>
<path d="M2419 5505 c-15 -8 -29 -21 -33 -30 -9 -26 27 -17 64 15 29 24 32 29
15 29 -11 0 -32 -6 -46 -14z"/>
<path d="M4520 5461 c0 -5 21 -22 48 -37 136 -80 327 -230 469 -371 56 -56
105 -98 109 -92 8 13 -266 287 -326 325 -24 16 -52 37 -62 47 -10 9 -22 17
-28 17 -5 0 -19 11 -32 24 -24 26 -146 96 -166 96 -7 0 -12 -4 -12 -9z"/>
<path d="M2290 5429 c-19 -12 -37 -25 -40 -29 -3 -4 -14 -10 -25 -14 -29 -9
-323 -254 -358 -298 -56 -69 -19 -52 80 38 106 97 213 181 336 263 42 28 77
54 77 56 0 12 -38 3 -70 -16z"/>
<path d="M1738 4940 c-125 -138 -396 -629 -476 -865 -63 -183 -84 -324 -91
-597 l-6 -246 -70 -101 c-39 -55 -104 -149 -145 -209 -41 -59 -105 -148 -141
-198 -88 -118 -421 -592 -455 -646 -15 -24 -30 -45 -35 -48 -4 -3 -22 -27 -41
-55 -19 -27 -61 -88 -93 -135 -32 -47 -82 -110 -110 -140 -29 -30 -58 -65 -64
-77 -8 -15 -11 -254 -11 -822 l0 -801 1553 0 1554 0 20 22 c11 13 26 38 33 56
7 17 18 32 25 32 7 0 16 7 19 16 3 8 115 176 247 371 133 196 244 365 247 375
2 10 9 18 16 18 6 0 36 41 66 91 30 50 67 104 83 120 15 16 27 34 27 39 0 21
34 8 77 -30 98 -86 219 -125 360 -118 74 4 93 9 178 52 77 38 112 63 173 124
173 173 259 385 278 687 4 61 10 112 13 115 3 3 17 21 30 40 14 19 51 64 82
100 32 36 62 78 68 92 9 25 13 27 38 17 15 -5 35 -19 44 -31 9 -12 21 -18 28
-14 12 8 -64 76 -85 76 -5 0 -37 -30 -70 -68 -142 -162 -228 -237 -389 -344
-273 -181 -424 -251 -690 -318 -231 -59 -340 -73 -565 -73 -372 1 -670 72
-1005 240 -122 61 -403 242 -404 259 -1 7 -13 20 -28 29 -44 29 -189 173 -256
255 -219 270 -368 599 -448 987 -26 127 -37 472 -20 624 41 351 191 730 402
1012 61 81 83 116 77 122 -2 2 -20 -14 -40 -35z m2869 -3328 c-17 -142 -134
-303 -231 -317 -26 -4 -67 -5 -91 -1 -53 7 -167 74 -163 96 3 16 5 17 208 114
74 36 164 85 200 110 36 25 69 45 74 45 5 1 6 -21 3 -47z"/>
<path d="M3292 4954 c-10 -5 -10 -9 -1 -20 7 -8 7 -14 1 -14 -5 0 -13 7 -16
15 -8 22 -78 12 -231 -32 -117 -33 -161 -56 -140 -71 6 -4 18 -19 28 -35 16
-24 16 -28 2 -33 -8 -4 -26 1 -40 10 -33 22 -44 20 -72 -10 l-23 -25 20 -29
c26 -37 25 -43 -6 -36 -26 7 -27 6 -21 -34 11 -88 89 -119 148 -61 16 16 29
36 29 45 0 10 6 13 15 10 8 -4 15 -12 15 -19 0 -8 -7 -20 -15 -29 -8 -8 -15
-19 -15 -24 0 -14 -63 -52 -84 -52 -40 0 -108 50 -127 93 -8 19 -9 18 -6 -10
3 -28 1 -31 -15 -22 -14 7 -15 14 -8 34 12 31 8 31 -33 3 -18 -13 -33 -23 -34
-24 -2 0 3 -20 11 -45 8 -24 19 -64 24 -89 8 -38 11 -42 17 -22 10 30 41 28
49 -3 4 -14 18 -31 32 -37 22 -10 28 -8 62 25 21 20 41 37 45 37 4 0 -4 -24
-16 -52 -37 -83 -94 -291 -118 -430 -19 -109 -24 -125 -38 -118 -9 5 -28 11
-43 15 -16 3 -28 12 -28 20 0 8 -4 15 -10 15 -15 0 -12 -53 5 -77 22 -31 52
-35 71 -10 15 21 15 21 9 -13 -13 -61 -46 -160 -53 -160 -5 0 -13 5 -18 10 -6
6 -18 8 -28 4 -25 -10 -16 -48 12 -52 12 -2 22 -7 22 -12 0 -7 -33 -70 -46
-88 -1 -2 -10 0 -20 6 -12 6 -13 11 -5 17 9 5 9 10 0 21 -13 16 -45 19 -54 4
-10 -17 -33 -11 -62 16 -22 20 -23 23 -6 15 34 -17 71 -13 83 8 15 28 13 31
-20 42 -36 13 -30 32 7 23 22 -6 25 -4 20 10 -4 9 -2 16 3 16 6 0 10 8 10 18
0 14 3 13 18 -6 15 -20 22 -22 45 -13 33 13 34 27 5 59 l-23 25 23 -12 c16 -9
22 -9 22 0 0 6 -9 13 -20 16 -11 3 -20 10 -19 17 4 35 -5 33 -44 -8 -41 -44
-45 -46 -99 -46 -50 0 -60 4 -104 40 -44 36 -85 57 -56 28 19 -19 15 -48 -7
-48 -23 0 -34 -45 -15 -61 20 -16 17 -39 -10 -83 -20 -33 -21 -42 -11 -53 8
-7 18 -13 24 -13 16 0 13 -19 -4 -36 -19 -20 -19 -87 0 -125 30 -56 109 -66
156 -20 39 39 40 101 4 155 -13 20 -23 36 -21 36 12 0 96 -53 96 -61 0 -4 9
-13 21 -19 16 -9 25 -8 39 5 18 17 19 16 15 -4 -8 -42 -61 -126 -115 -184 -46
-49 -60 -58 -78 -53 -15 5 -22 15 -22 32 0 13 -6 24 -12 24 -7 0 -23 3 -35 6
-17 5 -23 2 -23 -10 0 -19 27 -65 48 -83 17 -14 7 -53 -14 -53 -9 0 -14 -11
-14 -33 0 -19 -3 -36 -6 -39 -9 -10 -106 30 -125 51 -21 22 -25 41 -9 41 6 0
10 -6 10 -13 0 -24 37 -49 67 -45 19 2 32 12 41 31 7 15 21 27 30 28 11 0 13
2 4 6 -7 3 -17 16 -22 29 -8 19 -17 24 -45 24 -22 0 -38 -6 -41 -15 -4 -8 -19
-15 -35 -15 -17 0 -33 -8 -42 -20 -21 -30 -50 -16 -42 20 7 32 -18 62 -29 34
-18 -46 98 -332 151 -374 33 -26 68 -20 101 17 l24 26 -29 24 c-17 15 -20 20
-8 14 20 -9 56 -45 69 -68 4 -7 -1 -9 -13 -6 -28 7 -49 -34 -28 -54 22 -23 60
-8 52 20 -6 22 -6 22 9 2 8 -11 20 -26 26 -32 8 -10 5 -12 -12 -10 -19 2 -23
-3 -23 -23 0 -18 6 -26 23 -28 12 -2 22 1 22 7 0 23 26 9 55 -30 39 -54 162
-162 260 -230 72 -49 76 -54 52 -57 -24 -3 -27 -7 -27 -43 0 -37 2 -39 30 -39
19 0 33 -7 40 -21 19 -35 164 -88 314 -115 136 -25 373 -22 503 5 308 64 555
193 759 395 56 56 128 137 160 181 184 250 275 583 245 895 -20 206 -85 416
-180 581 -146 257 -384 471 -626 565 -38 14 -96 37 -127 51 -113 47 -218 64
-428 69 -107 2 -201 1 -208 -2z m-178 -160 c14 -5 14 -8 1 -21 -17 -16 -35 -9
-35 13 0 15 9 17 34 8z m-94 -28 c0 -10 -7 -12 -22 -8 -21 5 -21 6 -2 13 10 4
20 8 22 8 1 1 2 -5 2 -13z m-100 -81 c25 -13 42 -45 25 -45 -15 0 -85 42 -85
50 0 15 27 12 60 -5z m-470 -1013 c0 -4 -7 -18 -16 -30 -18 -26 -88 -32 -97
-8 -4 10 5 13 35 12 29 0 44 4 52 17 11 18 26 23 26 9z m13 -184 c9 -11 17
-26 17 -34 0 -19 -24 -18 -41 2 -7 8 -25 22 -41 30 -16 8 -26 19 -22 25 9 15
67 0 87 -23z"/>
<path d="M5150 4943 c0 -4 40 -66 89 -137 48 -72 114 -176 147 -231 67 -115
89 -108 26 7 -62 114 -84 152 -96 163 -6 6 -20 28 -31 50 -26 51 -89 131 -115
145 -11 6 -20 7 -20 3z"/>
<path d="M2640 4670 c-16 -10 -9 -40 11 -53 22 -13 49 -2 49 20 0 21 -42 44
-60 33z"/>
<path d="M2556 4641 c-24 -26 -13 -61 19 -61 29 0 41 16 26 34 -6 7 -9 21 -5
30 9 23 -19 21 -40 -3z"/>
<path d="M2504 4543 c-16 -17 -16 -18 -1 -21 10 -2 15 -8 12 -13 -4 -5 -13 -5
-24 1 -15 7 -20 4 -30 -16 -21 -46 -14 -83 23 -120 70 -70 175 -32 187 66 4
37 -9 66 -42 95 -37 30 -98 34 -125 8z m131 -44 c36 -43 18 -62 -24 -26 -17
14 -40 28 -51 32 -32 10 -23 25 14 25 26 0 41 -8 61 -31z"/>
<path d="M2386 4478 c-20 -23 -36 -47 -36 -54 0 -26 13 -44 31 -44 24 0 35 25
20 44 -8 10 -7 19 7 37 23 30 34 59 22 59 -4 0 -25 -19 -44 -42z"/>
<path d="M2643 4339 c-8 -8 -7 -18 5 -39 21 -36 52 -46 70 -23 18 25 15 30
-22 43 -19 6 -36 16 -38 21 -2 6 -8 5 -15 -2z"/>
<path d="M2750 4326 c0 -31 24 -50 54 -42 54 13 32 66 -28 66 -21 0 -26 -5
-26 -24z"/>
<path d="M2326 4321 c-10 -15 4 -39 26 -45 33 -8 47 5 30 30 -10 16 -49 27
-56 15z"/>
<path d="M2420 4312 c0 -25 12 -34 34 -26 17 7 22 34 7 34 -5 0 -16 3 -25 6
-11 4 -16 0 -16 -14z"/>
<path d="M2252 4257 c2 -16 11 -23 31 -25 38 -5 35 20 -4 35 -28 11 -30 10
-27 -10z"/>
<path d="M5530 4274 c-1 -22 66 -254 73 -254 23 0 -29 226 -58 250 -8 7 -15 9
-15 4z"/>
<path d="M2470 4242 c0 -34 16 -52 46 -52 25 0 54 24 54 45 0 14 -49 35 -81
35 -14 0 -19 -7 -19 -28z"/>
<path d="M2720 4246 c0 -1 5 -17 11 -35 10 -28 15 -32 43 -29 46 4 47 34 2 53
-34 14 -56 19 -56 11z"/>
<path d="M2310 4204 c0 -10 7 -14 18 -11 9 2 31 -5 48 -15 27 -15 33 -16 37
-4 8 19 -35 46 -73 46 -21 0 -30 -5 -30 -16z"/>
<path d="M2600 4197 c0 -7 5 -18 12 -25 8 -8 4 -11 -18 -9 -26 2 -29 -1 -32
-31 -3 -26 3 -39 31 -67 38 -38 63 -43 107 -20 91 47 53 165 -53 165 -32 0
-47 -4 -47 -13z m117 -28 c7 -6 13 -20 13 -30 0 -18 -2 -18 -45 3 -54 26 -62
54 -13 44 17 -3 37 -11 45 -17z"/>
<path d="M2176 4152 c-9 -19 -15 -40 -12 -47 2 -7 -1 -16 -8 -18 -17 -7 -68
-168 -72 -232 -2 -27 -7 -62 -10 -76 -11 -49 54 -80 90 -43 38 37 39 54 10 86
-18 17 -36 27 -46 24 -10 -2 -21 0 -24 5 -3 5 4 9 14 9 26 0 38 31 17 42 -8 5
-15 14 -15 19 0 17 27 39 47 39 37 0 44 21 17 53 -32 38 -29 71 9 75 27 3 35
20 18 38 -5 5 -11 20 -13 34 -4 25 -4 24 -22 -8z"/>
<path d="M2266 4173 c-3 -3 -6 -21 -6 -39 0 -24 8 -39 31 -58 38 -32 60 -33
97 -1 50 42 48 61 -12 83 -53 20 -98 26 -110 15z"/>
<path d="M2470 4125 c0 -8 -7 -15 -15 -15 -8 0 -15 -7 -15 -15 0 -8 -9 -23
-20 -32 -11 -10 -20 -22 -20 -28 0 -21 -84 -3 -119 26 -41 33 -48 31 -31 -11
11 -26 10 -33 -4 -49 -34 -38 6 -96 57 -83 24 6 51 48 43 67 -7 19 20 20 31 1
4 -8 17 -15 27 -17 11 -2 21 -10 24 -18 3 -10 -3 -11 -28 -6 -41 9 -50 -3 -50
-71 0 -44 4 -54 33 -82 61 -59 131 -61 189 -5 41 39 53 91 32 142 -20 51 -59
79 -118 87 -26 4 -49 11 -52 16 -10 16 1 18 35 5 30 -11 34 -10 52 12 26 32
24 39 -13 56 -22 10 -25 14 -10 11 14 -3 22 1 22 10 0 8 -10 14 -25 14 -16 0
-25 -6 -25 -15z m97 -180 c45 -52 15 -77 -35 -30 -15 14 -37 28 -49 31 -13 4
-23 13 -23 21 0 26 80 10 107 -22z"/>
<path d="M2540 4037 c0 -21 34 -47 62 -47 21 0 27 -6 32 -32 8 -43 23 -58 57
-58 41 0 58 35 31 63 l-21 20 22 18 c33 26 11 36 -31 14 -40 -22 -60 -18 -96
18 -21 20 -56 23 -56 4z"/>
<path d="M2220 3902 c0 -11 -8 -22 -20 -25 -25 -6 -26 -38 -2 -60 24 -22 51
-21 81 2 14 10 31 17 38 14 9 -4 13 5 13 30 0 33 -2 35 -37 39 -21 3 -46 8
-55 12 -14 6 -18 3 -18 -12z"/>
<path d="M2200 3765 c0 -9 9 -15 24 -15 14 0 28 -4 31 -10 11 -18 25 -10 25
15 0 23 -4 25 -40 25 -29 0 -40 -4 -40 -15z"/>
<path d="M2178 3729 c-10 -6 -15 -16 -11 -26 5 -13 2 -15 -15 -11 -40 11 -44
-46 -6 -91 20 -24 34 -31 62 -31 42 0 52 5 75 40 24 34 21 63 -9 99 -27 32
-63 40 -96 20z m75 -33 c16 -12 24 -36 12 -36 -14 0 -65 32 -65 40 0 14 32 12
53 -4z"/>
<path d="M2672 3728 c6 -18 28 -21 28 -4 0 9 -7 16 -16 16 -9 0 -14 -5 -12
-12z"/>
<path d="M2055 3679 c-8 -48 2 -148 17 -166 14 -18 57 -16 64 2 4 8 3 23 -1
33 -5 9 -9 24 -9 32 -1 8 -11 16 -23 18 -18 3 -23 10 -23 32 0 16 -3 35 -6 44
-4 11 -1 16 11 16 14 0 15 3 5 15 -20 24 -28 18 -35 -26z"/>
<path d="M2173 3530 c-10 -11 -26 -29 -36 -40 -18 -21 -16 -31 11 -62 12 -14
19 -15 36 -6 41 21 49 58 14 59 -22 1 -20 2 22 15 13 5 13 6 0 14 -12 8 -11
10 6 10 12 0 27 7 34 15 21 25 -65 20 -87 -5z"/>
<path d="M2245 3487 c-14 -37 -14 -47 -1 -90 16 -53 41 -87 63 -87 10 0 7 9
-9 30 -25 34 -38 142 -19 154 15 10 14 23 -3 29 -10 4 -20 -7 -31 -36z"/>
<path d="M2060 3471 c0 -48 14 -111 25 -111 8 0 10 13 5 45 -4 29 -3 46 4 48
7 2 4 10 -6 20 -21 22 -28 21 -28 -2z"/>
<path d="M2521 3453 c1 -10 4 -29 8 -41 6 -23 7 -23 23 -5 16 17 16 21 2 41
-18 26 -34 29 -33 5z"/>
<path d="M2101 3349 c-21 -17 -23 -24 -15 -52 8 -28 15 -32 46 -35 28 -2 40 2
50 17 9 14 19 18 39 14 15 -3 30 0 33 6 4 6 0 11 -9 11 -10 0 -30 14 -45 30
-33 35 -65 38 -99 9z"/>
<path d="M5572 3047 c-16 -38 -15 -67 2 -67 20 0 23 9 16 55 l-6 40 -12 -28z"/>
<path d="M2320 2770 c0 -13 37 -50 51 -50 11 0 4 15 -19 43 -17 19 -32 22 -32
7z"/>
<path d="M5425 2667 c-20 -45 -39 -87 -42 -93 -2 -7 13 -22 34 -35 21 -12 55
-35 75 -51 20 -16 39 -24 42 -19 7 10 -42 54 -85 77 -36 18 -36 34 1 109 31
63 36 80 21 89 -4 3 -25 -31 -46 -77z"/>
<path d="M2380 2701 c0 -4 9 -20 21 -35 25 -32 69 -36 69 -6 0 21 -27 40 -47
33 -7 -3 -13 0 -13 6 0 6 -7 11 -15 11 -8 0 -15 -4 -15 -9z"/>
<path d="M2505 2634 c-8 -9 -22 -13 -30 -10 -25 9 -17 -19 14 -48 20 -19 35
-26 49 -22 28 9 35 44 11 51 -24 8 -25 25 -1 25 14 0 15 2 2 10 -20 13 -26 12
-45 -6z"/>
<path d="M2620 2570 c0 -6 -11 -21 -25 -34 l-25 -23 26 -27 c34 -33 49 -33 79
0 32 34 31 48 -1 73 -29 23 -54 27 -54 11z"/>
<path d="M2710 2492 c0 -16 32 -52 46 -52 24 0 30 31 9 46 -20 15 -55 19 -55
6z"/>
<path d="M2666 2452 c-7 -12 6 -23 71 -56 61 -30 64 -31 57 -11 -4 8 -15 15
-25 15 -10 0 -29 10 -41 23 -13 12 -27 21 -32 19 -5 -2 -12 2 -16 9 -5 7 -10
7 -14 1z"/>
<path d="M5501 2244 c-37 -47 -22 -62 19 -19 17 18 21 28 13 36 -7 7 -17 2
-32 -17z"/>
<path d="M5406 2181 c-59 -20 -77 -47 -25 -36 46 9 82 27 87 43 5 15 1 14 -62
-7z"/>
</g>
</svg>
