<svg width="197" height="195" viewBox="0 0 197 195" fill="none" xmlns="http://www.w3.org/2000/svg">
<path d="M134.655 167.714C134.434 167.714 134.213 167.714 133.985 167.714C134.518 166.502 135.268 165.578 136.099 164.553C139.628 160.065 142.489 155.109 144.774 149.885C145 149.376 145.242 148.874 145.487 148.373C147.604 144.029 148.966 139.311 149.996 134.604C150.094 134.158 150.094 134.158 150.193 133.702C151.189 128.904 151.535 124.232 151.524 119.347C151.524 119.054 151.523 118.76 151.523 118.457C151.512 113.664 151.148 109.106 150.059 104.425C149.998 104.145 149.937 103.865 149.874 103.576C146.631 88.6804 139.378 74.5611 127.958 64.2422C127.737 64.1317 127.516 64.0212 127.288 63.9074C127.288 63.6864 127.288 63.4654 127.288 63.2377C127.095 63.1479 126.901 63.0581 126.702 62.9656C125.93 62.5581 125.272 62.1315 124.609 61.5634C124.609 61.3424 124.609 61.1213 124.609 60.8936C124.414 60.8017 124.218 60.7098 124.017 60.615C123.292 60.2356 122.683 59.8186 122.032 59.324C105.533 46.9705 84.7646 41.589 64.3269 44.4921C61.1631 44.9879 58.0568 45.6895 54.9587 46.4947C54.7051 46.5594 54.4516 46.6241 54.1904 46.6908C47.0323 48.547 39.9793 51.7132 33.8626 55.8708C33.5233 56.0974 33.184 56.324 32.8344 56.5575C23.427 62.7552 23.427 62.7552 16.4499 71.2743C16.2289 71.2743 16.0079 71.2743 15.7802 71.2743C15.9411 69.8047 16.916 68.8834 17.8521 67.821C18.0187 67.6279 18.1853 67.4348 18.3569 67.2359C19.0587 66.4232 19.7675 65.6169 20.4774 64.8112C21.5035 63.6407 21.5035 63.6407 22.1425 62.2331C22.3635 62.2331 22.5845 62.2331 22.8122 62.2331C22.8006 61.7403 22.8006 61.7403 22.7887 61.2377C22.6331 51.9548 24.9166 42.102 31.4139 35.1514C31.6695 34.9166 31.925 34.6817 32.1883 34.4398C32.5923 34.0254 32.5923 34.0254 33.0045 33.6026C34.7132 31.9356 36.3519 30.7332 38.4878 29.689C38.7253 29.5724 38.9628 29.4559 39.2075 29.3358C43.3534 27.3533 47.3881 27.2758 51.754 28.6726C54.2285 29.5707 56.5212 30.9172 58.3413 32.8388C58.9538 33.5498 58.9538 33.5498 59.9816 33.4352C60.3265 32.8833 60.6617 32.3251 60.9861 31.7609C61.2071 31.7609 61.4282 31.7609 61.6559 31.7609C61.7808 31.4087 61.7808 31.4087 61.9083 31.0493C62.3802 29.9606 62.9738 29.0561 63.6441 28.0775C64.3122 27.0984 64.9655 26.1371 65.5499 25.1056C65.7014 24.8708 65.8529 24.636 66.009 24.394C66.23 24.394 66.451 24.394 66.6787 24.394C66.7495 24.1765 66.8203 23.9589 66.8933 23.7348C67.524 22.3282 68.3908 21.1327 69.2739 19.8734C69.6676 19.3056 70.0609 18.7374 70.4538 18.1691C70.6582 17.8734 70.8627 17.5778 71.0734 17.2732C72.3158 15.4621 73.5254 13.6291 74.7373 11.7976C76.039 9.83527 77.3787 7.90265 78.7337 5.97679C79.3501 5.09252 79.9635 4.20625 80.5754 3.31885C80.7323 3.0918 80.8891 2.86475 81.0508 2.63082C82.1928 0.969175 83.2731 -0.718927 84.3125 -2.447C84.4605 -2.65074 84.6086 -2.85448 84.7611 -3.0644C84.9821 -3.0644 85.2031 -3.0644 85.4308 -3.0644C85.5137 -3.29922 85.5966 -3.53404 85.682 -3.77597C85.8201 -4.09367 85.9582 -4.41137 86.1006 -4.73869C86.3118 -5.25827 86.3118 -5.25826 86.5273 -5.78833C87.5887 -6.90423 87.8307 -6.90419 89.3097 -6.99507C90.1215 -7.00355 90.9335 -7.00075 91.7454 -6.98947C92.1968 -6.99034 92.6482 -6.99209 93.0997 -6.99466C94.3414 -6.99916 95.5828 -6.99111 96.8245 -6.98104C98.163 -6.97238 99.5015 -6.97529 100.84 -6.97681C103.16 -6.97787 105.479 -6.97157 107.798 -6.96028C111.152 -6.94396 114.505 -6.93871 117.859 -6.93618C123.3 -6.93178 128.74 -6.91841 134.181 -6.89941C139.467 -6.88098 144.752 -6.86675 150.038 -6.85821C150.363 -6.85768 150.689 -6.85716 151.025 -6.85662C152.659 -6.854 154.293 -6.85145 155.927 -6.84895C169.486 -6.82812 183.045 -6.79273 196.604 -6.74785C196.698 0.407081 196.769 7.5619 196.812 14.7173C196.833 18.0402 196.861 21.3627 196.907 24.6854C196.947 27.5836 196.973 30.4815 196.982 33.38C196.987 34.913 196.999 36.4451 197.029 37.9778C197.24 49.4192 197.24 49.4192 194.107 52.7784C193.764 53.1097 193.415 53.4347 193.059 53.7513C192.348 54.42 191.841 55.2017 191.312 56.0173C191.137 56.275 190.963 56.5327 190.783 56.7982C190.618 57.0446 190.453 57.2911 190.284 57.5451C189.11 59.2905 187.92 61.0023 186.623 62.6595C186.16 63.2716 186.16 63.2716 185.889 64.2422C185.667 64.2422 185.446 64.2422 185.219 64.2422C185.142 64.4136 185.065 64.585 184.986 64.7615C184.382 65.8959 183.649 66.9347 182.917 67.9885C182.755 68.2218 182.594 68.4552 182.428 68.6956C180.728 71.1492 179.004 73.5857 177.279 76.0216C176.727 76.802 176.18 77.5853 175.633 78.3691C174.564 79.8999 173.478 81.4186 172.391 82.9363C171.578 84.0719 170.775 85.2139 169.983 86.3638C169.076 87.6678 168.114 88.9221 167.136 90.1729C165.881 91.7815 164.758 93.4306 163.683 95.167C163.121 96.0485 162.525 96.8874 161.904 97.7281C160.606 99.4899 159.356 101.283 158.116 103.086C157.922 103.366 157.728 103.647 157.527 103.936C157.346 104.201 157.164 104.466 156.977 104.739C156.813 104.977 156.65 105.215 156.481 105.46C155.649 106.807 155.722 108.057 155.754 109.58C155.761 110.088 155.767 110.597 155.773 111.105C155.778 111.504 155.778 111.504 155.784 111.911C155.84 116.872 155.669 121.638 154.747 126.526C154.656 127.055 154.566 127.585 154.476 128.114C153.383 134.157 151.271 139.936 148.371 145.339C147.94 146.155 147.536 146.985 147.13 147.815C146.217 149.682 145.232 151.474 144.14 153.243C143.744 153.905 143.4 154.565 143.068 155.261C141.244 158.993 138.779 162.367 136.329 165.704C136.145 165.97 135.961 166.235 135.771 166.509C135.624 166.685 135.476 166.862 135.325 167.044C135.104 167.044 134.883 167.044 134.655 167.044C134.655 167.265 134.655 167.486 134.655 167.714Z" fill="#151515"/>
<path d="M75.5106 167.128C75.2766 167.128 75.0425 167.129 74.8014 167.129C71.1104 167.127 67.6023 166.872 63.9998 166.039C63.4255 165.919 63.4255 165.919 62.8396 165.796C60.8094 165.339 59.1332 164.676 57.3027 163.695C56.8573 163.579 56.4107 163.468 55.9632 163.36C44.9887 159.501 35.8089 150.256 30.8279 139.899C26.2057 129.98 24.6008 118.494 27.1654 107.774C27.221 107.54 27.2767 107.306 27.3341 107.065C28.6278 101.841 30.7281 96.7613 33.8625 92.3704C34.2025 91.888 34.2025 91.888 34.5493 91.3959C43.0123 79.7461 54.5862 73.0792 68.6879 70.6046C77.1147 69.3439 87.8396 70.1536 95.4766 74.288C95.5871 74.509 95.6976 74.73 95.8114 74.9577C95.7009 75.0682 95.5904 75.1787 95.4766 75.2926C96.3606 75.4031 97.2446 75.5136 98.1554 75.6275C98.1554 76.5115 98.1554 77.3955 98.1554 78.3063C97.4857 78.3063 96.816 78.3063 96.1463 78.3063C96.6127 78.6773 97.0804 79.0467 97.5485 79.4155C97.9389 79.7244 97.9389 79.7244 98.3373 80.0395C99.1385 80.6571 99.1385 80.6571 99.9697 81.1265C101.018 81.7674 101.949 82.5163 102.885 83.3083C103.073 83.4669 103.26 83.6255 103.453 83.7889C104.816 84.9664 106.081 86.2114 107.301 87.5359C107.46 87.7074 107.619 87.879 107.782 88.0557C108.871 89.2692 108.871 89.2692 108.871 90.0264C109.202 90.0264 109.534 90.0264 109.876 90.0264C109.876 89.8054 109.876 89.5844 109.876 89.3567C110.428 89.3567 110.981 89.3567 111.55 89.3567C111.716 90.1854 111.716 90.1854 111.885 91.031C111.553 91.1415 111.222 91.252 110.88 91.3658C110.549 91.0343 110.549 91.0343 110.21 90.6961C110.1 90.9171 109.989 91.1381 109.876 91.3658C110.097 91.3658 110.318 91.3658 110.545 91.3658C110.739 91.7111 110.932 92.0565 111.131 92.4123C111.382 92.8451 111.633 93.2776 111.885 93.7098C112.092 94.069 112.299 94.4281 112.513 94.7981C113.319 95.8423 114.024 96.2287 115.233 96.7236C114.324 95.7611 114.324 95.7611 113.224 95.0493C113.683 93.9907 113.89 93.7123 114.898 93.0401C115.987 92.768 115.987 92.768 117.242 93.0401C120.249 96.087 121.933 101.68 122.935 105.765C122.809 106.581 122.809 106.581 122.6 107.104C122.269 106.883 121.937 106.662 121.596 106.434C121.706 105.771 121.817 105.108 121.93 104.425C121.709 104.425 121.488 104.425 121.261 104.425C121.15 104.094 121.04 103.762 120.926 103.421C120.843 103.628 120.76 103.835 120.675 104.049C120.174 104.899 119.849 105.128 118.917 105.43C118.163 105.304 118.163 105.304 117.577 105.095C117.688 105.427 117.798 105.758 117.912 106.1C116.918 106.21 115.923 106.321 114.898 106.434C114.733 105.771 114.733 105.771 114.564 105.095C114.066 104.764 114.066 104.764 113.559 104.425C114.001 104.315 114.443 104.204 114.898 104.09C114.933 103.883 114.967 103.676 115.003 103.463C115.233 102.751 115.233 102.751 116.238 102.081C117.35 102.19 117.781 102.285 118.582 103.086C118.582 103.528 118.582 103.97 118.582 104.425C118.913 104.425 119.245 104.425 119.586 104.425C119.586 104.094 119.586 103.762 119.586 103.421C119.365 103.421 119.144 103.421 118.917 103.421C118.806 103.089 118.696 102.758 118.582 102.416C117.503 101.697 116.728 101.533 115.482 101.298C115.289 101.225 115.097 101.152 114.898 101.077C114.788 100.745 114.677 100.414 114.564 100.072C114.508 100.5 114.453 100.929 114.396 101.37C114.349 101.731 114.349 101.731 114.302 102.1C114.216 102.753 114.216 102.753 114.229 103.421C113.897 103.531 113.566 103.642 113.224 103.756C112.819 104.425 112.819 104.425 112.554 105.095C112.876 105.219 112.876 105.219 113.203 105.346C113.894 105.765 113.894 105.765 114.103 106.434C114.145 106.655 114.186 106.876 114.229 107.104C114.45 107.325 114.671 107.546 114.898 107.774C114.898 108.216 114.898 108.658 114.898 109.113C114.125 108.892 113.351 108.671 112.554 108.444C112.444 107.891 112.333 107.339 112.22 106.769C111.1 106.868 110.628 107.025 109.805 107.813C106.998 111.39 104.805 115.075 102.843 119.159C103.396 119.27 103.948 119.38 104.518 119.494C104.628 119.936 104.739 120.378 104.853 120.833C104.19 121.165 104.19 121.165 103.513 121.503C103.182 121.172 102.85 120.84 102.509 120.499C101.389 123.28 100.703 126.059 100.123 128.996C100.039 129.406 99.9544 129.816 99.8677 130.238C99.3908 132.595 98.9815 134.951 98.65 137.333C98.4688 138.369 98.1542 139.262 97.7473 140.226C97.4174 141.107 97.2167 141.997 97.0044 142.913C96.4534 145.207 95.525 147.2 94.472 149.296C95.5736 149.033 95.5736 149.033 96.2719 147.936C97.1509 146.952 97.1509 146.952 98.0299 146.743C98.8252 146.952 98.8252 146.952 99.4321 147.559C99.8297 148.292 99.8297 148.292 99.8297 149.296C100.272 149.296 100.714 149.296 101.169 149.296C101.28 148.744 101.39 148.191 101.504 147.622C101.615 147.622 101.725 147.622 101.839 147.622C101.883 147.876 101.928 148.131 101.974 148.393C102.033 148.725 102.092 149.058 102.153 149.401C102.211 149.731 102.269 150.061 102.329 150.402C102.494 151.333 102.494 151.333 102.843 152.31C102.843 152.642 102.843 152.973 102.843 153.315C103.064 153.315 103.285 153.315 103.513 153.315C103.513 153.536 103.513 153.757 103.513 153.984C103.251 154.074 102.988 154.164 102.718 154.257C101.745 154.603 101.745 154.603 101.169 155.659C100.948 155.659 100.727 155.659 100.499 155.659C100.72 155.106 100.941 154.554 101.169 153.984C100.622 153.412 100.208 153.002 99.4949 152.645C99.7159 152.977 99.9369 153.308 100.165 153.65C100.206 154.55 100.206 154.55 100.165 155.324C99.9436 155.213 99.7226 155.103 99.4949 154.989C99.4673 154.796 99.4396 154.602 99.4112 154.403C99.0207 153.232 98.1622 152.612 97.1509 151.975C96.166 151.56 96.166 151.56 95.1417 151.64C94.0576 152.261 94.0576 152.261 93.1326 152.98C92.9116 152.98 92.6905 152.98 92.4628 152.98C92.4628 153.311 92.4628 153.643 92.4628 153.984C92.2418 153.984 92.0208 153.984 91.7931 153.984C91.7931 154.426 91.7931 154.868 91.7931 155.324C92.0141 155.434 92.2351 155.545 92.4628 155.659C92.4767 155.417 92.4905 155.175 92.5047 154.926C92.9285 153.564 93.6326 153.086 94.8069 152.31C96.1169 152.07 96.6119 152.18 97.7369 152.896C98.8921 154.051 98.8921 154.051 99.16 154.989C99.0344 156.245 99.0344 156.245 98.8252 157.333C98.0989 157.164 97.4858 156.998 96.816 156.663C96.9369 156.825 97.0577 156.986 97.1823 157.153C97.4154 157.47 97.4154 157.47 97.6532 157.793C97.8862 158.108 97.8862 158.108 98.124 158.429C98.4903 159.007 98.4903 159.007 98.4903 159.677C97.8342 160.251 97.1647 160.81 96.4811 161.351C95.9034 160.992 95.3257 160.632 94.748 160.272C94.0798 159.908 94.0798 159.908 93.1326 160.347C91.268 160.156 91.268 160.156 90.4537 159.342C90.6194 160.005 90.6194 160.005 90.7885 160.682C91.0924 160.599 91.3963 160.516 91.7094 160.43C92.7977 160.347 92.7977 160.347 93.593 160.954C94.1371 161.686 94.1371 161.686 94.1371 162.356C94.4686 162.466 94.8002 162.577 95.1417 162.691C94.4898 163.995 92.7695 164.259 91.4583 164.7C90.3956 165.018 89.3276 165.313 88.2562 165.6C87.9914 165.672 87.7266 165.743 87.4539 165.817C85.6644 166.282 83.9235 166.542 82.0822 166.709C81.7507 166.212 81.7507 166.212 81.4125 165.704C81.1915 165.704 80.9705 165.704 80.7428 165.704C81.0743 166.036 81.4058 166.368 81.7474 166.709C79.7461 167.322 77.5835 167.125 75.5106 167.128Z" fill="#161616"/>
<path d="M104.518 127.196C104.183 126.191 104.183 126.191 104.413 125.542C104.448 125.315 104.482 125.087 104.518 124.852C104.085 124.392 103.639 123.945 103.178 123.512C103.178 123.181 103.178 122.849 103.178 122.508C103.731 122.287 104.283 122.066 104.853 121.838C105.295 122.391 105.737 122.943 106.192 123.512C106.192 123.07 106.192 122.628 106.192 122.173C106.413 122.173 106.634 122.173 106.862 122.173C106.641 121.731 106.42 121.289 106.192 120.833C106.855 121.054 107.518 121.275 108.201 121.503C108.312 121.282 108.422 121.061 108.536 120.833C107.873 120.612 107.21 120.391 106.527 120.164C106.632 119.536 106.632 119.536 106.862 118.824C107.866 118.155 107.866 118.155 108.703 118.217C109.586 118.504 109.962 118.787 110.545 119.494C110.545 119.273 110.545 119.052 110.545 118.824C109.592 117.95 108.827 117.342 107.531 117.15C107.531 117.371 107.531 117.592 107.531 117.82C106.868 117.82 106.205 117.82 105.522 117.82C105.357 117.488 105.357 117.488 105.187 117.15C105.408 116.929 105.629 116.708 105.857 116.48C105.526 116.259 105.194 116.038 104.853 115.811C105.125 115.162 105.125 115.162 105.522 114.471C105.854 114.361 106.185 114.25 106.527 114.136C107.542 114.734 107.821 115.006 108.201 116.145C109.002 116.516 109.002 116.516 109.875 116.815C110.207 117.036 110.539 117.257 110.88 117.485C110.663 117.236 110.663 117.236 110.441 116.981C109.502 115.837 108.917 115.074 108.662 113.592C108.91 112.252 109.354 111.505 110.21 110.453C111.557 109.555 112.646 109.511 114.229 109.783C115.257 110.356 116.039 111.059 116.573 112.127C116.629 112.816 116.629 112.816 116.635 113.613C116.64 113.875 116.645 114.137 116.65 114.407C116.573 115.141 116.573 115.141 115.903 116.145C115.682 116.145 115.461 116.145 115.233 116.145C115.233 116.477 115.233 116.808 115.233 117.15C115.565 117.15 115.896 117.15 116.238 117.15C116.238 117.371 116.238 117.592 116.238 117.82C116.459 117.93 116.68 118.041 116.908 118.155C116.693 118.452 116.479 118.749 116.259 119.055C115.63 120.064 115.265 120.66 115.233 121.838C115.399 122.004 115.565 122.17 115.736 122.34C115.901 122.506 116.067 122.672 116.238 122.843C116.133 123.743 116.133 123.743 115.903 124.517C115.461 124.627 115.019 124.738 114.564 124.852C114.564 125.294 114.564 125.736 114.564 126.191C114.785 126.191 115.006 126.191 115.233 126.191C115.233 126.412 115.233 126.633 115.233 126.861C114.294 126.478 113.81 126.103 113.099 125.354C112.097 124.4 111.566 124.103 110.21 123.847C109.083 123.895 107.977 124.019 106.862 124.182C106.862 124.403 106.862 124.624 106.862 124.852C106.661 124.928 106.461 125.004 106.255 125.082C105.334 125.635 105.012 126.257 104.518 127.196Z" fill="#221E1F"/>
<path d="M35.2019 51.5176C34.4034 48.8792 36.062 45.8296 37.211 43.481C38.206 41.8681 39.3127 40.5304 40.8945 39.4627C41.1777 39.2693 41.4608 39.0759 41.7526 38.8767C43.858 38.111 46.0255 38.1846 48.1567 38.8348C49.583 39.6421 50.938 40.5317 52.2797 41.4718C51.9448 42.4764 51.9448 42.4764 51.1979 42.9062C50.8712 43.0479 50.5444 43.1897 50.2078 43.3358C49.8449 43.4968 49.482 43.6577 49.1081 43.8236C48.7182 43.9937 48.3283 44.1638 47.9265 44.339C45.213 45.5552 42.5494 46.7898 39.9946 48.3155C39.7768 48.4454 39.559 48.5754 39.3347 48.7093C37.9083 49.5808 36.5531 50.5341 35.2019 51.5176Z" fill="#FEB6C4"/>
<path d="M118.247 136.907C117.863 136.579 117.479 136.251 117.096 135.923C116.882 135.741 116.669 135.558 116.448 135.37C116.147 135.109 115.85 134.844 115.568 134.563C114.674 134.515 113.785 134.549 112.889 134.563C112.779 134.342 112.668 134.121 112.554 133.893C112.554 134.335 112.554 134.777 112.554 135.232C112.223 135.343 111.891 135.453 111.55 135.567C111.439 135.125 111.329 134.683 111.215 134.228C111.021 134.219 110.826 134.211 110.626 134.202C108.804 134.069 107.592 133.823 106.192 132.554C105.358 131.466 104.846 130.48 104.862 129.09C105.169 127.332 105.766 126.311 107.197 125.187C108.383 124.356 109.459 124.37 110.88 124.517C112.315 125.277 113.426 126.11 114.229 127.531C114.443 129.202 114.508 130.461 113.559 131.884C112.896 131.663 112.233 131.442 111.55 131.214C111.55 131.546 111.55 131.877 111.55 132.219C112.379 132.384 112.379 132.384 113.224 132.554C113.335 132.885 113.445 133.217 113.559 133.558C113.89 133.558 114.222 133.558 114.564 133.558C114.481 133.372 114.398 133.185 114.312 132.993C114.229 132.219 114.229 132.219 114.752 131.298C115.568 130.544 115.568 130.544 116.615 130.398C117.577 130.544 117.577 130.544 118.247 131.214C118.289 132.428 118.289 132.428 118.247 133.558C118.026 133.558 117.805 133.558 117.577 133.558C117.521 134.367 117.521 134.367 117.577 135.232C117.798 135.453 118.019 135.674 118.247 135.902C118.247 136.234 118.247 136.565 118.247 136.907Z" fill="#1C1A1A"/>
<path d="M105.522 152.98C104.072 152.177 103.298 151.373 102.823 149.778C102.85 148.249 103.175 147.44 104.037 146.199C105.242 145.333 106.395 145.166 107.867 145.278C109.155 145.934 109.745 146.422 110.545 147.622C110.926 148.939 110.944 149.482 110.399 150.761C110.226 151.052 110.054 151.342 109.876 151.64C109.434 151.419 108.992 151.198 108.536 150.971C108.426 151.192 108.315 151.413 108.201 151.64C108.533 151.64 108.864 151.64 109.206 151.64C109.095 151.972 108.985 152.303 108.871 152.645C107.63 153.059 106.829 153.132 105.522 152.98Z" fill="#151515"/>
<path d="M110.88 117.82C110.694 117.668 110.507 117.516 110.315 117.359C109.562 116.779 109.562 116.779 108.662 116.501C107.695 116.069 107.642 115.725 107.197 114.806C106.561 114.473 106.561 114.473 105.857 114.471C105.526 114.692 105.194 114.913 104.853 115.141C105.808 111.733 108.53 109.003 110.88 106.434C111.322 106.545 111.764 106.655 112.219 106.769C112.385 107.598 112.385 107.598 112.554 108.444C112.781 108.476 113.007 108.509 113.24 108.543C116.216 109.042 116.216 109.042 117.242 110.453C118.009 111.603 117.972 112.122 117.912 113.466C118.133 113.466 118.354 113.466 118.582 113.466C118.21 114.634 117.824 115.735 117.242 116.815C116.911 116.704 116.579 116.594 116.238 116.48C116.253 116.185 116.269 115.891 116.285 115.587C116.297 115.198 116.309 114.809 116.321 114.408C116.337 114.024 116.353 113.639 116.369 113.243C116.213 111.913 115.828 111.394 114.898 110.453C113.735 109.871 112.483 109.916 111.215 110.118C110.292 110.848 109.729 111.414 109.206 112.462C109.079 114.146 109.191 115.121 110.21 116.48C110.74 117.067 110.74 117.067 111.215 117.485C111.104 117.595 110.994 117.706 110.88 117.82Z" fill="#E1A2AE"/>
<path d="M101.839 140.59C100.834 139.711 100.834 139.711 100.165 138.581C100.102 137.388 100.102 137.388 100.5 136.237C101.465 135.181 102.106 134.647 103.513 134.353C104.909 134.644 105.56 135.202 106.527 136.237C106.902 137.464 106.947 138.372 106.527 139.586C105.864 139.365 105.201 139.143 104.518 138.916C104.766 139.144 104.766 139.144 105.02 139.376C105.522 139.92 105.522 139.92 105.522 140.59C104.224 141.058 103.161 140.938 101.839 140.59Z" fill="#151515"/>
<path d="M75.8996 194.906C74.9541 194.9 74.0088 194.899 73.0633 194.899C72.4611 194.898 71.859 194.896 71.2569 194.893C70.9747 194.893 70.6926 194.893 70.4019 194.892C68.4308 194.876 68.4308 194.876 67.6833 194.502C67.2346 194.437 66.7836 194.388 66.3321 194.347C66.0608 194.321 65.7895 194.295 65.51 194.268C64.945 194.216 64.3799 194.164 63.8148 194.113C61.5006 193.889 59.3058 193.451 57.0725 192.807C56.034 192.513 55.0209 192.314 53.9541 192.158C53.9541 191.937 53.9541 191.716 53.9541 191.489C56.0527 191.692 58.0686 192.029 60.128 192.472C72.3444 194.953 86.0931 194.752 97.9893 190.76C98.8875 190.464 99.2933 190.484 100.165 190.819C99.1148 191.441 98.3648 191.556 97.1509 191.489C97.1509 191.71 97.1509 191.931 97.1509 192.158C95.7587 192.434 94.3661 192.708 92.9733 192.98C92.5018 193.072 92.0304 193.165 91.559 193.259C89.9649 193.574 88.3688 193.876 86.7703 194.168C86.3945 194.238 86.0187 194.308 85.6316 194.38C82.3891 194.92 79.1769 194.929 75.8996 194.906Z" fill="#151515"/>
<path d="M117.912 124.182C117.019 123.524 116.403 122.83 115.903 121.838C116.025 120.395 116.357 119.741 117.305 118.657C118.572 117.981 119.226 118.093 120.591 118.489C121.501 119.16 121.854 119.593 122.203 120.666C122.264 121.49 122.19 122.063 121.931 122.843C121.102 122.511 121.102 122.511 120.256 122.173C120.477 122.615 120.698 123.057 120.926 123.512C119.734 124.307 119.316 124.43 117.912 124.182Z" fill="#151515"/>
<path d="M95.4767 162.691C95.4767 162.47 95.4767 162.249 95.4767 162.021C95.8082 161.911 96.1397 161.8 96.4813 161.686C96.9309 161.019 97.3775 160.349 97.8207 159.677C98.0417 159.677 98.2627 159.677 98.4904 159.677C98.2763 159.366 98.0622 159.055 97.8417 158.735C97.151 157.668 97.151 157.668 96.8161 156.663C97.4792 156.884 98.1422 157.105 98.8253 157.333C98.9237 155.66 98.8581 154.659 97.8207 153.315C96.6349 152.524 96.2042 152.453 94.807 152.645C93.7581 153.254 92.944 153.933 92.5048 155.094C92.491 155.28 92.4772 155.467 92.463 155.659C92.1315 155.548 91.8 155.438 91.4584 155.324C91.5689 154.882 91.6794 154.44 91.7933 153.984C92.0143 153.984 92.2353 153.984 92.463 153.984C92.463 153.653 92.463 153.321 92.463 152.98C93.2496 152.218 94.1257 151.707 95.1419 151.306C96.5417 151.512 97.3183 151.864 98.4904 152.645C98.4904 152.866 98.4904 153.087 98.4904 153.315C98.822 153.425 99.1535 153.536 99.495 153.65C99.7183 154.431 99.9415 155.212 100.165 155.994C100.496 156.104 100.828 156.215 101.169 156.328C100.838 156.439 100.506 156.549 100.165 156.663C100.165 156.884 100.165 157.105 100.165 157.333C100.828 157.554 101.491 157.775 102.174 158.003C101.127 159.848 100.19 160.733 98.323 161.749C98.0019 161.926 97.6807 162.104 97.3498 162.287C96.4813 162.691 96.4813 162.691 95.4767 162.691Z" fill="#A47880"/>
<path d="M121.261 136.572C121.04 136.572 120.819 136.572 120.591 136.572C120.681 136.337 120.771 136.102 120.863 135.86C120.936 134.743 120.802 134.608 120.11 133.788C119.826 133.491 119.543 133.194 119.252 132.888C119.67 132.365 119.67 132.365 120.256 131.884C120.989 131.988 120.989 131.988 121.596 132.219C121.596 131.887 121.596 131.556 121.596 131.214C121.817 131.214 122.038 131.214 122.265 131.214C122.265 130.883 122.265 130.551 122.265 130.209C121.934 130.099 121.602 129.988 121.261 129.875C121.371 129.433 121.482 128.991 121.596 128.535C122.038 128.535 122.48 128.535 122.935 128.535C122.824 128.314 122.714 128.093 122.6 127.865C122.269 127.976 121.937 128.086 121.596 128.2C120.985 127.794 120.985 127.794 120.361 127.217C120.048 126.932 120.048 126.932 119.729 126.642C119.571 126.494 119.414 126.345 119.252 126.191C120.603 123.989 120.603 123.989 121.784 123.47C122.6 123.512 122.6 123.512 123.374 123.889C123.94 124.517 123.94 124.517 124.086 125.354C123.919 126.308 123.682 126.605 122.935 127.196C123.156 127.196 123.377 127.196 123.605 127.196C123.775 129.39 123.16 131.147 122.433 133.202C122.321 133.527 122.209 133.852 122.094 134.187C121.819 134.983 121.542 135.778 121.261 136.572Z" fill="#292324"/>
<path d="M115.233 139.92C114.936 139.768 114.639 139.617 114.333 139.46C113.415 139.01 112.504 138.611 111.55 138.246C111.732 136.97 112.216 136.358 113.224 135.567C114.187 135.211 114.187 135.211 115.233 135.232C116.386 135.972 117.09 136.479 117.556 137.786C117.577 138.581 117.577 138.581 117.242 139.586C116.838 139.575 116.838 139.575 116.426 139.565C115.59 139.486 115.59 139.486 115.233 139.92Z" fill="#151515"/>
<path d="M37.881 185.126C35.8195 184.134 33.717 183.114 31.8536 181.778C31.8536 181.557 31.8536 181.336 31.8536 181.108C31.6533 181.066 31.453 181.025 31.2466 180.982C30.5141 180.773 30.5141 180.773 29.5096 180.103C29.5096 179.882 29.5096 179.661 29.5096 179.434C29.1599 179.32 29.1599 179.32 28.8032 179.205C27.6196 178.666 26.714 177.915 25.7424 177.069C25.552 176.905 25.3617 176.742 25.1655 176.573C23.5213 175.147 21.98 173.633 20.4684 172.067C20.1852 171.79 19.902 171.514 19.6103 171.23C18.399 169.987 17.2598 168.682 16.1152 167.379C16.2809 167.047 16.2809 167.047 16.4501 166.709C16.5931 166.864 16.7361 167.019 16.8834 167.178C23.3215 174.134 30.0637 179.603 38.2159 184.457C38.1054 184.678 37.9949 184.899 37.881 185.126Z" fill="#151515"/>
<path d="M113.559 184.122C113.737 184.009 113.916 183.897 114.1 183.781C120.359 179.813 126.014 175.567 131.131 170.179C131.642 169.723 131.642 169.723 132.311 169.723C131.769 171.082 130.804 172.002 129.779 173.009C129.598 173.187 129.418 173.366 129.232 173.551C128.009 174.744 126.747 175.832 125.373 176.85C124.471 177.528 123.612 178.249 122.747 178.973C118.926 182.113 118.926 182.113 117.577 182.113C117.577 182.334 117.577 182.555 117.577 182.782C117.099 183.072 116.617 183.358 116.133 183.64C115.731 183.879 115.731 183.879 115.321 184.123C114.564 184.457 114.564 184.457 113.559 184.122Z" fill="#151515"/>
<path d="M114.899 106.1C114.788 105.768 114.678 105.437 114.564 105.095C114.232 104.874 113.901 104.653 113.559 104.425C114.001 104.315 114.443 104.204 114.899 104.091C114.95 103.78 114.95 103.78 115.003 103.463C115.233 102.751 115.233 102.751 116.238 102.081C117.351 102.19 117.781 102.285 118.582 103.086C118.582 103.528 118.582 103.97 118.582 104.425C119.135 104.536 119.687 104.646 120.256 104.76C119.468 105.239 119.091 105.459 118.163 105.304C117.873 105.201 117.873 105.201 117.577 105.095C117.688 105.427 117.798 105.758 117.912 106.1C115.652 106.476 115.652 106.476 114.899 106.1Z" fill="#292224"/>
<path d="M118.917 130.879C118.627 130.713 118.337 130.548 118.038 130.377C116.872 129.859 116.155 129.785 114.899 129.875C114.899 129.101 114.899 128.328 114.899 127.531C115.23 127.365 115.23 127.365 115.568 127.196C115.568 127.527 115.568 127.859 115.568 128.2C115.81 127.931 116.052 127.662 116.301 127.384C117.251 126.518 117.668 126.298 118.917 126.191C119.607 126.945 119.607 126.945 120.256 127.865C120.173 128.64 120.173 128.64 119.921 129.205C119.59 129.205 119.258 129.205 118.917 129.205C118.917 129.757 118.917 130.31 118.917 130.879Z" fill="#272122"/>
<path d="M122.265 111.457C120.42 111.252 120.42 111.252 119.649 110.641C119.252 110.118 119.252 110.118 118.917 109.448C118.07 109.229 118.07 109.229 117.242 109.113C117.463 108.892 117.684 108.671 117.912 108.444C119.096 108.623 119.096 108.623 119.586 109.113C119.704 108.837 119.821 108.561 119.942 108.276C120.591 107.439 120.591 107.439 121.784 107.272C122.164 107.327 122.544 107.382 122.935 107.439C123.702 108.589 123.665 109.108 123.605 110.453C123.384 110.453 123.163 110.453 122.935 110.453C122.714 110.784 122.493 111.116 122.265 111.457Z" fill="#2B2425"/>
<path d="M107.197 135.232C105.564 134.646 105.564 134.646 105.188 133.893C104.51 133.675 104.51 133.675 103.848 133.558C103.848 133.337 103.848 133.116 103.848 132.888C103.627 132.888 103.406 132.888 103.178 132.888C103.178 133.109 103.178 133.33 103.178 133.558C102.52 133.916 101.849 134.25 101.169 134.563C100.948 134.452 100.727 134.342 100.499 134.228C101.169 133.223 101.169 133.223 102.174 132.888C101.621 132.446 101.069 132.004 100.499 131.549C101.127 130.251 101.127 130.251 101.504 129.875C102.299 129.77 102.299 129.77 103.178 129.875C104.22 130.842 104.361 131.846 104.518 133.223C104.704 133.14 104.891 133.058 105.083 132.972C105.857 132.888 105.857 132.888 106.778 133.537C107.027 133.765 107.275 133.993 107.532 134.228C107.421 134.559 107.311 134.891 107.197 135.232Z" fill="#151515"/>
<path d="M104.853 83.6639C103.622 83.5614 103.252 83.4102 102.404 82.471C102.124 82.067 102.124 82.067 101.839 81.6548C103.053 79.6875 103.053 79.6875 104.183 79.3108C105.413 79.8809 106.043 80.3794 106.527 81.6548C106.313 81.7377 106.099 81.8205 105.878 81.9059C105.125 82.2628 105.125 82.2628 104.936 83.0361C104.909 83.2433 104.881 83.4505 104.853 83.6639Z" fill="#2C2526"/>
<path d="M16.1151 166.709C13.7667 165.926 11.9649 162.439 10.7574 160.347C10.7574 160.126 10.7574 159.905 10.7574 159.677C10.5364 159.677 10.3154 159.677 10.0877 159.677C9.95039 159.423 9.81312 159.168 9.67169 158.907C9.49126 158.574 9.31083 158.241 9.12493 157.898C8.94623 157.568 8.76752 157.238 8.5834 156.897C8.07608 155.961 8.07608 155.961 7.40878 154.989C7.40878 154.657 7.40878 154.326 7.40878 153.984C7.18777 153.984 6.96677 153.984 6.73906 153.984C6.50571 153.442 6.27621 152.897 6.04842 152.352C5.92021 152.049 5.79201 151.746 5.65993 151.434C5.39963 150.636 5.39963 150.636 5.73449 149.966C5.85233 150.178 5.97017 150.391 6.09158 150.609C8.86467 155.593 11.6887 160.356 15.1825 164.869C15.7803 165.704 15.7803 165.704 16.1151 166.709Z" fill="#151515"/>
<path d="M105.187 115.141C105.077 114.92 104.966 114.699 104.853 114.471C106.226 111.748 108.616 107.607 111.55 106.435C111.881 106.766 112.213 107.098 112.554 107.439C111.299 108.444 111.299 108.444 110.545 108.444C110.545 108.665 110.545 108.886 110.545 109.113C109.991 109.455 109.433 109.789 108.871 110.118C108.76 110.339 108.65 110.56 108.536 110.788C108.315 110.788 108.094 110.788 107.866 110.788C107.825 111.168 107.783 111.547 107.741 111.939C107.672 112.332 107.603 112.726 107.531 113.132C107.31 113.242 107.089 113.353 106.862 113.467C107.083 113.909 107.304 114.351 107.531 114.806C107.138 114.702 107.138 114.702 106.736 114.597C106.446 114.555 106.156 114.514 105.857 114.471C105.636 114.692 105.415 114.913 105.187 115.141Z" fill="#FFB7C5"/>
<path d="M124.274 123.847C123.722 123.405 123.169 122.963 122.6 122.508C123.042 122.508 123.484 122.508 123.94 122.508C123.829 121.513 123.719 120.519 123.605 119.494C123.052 119.384 122.5 119.273 121.93 119.159C121.93 118.938 121.93 118.717 121.93 118.49C122.151 118.379 122.372 118.269 122.6 118.155C122.269 117.934 121.937 117.713 121.596 117.485C121.596 117.043 121.596 116.601 121.596 116.146C122.37 115.936 122.37 115.936 123.27 115.811C123.601 116.032 123.933 116.253 124.274 116.48C124.737 118.875 124.889 121.468 124.274 123.847Z" fill="#151515"/>
<path d="M116.908 117.485C118.122 116.48 118.122 116.48 119.252 116.48C118.92 116.259 118.589 116.038 118.247 115.811C118.517 115.762 118.786 115.714 119.063 115.664C119.895 115.562 119.895 115.562 120.256 115.141C119.704 115.141 119.151 115.141 118.582 115.141C118.812 114.346 118.812 114.346 119.252 113.467C120.131 113.027 120.131 113.027 120.926 112.797C121.763 113.525 122.077 114.046 122.266 115.141C121.934 115.251 121.603 115.362 121.261 115.476C121.192 115.745 121.123 116.014 121.052 116.292C120.591 117.15 120.591 117.15 119.903 117.421C117.769 117.915 117.769 117.915 116.908 117.485Z" fill="#151515"/>
<path d="M110.21 138.246C109.547 138.246 108.884 138.246 108.201 138.246C108.201 137.915 108.201 137.583 108.201 137.242C108.643 137.463 109.085 137.684 109.541 137.911C109.541 137.69 109.541 137.469 109.541 137.242C108.878 137.021 108.214 136.8 107.531 136.572C107.723 135.612 107.82 135.279 108.536 134.563C109.605 134.422 110.071 134.472 110.985 135.065C111.171 135.231 111.358 135.396 111.55 135.567C111.329 136.12 111.108 136.672 110.88 137.242C110.548 137.242 110.217 137.242 109.875 137.242C109.986 137.573 110.096 137.905 110.21 138.246Z" fill="#151515"/>
<path d="M99.1601 156.998C98.8252 155.994 98.8252 155.994 98.7415 155.198C98.3876 153.96 97.8247 153.429 96.816 152.645C95.7705 152.423 95.1746 152.428 94.2444 152.977C93.4361 153.6 92.8688 154.131 92.5047 155.094C92.4909 155.28 92.4771 155.467 92.4629 155.659C92.1314 155.548 91.7999 155.438 91.4583 155.324C91.5688 154.882 91.6793 154.44 91.7932 153.984C92.0142 153.984 92.2352 153.984 92.4629 153.984C92.4629 153.653 92.4629 153.321 92.4629 152.98C93.2494 152.218 94.1256 151.707 95.1417 151.306C96.5416 151.512 97.3182 151.864 98.4903 152.645C98.4903 152.866 98.4903 153.087 98.4903 153.315C98.8218 153.425 99.1534 153.536 99.4949 153.65C99.8828 155.007 99.7752 155.732 99.1601 156.998Z" fill="#FFB7C5"/>
<path d="M4.72978 89.6917C4.31353 88.4429 4.64439 87.9894 5.19871 86.846C5.31332 86.6179 5.42792 86.3897 5.546 86.1547C6.39388 84.6417 6.39388 84.6417 6.73893 82.9945C6.56498 82.9172 6.39102 82.8399 6.21179 82.7603C4.63421 82.0226 3.54313 81.2828 2.38577 79.9807C2.49627 79.7597 2.60677 79.5387 2.72063 79.311C2.98307 79.5458 3.24552 79.7807 3.51592 80.0226C4.91846 81.1993 6.49564 82.0842 8.07837 82.9945C7.58422 84.0484 7.08848 85.1016 6.59243 86.1547C6.4515 86.4554 6.31056 86.756 6.16536 87.0658C6.03047 87.3517 5.89557 87.6377 5.75659 87.9323C5.56984 88.3295 5.56984 88.3295 5.37931 88.7347C5.06464 89.3568 5.06464 89.3568 4.72978 89.6917Z" fill="#151515"/>
<path d="M115.233 120.833C115.012 120.833 114.791 120.833 114.564 120.833C114.543 120.571 114.522 120.308 114.501 120.038C114.411 119.748 114.321 119.458 114.229 119.159C113.399 118.699 113.399 118.699 112.554 118.489C113.784 117.669 114.747 117.15 116.238 117.15C116.238 117.371 116.238 117.592 116.238 117.82C116.459 117.93 116.68 118.041 116.908 118.155C116.645 118.603 116.38 119.049 116.112 119.494C115.965 119.743 115.817 119.991 115.665 120.247C115.522 120.441 115.38 120.634 115.233 120.833Z" fill="#181717"/>
<path d="M107.866 142.599C107.092 142.243 107.092 142.243 106.527 141.929C106.59 141.302 106.59 141.302 106.862 140.59C107.764 140.054 108.256 139.858 109.289 140.088C110.139 140.816 110.116 141.517 110.21 142.599C109.299 143.055 108.84 142.854 107.866 142.599Z" fill="#151515"/>
<path d="M104.183 129.875C103.962 129.875 103.741 129.875 103.513 129.875C103.403 129.543 103.292 129.212 103.178 128.87C102.56 128.638 102.56 128.638 101.839 128.535C101.392 128.424 100.946 128.312 100.499 128.2C100.691 127.24 100.788 126.907 101.504 126.191C102.32 126.212 102.32 126.212 103.178 126.526C104.077 127.642 104.305 128.456 104.183 129.875Z" fill="#151515"/>
<path d="M106.527 85.3384C106.969 85.3384 107.411 85.3384 107.866 85.3384C107.866 85.1174 107.866 84.8964 107.866 84.6687C107.424 84.5582 106.982 84.4477 106.527 84.3338C106.637 83.8918 106.748 83.4498 106.862 82.9944C107.573 82.7014 107.573 82.7014 108.536 82.6595C109.305 83.2445 109.924 83.932 110.545 84.6687C110.435 84.8897 110.324 85.1107 110.21 85.3384C109.713 85.0069 109.713 85.0069 109.206 84.6687C109.095 85.0002 108.985 85.3317 108.871 85.6732C107.742 86.1624 107.605 86.0569 106.527 85.3384Z" fill="#151515"/>
<path d="M121.261 136.572C121.04 136.572 120.819 136.572 120.591 136.572C120.681 136.337 120.771 136.102 120.863 135.86C120.936 134.743 120.803 134.608 120.11 133.788C119.827 133.491 119.544 133.194 119.252 132.888C119.67 132.365 119.67 132.365 120.256 131.884C121.035 131.978 121.565 132.203 122.266 132.553C122.095 133.999 121.865 135.243 121.261 136.572Z" fill="#151515"/>
<path d="M104.518 127.196C104.183 126.191 104.183 126.191 104.413 125.542C104.448 125.315 104.482 125.087 104.518 124.852C104.085 124.392 103.639 123.945 103.178 123.512C103.178 123.181 103.178 122.849 103.178 122.508C103.731 122.287 104.283 122.066 104.853 121.838C105.295 122.391 105.737 122.943 106.192 123.512C105.971 123.844 105.75 124.175 105.522 124.517C105.522 124.848 105.522 125.18 105.522 125.522C105.205 126.09 104.872 126.65 104.518 127.196Z" fill="#151515"/>
<path d="M110.21 132.888C107.492 132.499 107.492 132.499 106.339 131.402C105.857 130.544 105.857 130.544 105.857 129.54C106.189 129.54 106.52 129.54 106.862 129.54C107.117 129.802 107.373 130.065 107.636 130.335C108.595 131.271 109.265 131.556 110.545 131.884C110.435 132.215 110.324 132.547 110.21 132.888Z" fill="#FFB7C5"/>
<path d="M107.867 85.3385C107.082 85.2529 106.3 85.14 105.523 85.0036C105.056 84.0698 105.102 83.3559 105.188 82.3248C106.192 81.6551 106.192 81.6551 106.925 81.7806C107.125 81.8497 107.325 81.9188 107.532 81.9899C107.428 82.1902 107.324 82.3905 107.218 82.5968C106.828 83.3593 106.828 83.3593 106.527 84.3339C106.969 84.4444 107.411 84.5549 107.867 84.6688C107.867 84.8898 107.867 85.1108 107.867 85.3385Z" fill="#B98790"/>
<path d="M117.242 116.815C116.911 116.705 116.579 116.594 116.238 116.48C116.569 115.983 116.569 115.983 116.907 115.476C117.13 113.658 117.235 112.004 116.28 110.411C116.045 110.204 115.81 109.997 115.568 109.783C115.347 109.562 115.126 109.341 114.898 109.113C115.652 109.155 115.652 109.155 116.573 109.448C117.496 110.521 117.891 111.167 117.996 112.588C117.968 112.878 117.941 113.168 117.912 113.467C118.133 113.467 118.354 113.467 118.582 113.467C118.21 114.634 117.824 115.735 117.242 116.815Z" fill="#151515"/>
<path d="M101.169 142.264C99.8991 141.929 98.9206 141.658 97.8207 140.925C98.0417 140.483 98.2627 140.041 98.4904 139.586C99.2857 139.544 99.2857 139.544 100.165 139.586C101.024 140.445 101.015 141.085 101.169 142.264Z" fill="#151515"/>
<path d="M48.9312 189.814C46.6131 189.656 44.6715 188.747 42.5688 187.805C42.1683 187.633 41.7677 187.46 41.355 187.282C40.4649 186.743 40.3021 186.386 39.89 185.461C40.2059 185.611 40.5219 185.761 40.8475 185.915C43.5152 187.173 46.1954 188.374 48.9312 189.479C48.9312 189.59 48.9312 189.7 48.9312 189.814Z" fill="#151515"/>
<path d="M111.215 151.975C111.215 150.838 111.39 150.614 112.052 149.736C112.208 149.527 112.363 149.319 112.523 149.104C112.644 148.947 112.765 148.789 112.889 148.627C112.558 148.406 112.226 148.185 111.885 147.957C112.106 147.515 112.327 147.073 112.555 146.617C112.997 146.728 113.439 146.838 113.894 146.952C114.154 147.678 114.154 147.678 114.229 148.627C113.602 149.523 113.602 149.523 112.743 150.406C112.319 150.849 112.319 150.849 111.886 151.302C111.665 151.524 111.443 151.746 111.215 151.975Z" fill="#151515"/>
<path d="M103.513 145.613C103.403 145.392 103.292 145.171 103.178 144.943C102.734 144.825 102.287 144.714 101.839 144.608C101.507 144.387 101.176 144.166 100.834 143.939C101.055 143.497 101.276 143.055 101.504 142.599C102.299 142.683 102.299 142.683 103.178 142.934C103.576 143.583 103.576 143.583 103.848 144.274C104.069 144.495 104.29 144.716 104.518 144.943C104.186 145.164 103.855 145.385 103.513 145.613Z" fill="#151515"/>
<path d="M98.4694 145.655C98.1482 145.468 98.1482 145.468 97.8206 145.278C97.5996 145.168 97.3786 145.057 97.1509 144.943C97.2614 144.501 97.3719 144.059 97.4857 143.604C98.2601 143.374 98.2601 143.374 99.16 143.269C99.767 143.667 99.767 143.667 100.165 144.274C100.165 144.716 100.165 145.158 100.165 145.613C99.16 145.948 99.16 145.948 98.4694 145.655Z" fill="#151515"/>
<path d="M2.72073 143.604C0.698023 141.389 0.10006 137.59 5.126e-06 134.688C0.0138181 134.426 0.027631 134.163 0.0418625 133.893C0.152366 133.893 0.262869 133.893 0.376721 133.893C0.423934 134.075 0.471146 134.257 0.519789 134.445C0.736485 135.28 0.95424 136.114 1.17201 136.949C1.24626 137.235 1.3205 137.522 1.39699 137.817C1.71223 139.022 2.03351 140.205 2.44081 141.383C2.72073 142.264 2.72073 142.264 2.72073 143.604Z" fill="#151515"/>
<path d="M113.224 88.3521C112.893 88.2415 112.561 88.131 112.22 88.0172C112.22 87.7962 112.22 87.5752 112.22 87.3475C111.888 87.458 111.557 87.5685 111.215 87.6823C110.483 87.3684 110.483 87.3684 109.876 87.0126C109.876 86.5706 109.876 86.1286 109.876 85.6732C110.608 85.5476 110.608 85.5476 111.55 85.6732C112.249 86.2855 112.683 86.909 113.224 87.6823C113.224 87.9033 113.224 88.1243 113.224 88.3521Z" fill="#151515"/>
<path d="M107.532 151.975C106.464 152.101 106.464 152.101 105.188 151.975C104.435 151.372 104.056 150.788 103.513 149.966C103.513 149.745 103.513 149.524 103.513 149.296C103.845 149.296 104.176 149.296 104.518 149.296C104.964 149.743 105.411 150.189 105.857 150.636C106.739 151.056 106.739 151.056 107.532 151.306C107.532 151.527 107.532 151.748 107.532 151.975Z" fill="#FFB7C5"/>
<path d="M101.504 80.9852C100.419 80.8679 99.9588 80.797 99.223 79.9597C99.0918 79.7456 98.9606 79.5315 98.8254 79.3109C99.4884 78.9794 99.4884 78.9794 100.165 78.6412C100.496 78.8622 100.828 79.0832 101.169 79.3109C101.169 79.5319 101.169 79.7529 101.169 79.9807C101.39 79.9807 101.611 79.9807 101.839 79.9807C101.729 80.3122 101.618 80.6437 101.504 80.9852Z" fill="#151515"/>
<path d="M113.224 116.48C111.081 116.357 111.081 116.357 110.064 115.287C109.891 115.018 109.719 114.749 109.541 114.471C109.651 114.25 109.762 114.029 109.876 113.801C110.097 113.801 110.318 113.801 110.545 113.801C110.746 114.009 110.946 114.216 111.152 114.429C111.927 115.181 112.545 115.473 113.559 115.811C113.448 116.032 113.338 116.253 113.224 116.48Z" fill="#FFB7C5"/>
<path d="M103.513 157.333C103.403 157.112 103.292 156.891 103.178 156.663C102.5 156.445 102.5 156.445 101.839 156.328C101.949 155.886 102.06 155.444 102.174 154.989C102.969 154.947 102.969 154.947 103.848 154.989C104.069 155.21 104.29 155.431 104.518 155.659C104.518 155.99 104.518 156.322 104.518 156.663C104.186 156.884 103.855 157.105 103.513 157.333Z" fill="#151515"/>
<path d="M119.587 139.92C119.252 138.916 119.252 138.916 119.587 137.911C119.255 137.801 118.924 137.69 118.582 137.576C118.693 137.245 118.803 136.913 118.917 136.572C119.469 136.572 120.022 136.572 120.591 136.572C120.926 137.576 120.926 137.576 120.666 138.187C120.306 138.765 119.946 139.343 119.587 139.92Z" fill="#151515"/>
<path d="M113.224 93.7098C112.893 93.7098 112.561 93.7098 112.22 93.7098C111.55 92.7053 111.55 92.7053 111.55 91.7007C112.157 91.4914 112.157 91.4914 112.889 91.3658C113.221 91.5868 113.552 91.8078 113.894 92.0355C113.601 93.3331 113.601 93.3331 113.224 93.7098Z" fill="#151515"/>
<path d="M105.522 156.663C105.522 156.442 105.522 156.221 105.522 155.994C105.743 155.994 105.964 155.994 106.192 155.994C106.026 155.786 105.861 155.579 105.69 155.366C105.188 154.654 105.188 154.654 105.188 153.984C106.443 153.608 106.443 153.608 107.197 153.984C107.49 154.591 107.49 154.591 107.532 155.324C106.453 156.663 106.453 156.663 105.522 156.663Z" fill="#151515"/>
<path d="M124.275 115.811C123.943 115.645 123.943 115.645 123.605 115.476C123.605 115.255 123.605 115.034 123.605 114.806C123.384 114.806 123.163 114.806 122.935 114.806C122.935 114.585 122.935 114.364 122.935 114.136C123.156 114.136 123.377 114.136 123.605 114.136C123.543 113.819 123.481 113.501 123.417 113.174C123.27 112.127 123.27 112.127 123.605 111.457C123.384 111.347 123.163 111.236 122.935 111.123C123.267 111.012 123.598 110.902 123.94 110.788C124.287 112.479 124.309 114.094 124.275 115.811Z" fill="#151515"/>
<path d="M103.178 79.311C102.957 79.311 102.736 79.311 102.509 79.311C102.509 79.09 102.509 78.869 102.509 78.6413C102.177 78.7518 101.846 78.8623 101.504 78.9762C101.4 78.655 101.4 78.655 101.295 78.3274C100.869 77.5198 100.869 77.5198 99.7879 77.3856C99.4702 77.358 99.1525 77.3303 98.8252 77.3019C98.7147 76.9704 98.6042 76.6389 98.4903 76.2973C99.6705 76.5207 100.561 77.0017 101.588 77.6158C101.886 77.7915 102.185 77.9672 102.493 78.1482C102.719 78.3109 102.945 78.4737 103.178 78.6413C103.178 78.8623 103.178 79.0833 103.178 79.311Z" fill="#151515"/>
<path d="M114.899 144.943C114.338 144.847 113.779 144.736 113.224 144.608C113.114 144.277 113.003 143.945 112.889 143.604C113 143.383 113.11 143.162 113.224 142.934C113.777 143.045 114.329 143.155 114.899 143.269C115.087 143.918 115.087 143.918 115.233 144.608C115.123 144.719 115.012 144.829 114.899 144.943Z" fill="#151515"/>
<path d="M100.5 190.484C101.033 189.418 102.127 189.296 103.199 188.935C103.421 188.859 103.644 188.782 103.872 188.703C104.422 188.513 104.972 188.326 105.522 188.14C105.522 188.472 105.522 188.803 105.522 189.145C105.001 189.372 104.477 189.594 103.953 189.814C103.661 189.939 103.37 190.063 103.07 190.191C102.155 190.49 101.455 190.539 100.5 190.484Z" fill="#151515"/>
<path d="M104.183 139.92C102.957 140.032 102.376 140.075 101.379 139.313C100.834 138.581 100.834 138.581 100.834 137.576C101.951 138.134 103.067 138.693 104.183 139.251C104.183 139.472 104.183 139.693 104.183 139.92Z" fill="#FFB7C5"/>
<path d="M96.1462 158.003C94.8818 157.827 94.0621 157.558 93.1324 156.663C93.1324 156.332 93.1324 156 93.1324 155.659C94.2486 156.217 95.3648 156.775 96.481 157.333C96.3705 157.554 96.26 157.775 96.1462 158.003Z" fill="#FFB7C5"/>
<path d="M113.224 140.925C112.45 140.402 112.45 140.402 111.885 139.92C111.995 139.589 112.106 139.257 112.219 138.916C112.523 139.144 112.827 139.372 113.14 139.606C114.133 140.346 114.133 140.346 115.024 140.172C115.293 140.047 115.293 140.047 115.568 139.92C115.679 140.252 115.789 140.583 115.903 140.925C114.774 141.301 114.348 141.254 113.224 140.925Z" fill="#151515"/>
<path d="M111.215 122.173C110.994 122.173 110.773 122.173 110.545 122.173C110.931 121.346 111.231 120.817 111.885 120.164C112.785 120.073 113.656 120.134 114.563 120.164C114.674 120.495 114.784 120.827 114.898 121.168C114.594 121.099 114.29 121.03 113.977 120.959C112.849 120.829 112.46 120.862 111.55 121.503C111.439 121.724 111.329 121.945 111.215 122.173Z" fill="#FFB7C5"/>
<path d="M119.252 125.856C118.962 125.763 118.962 125.763 118.666 125.668C117.843 125.508 117.362 125.603 116.573 125.856C116.573 125.193 116.573 124.53 116.573 123.847C116.904 123.958 117.236 124.068 117.577 124.182C117.577 124.403 117.577 124.624 117.577 124.852C118.24 124.741 118.903 124.631 119.586 124.517C119.476 124.959 119.365 125.401 119.252 125.856Z" fill="#151515"/>
<path d="M107.197 135.232C106.38 135.002 106.38 135.002 105.522 134.563C105.25 133.684 105.25 133.684 105.188 132.888C106.754 133.383 106.754 133.383 107.301 134.27C107.377 134.477 107.453 134.684 107.532 134.898C107.421 135.008 107.311 135.119 107.197 135.232Z" fill="#262122"/>
<path d="M117.912 143.269C116.752 142.772 116.752 142.772 115.568 142.264C115.679 141.933 115.789 141.601 115.903 141.26C116.456 141.37 117.008 141.481 117.577 141.595C117.688 142.147 117.798 142.7 117.912 143.269Z" fill="#151515"/>
<path d="M53.9542 191.489C50.4187 191.29 50.4187 191.29 48.9313 190.149C50.1998 189.669 50.9623 189.978 52.1962 190.463C52.6908 190.654 52.6908 190.654 53.1955 190.849C53.4459 190.95 53.6962 191.05 53.9542 191.154C53.9542 191.264 53.9542 191.375 53.9542 191.489Z" fill="#151515"/>
<path d="M119.252 123.512C118.275 123.153 117.652 122.917 116.908 122.173C116.908 121.841 116.908 121.51 116.908 121.168C117.801 121.615 118.693 122.061 119.586 122.508C119.476 122.839 119.365 123.171 119.252 123.512Z" fill="#FFB7C5"/>
<path d="M15.4454 72.2789C14.076 71.5136 12.9462 70.619 11.762 69.6001C12.0935 69.4343 12.0935 69.4343 12.4317 69.2652C12.6527 69.3757 12.8737 69.4862 13.1014 69.6001C13.1014 69.8211 13.1014 70.0421 13.1014 70.2698C13.9851 70.7432 14.7996 71.0642 15.7803 71.2744C15.6698 71.6059 15.5593 71.9374 15.4454 72.2789Z" fill="#151515"/>
<path d="M109.541 186.466C112.124 184.457 112.124 184.457 113.224 184.457C112.853 185.57 112.727 185.667 111.759 186.215C111.556 186.334 111.353 186.453 111.144 186.576C110.545 186.801 110.545 186.801 109.541 186.466Z" fill="#151515"/>
<path d="M5.39956 70.2698C5.17855 70.2698 4.95755 70.2698 4.72984 70.2698C4.84035 69.9383 4.95085 69.6068 5.0647 69.2652C5.80636 68.9473 5.80636 68.9473 6.71807 68.7001C7.01807 68.616 7.31807 68.5318 7.62716 68.4451C8.41329 68.2606 8.41329 68.2606 9.08301 68.2606C9.08301 68.4816 9.08301 68.7026 9.08301 68.9303C8.84517 68.999 8.60733 69.0676 8.36228 69.1383C8.05451 69.2285 7.74674 69.3187 7.42964 69.4117C6.96928 69.5457 6.96928 69.5457 6.49962 69.6825C5.75443 69.8647 5.75443 69.8647 5.39956 70.2698Z" fill="#151515"/>
<path d="M111.885 144.943C111.056 144.777 111.056 144.777 110.21 144.608C110.1 144.277 109.989 143.945 109.876 143.604C110.428 143.493 110.981 143.383 111.55 143.269C111.66 143.821 111.771 144.374 111.885 144.943Z" fill="#151515"/>
<path d="M1.04628 100.742C0.93578 100.742 0.825276 100.742 0.711424 100.742C0.600921 99.7473 0.490418 98.7528 0.376565 97.7281C0.708076 97.7281 1.03959 97.7281 1.38114 97.7281C1.49165 97.5071 1.60215 97.2861 1.716 97.0584C1.79651 98.427 1.52265 99.4616 1.04628 100.742Z" fill="#151515"/>
<path d="M104.183 125.521C103.741 125.3 103.299 125.079 102.843 124.852C102.843 124.631 102.843 124.41 102.843 124.182C102.512 124.182 102.18 124.182 101.839 124.182C101.949 123.74 102.06 123.298 102.174 122.843C102.374 123.105 102.574 123.368 102.781 123.638C103.483 124.566 103.483 124.566 104.518 125.187C104.407 125.297 104.297 125.408 104.183 125.521Z" fill="#151515"/>
<path d="M108.201 114.806C107.98 114.806 107.759 114.806 107.532 114.806C106.987 113.969 106.987 113.969 106.527 113.132C106.974 112.685 107.42 112.239 107.866 111.792C107.977 112.787 108.088 113.781 108.201 114.806Z" fill="#151515"/>
<path d="M88.4447 161.686C87.6159 161.355 87.6159 161.355 86.7704 161.016C87.1019 160.851 87.1019 160.851 87.4401 160.682C87.4401 160.461 87.4401 160.24 87.4401 160.012C87.8821 160.122 88.3241 160.233 88.7795 160.347C88.669 160.789 88.5585 161.231 88.4447 161.686Z" fill="#E5A5B1"/>
<path d="M2.72066 72.9486C2.61016 72.6171 2.49965 72.2856 2.3858 71.944C2.93832 71.3915 3.49083 70.839 4.06009 70.2697C4.2811 70.3802 4.50211 70.4907 4.72981 70.6046C4.06679 71.3781 3.40377 72.1516 2.72066 72.9486Z" fill="#151515"/>
<path d="M115.233 90.696C114.231 90.3285 113.946 90.1345 113.475 89.1473C113.393 88.8849 113.31 88.6224 113.224 88.352C114.367 88.7328 114.603 89.0363 115.233 90.0263C115.233 90.2473 115.233 90.4683 115.233 90.696Z" fill="#151515"/>
</svg>
