<svg width="183" height="202" viewBox="0 0 183 202" fill="none" xmlns="http://www.w3.org/2000/svg">
<path d="M47.452 27.1989C47.673 27.1989 47.894 27.1989 48.1217 27.1989C47.5887 28.4103 46.8395 29.3343 46.0079 30.3591C42.4792 34.8477 39.6183 39.8036 37.3331 45.0271C37.1067 45.5365 36.8648 46.0388 36.6201 46.5396C34.5027 50.8832 33.1408 55.6013 32.1112 60.308C32.0135 60.7546 32.0135 60.7546 31.9137 61.2102C30.9179 66.0086 30.5725 70.6802 30.5834 75.565C30.5835 75.8589 30.5836 76.1528 30.5837 76.4555C30.5952 81.2489 30.9589 85.8066 32.0485 90.4872C32.1094 90.7675 32.1703 91.0479 32.2331 91.3368C35.4758 106.232 42.7293 120.351 54.1491 130.67C54.3702 130.781 54.5912 130.891 54.8189 131.005C54.8189 131.226 54.8189 131.447 54.8189 131.675C55.0122 131.765 55.2056 131.854 55.4049 131.947C56.1769 132.354 56.8349 132.781 57.4977 133.349C57.4977 133.57 57.4977 133.791 57.4977 134.019C57.6932 134.111 57.8887 134.203 58.0901 134.297C58.8149 134.677 59.4243 135.094 60.0746 135.588C76.5741 147.942 97.3424 153.323 117.78 150.42C120.944 149.925 124.05 149.223 127.148 148.418C127.402 148.353 127.655 148.288 127.917 148.222C135.075 146.365 142.128 143.199 148.244 139.042C148.584 138.815 148.923 138.588 149.273 138.355C158.68 132.157 158.68 132.157 165.657 123.638C165.878 123.638 166.099 123.638 166.327 123.638C166.166 125.108 165.191 126.029 164.255 127.091C164.088 127.285 163.922 127.478 163.75 127.677C163.048 128.489 162.34 129.296 161.63 130.101C160.604 131.272 160.604 131.272 159.965 132.679C159.744 132.679 159.523 132.679 159.295 132.679C159.306 133.172 159.306 133.172 159.318 133.675C159.474 142.958 157.19 152.811 150.693 159.761C150.438 159.996 150.182 160.231 149.919 160.473C149.515 160.887 149.515 160.887 149.103 161.31C147.394 162.977 145.755 164.179 143.619 165.223C143.382 165.34 143.144 165.457 142.9 165.577C138.754 167.559 134.719 167.637 130.353 166.24C127.879 165.342 125.586 163.995 123.766 162.074C123.153 161.363 123.153 161.363 122.125 161.477C121.781 162.029 121.445 162.587 121.121 163.152C120.9 163.152 120.679 163.152 120.451 163.152C120.326 163.504 120.326 163.504 120.199 163.863C119.727 164.952 119.133 165.856 118.463 166.835C117.795 167.814 117.142 168.775 116.557 169.807C116.406 170.042 116.254 170.277 116.098 170.518C115.877 170.518 115.656 170.518 115.428 170.518C115.358 170.736 115.287 170.954 115.214 171.178C114.583 172.584 113.716 173.78 112.833 175.039C112.439 175.607 112.046 176.175 111.653 176.743C111.449 177.039 111.244 177.335 111.034 177.639C109.791 179.45 108.582 181.283 107.37 183.115C106.068 185.077 104.728 187.01 103.373 188.936C102.757 189.82 102.144 190.706 101.532 191.594C101.375 191.821 101.218 192.048 101.056 192.282C99.9143 193.943 98.834 195.631 97.7946 197.359C97.6465 197.563 97.4985 197.767 97.3459 197.977C97.1249 197.977 96.9039 197.977 96.6762 197.977C96.5933 198.212 96.5105 198.447 96.4251 198.688C96.2869 199.006 96.1488 199.324 96.0065 199.651C95.7952 200.171 95.7952 200.171 95.5797 200.701C94.5183 201.817 94.2763 201.817 92.7974 201.908C91.9855 201.916 91.1735 201.913 90.3617 201.902C89.9103 201.903 89.4588 201.905 89.0074 201.907C87.7657 201.912 86.5243 201.904 85.2826 201.894C83.944 201.885 82.6055 201.888 81.267 201.889C78.9475 201.89 76.6282 201.884 74.3087 201.873C70.9552 201.856 67.6017 201.851 64.2482 201.849C58.8074 201.844 53.3668 201.831 47.9261 201.812C42.6406 201.793 37.355 201.779 32.0694 201.771C31.7437 201.77 31.4179 201.77 31.0824 201.769C29.4483 201.766 27.8143 201.764 26.1803 201.761C12.6212 201.741 -0.937872 201.705 -14.4969 201.66C-14.5911 194.505 -14.6618 187.351 -14.7051 180.195C-14.7258 176.872 -14.7539 173.55 -14.8001 170.227C-14.8403 167.329 -14.8661 164.431 -14.875 161.532C-14.8802 160 -14.8923 158.467 -14.9218 156.935C-15.1332 145.493 -15.1332 145.493 -12.0001 142.134C-11.6574 141.803 -11.3083 141.478 -10.9521 141.161C-10.2408 140.492 -9.73354 139.711 -9.20459 138.895C-9.0302 138.638 -8.85581 138.38 -8.67614 138.114C-8.51125 137.868 -8.34636 137.621 -8.17647 137.367C-7.00306 135.622 -5.8126 133.91 -4.5164 132.253C-4.05293 131.641 -4.05293 131.641 -3.78145 130.67C-3.56044 130.67 -3.33943 130.67 -3.11173 130.67C-3.03489 130.499 -2.95806 130.328 -2.8789 130.151C-2.2746 129.017 -1.5421 127.978 -0.809573 126.924C-0.648242 126.691 -0.486911 126.457 -0.320692 126.217C1.37924 123.763 3.10341 121.327 4.82842 118.891C5.37987 118.11 5.92711 117.327 6.47361 116.543C7.54283 115.013 8.62873 113.494 9.71641 111.976C10.5294 110.841 11.3316 109.699 12.1244 108.549C13.0307 107.245 13.993 105.99 14.9707 104.74C16.2257 103.131 17.3492 101.482 18.4239 99.7455C18.9856 98.8639 19.5819 98.0251 20.2028 97.1844C21.5011 95.4226 22.7507 93.6296 23.9909 91.8266C24.1852 91.546 24.3795 91.2655 24.5797 90.9764C24.7614 90.7114 24.943 90.4463 25.1302 90.1732C25.2938 89.9354 25.4574 89.6976 25.6259 89.4525C26.4578 88.1058 26.3852 86.8551 26.3532 85.3322C26.3465 84.824 26.3401 84.3158 26.3339 83.8076C26.3287 83.4085 26.3287 83.4085 26.3234 83.0014C26.2669 78.0404 26.438 73.2748 27.3604 68.3865C27.4508 67.8572 27.541 67.3279 27.6312 66.7985C28.7242 60.7554 30.8356 54.9765 33.7357 49.5737C34.1674 48.757 34.5714 47.9278 34.9767 47.0977C35.8903 45.2302 36.8754 43.438 37.9673 41.6697C38.3631 41.0079 38.7074 40.3471 39.0386 39.6514C40.8633 35.9198 43.3276 32.5459 45.7777 29.208C45.962 28.9425 46.1463 28.6771 46.3362 28.4036C46.4834 28.227 46.6306 28.0505 46.7822 27.8686C47.0033 27.8686 47.2243 27.8686 47.452 27.8686C47.452 27.6476 47.452 27.4266 47.452 27.1989Z" fill="#151515"/>
<path d="M106.596 27.7848C106.83 27.7844 107.065 27.7839 107.306 27.7835C110.997 27.785 114.505 28.0403 118.107 28.8731C118.682 28.9935 118.682 28.9935 119.267 29.1164C121.298 29.5731 122.974 30.2365 124.804 31.2171C125.25 31.3333 125.696 31.4445 126.144 31.552C137.118 35.4112 146.298 44.656 151.279 55.013C155.901 64.9322 157.506 76.4183 154.942 87.1386C154.886 87.3725 154.83 87.6064 154.773 87.8474C153.479 93.0715 151.379 98.1511 148.245 102.542C147.905 103.024 147.905 103.024 147.558 103.517C139.095 115.166 127.521 121.833 113.419 124.308C104.992 125.569 94.2675 124.759 86.6305 120.624C86.52 120.403 86.4095 120.182 86.2956 119.955C86.4061 119.844 86.5166 119.734 86.6305 119.62C85.7465 119.509 84.8624 119.399 83.9516 119.285C83.9516 118.401 83.9516 117.517 83.9516 116.606C84.6213 116.606 85.291 116.606 85.9608 116.606C85.4943 116.235 85.0267 115.866 84.5585 115.497C84.1681 115.188 84.1681 115.188 83.7698 114.873C82.9686 114.255 82.9686 114.255 82.1374 113.786C81.0886 113.145 80.1576 112.396 79.2217 111.604C79.0343 111.446 78.8469 111.287 78.6538 111.124C77.2909 109.946 76.0259 108.701 74.8058 107.377C74.6471 107.205 74.4884 107.033 74.3249 106.857C73.2361 105.643 73.2361 105.643 73.2361 104.886C72.9046 104.886 72.5731 104.886 72.2316 104.886C72.2316 105.107 72.2316 105.328 72.2316 105.556C71.679 105.556 71.1265 105.556 70.5573 105.556C70.3915 104.727 70.3915 104.727 70.2224 103.882C70.5539 103.771 70.8854 103.661 71.227 103.547C71.5585 103.878 71.5585 103.878 71.8967 104.216C72.0072 103.995 72.1177 103.774 72.2316 103.547C72.0105 103.547 71.7895 103.547 71.5618 103.547C71.3685 103.201 71.1751 102.856 70.9758 102.5C70.7252 102.067 70.4741 101.635 70.2224 101.203C70.0152 100.844 69.808 100.484 69.5945 100.114C68.7877 99.0702 68.0834 98.6837 66.8738 98.1889C67.7833 99.1514 67.7833 99.1514 68.883 99.8632C68.4243 100.922 68.2169 101.2 67.2087 101.872C66.1204 102.144 66.1204 102.144 64.8647 101.872C61.8585 98.8255 60.1736 93.2324 59.1721 89.1477C59.2976 88.3315 59.2976 88.3315 59.5069 87.8083C59.8384 88.0293 60.1699 88.2503 60.5115 88.478C60.401 89.141 60.2905 89.804 60.1766 90.4872C60.3976 90.4872 60.6186 90.4872 60.8464 90.4872C60.9569 90.8187 61.0674 91.1502 61.1812 91.4917C61.2641 91.2845 61.347 91.0773 61.4324 90.8639C61.9326 90.0134 62.2579 89.7843 63.1904 89.4826C63.9438 89.6082 63.9438 89.6082 64.5298 89.8174C64.4193 89.4859 64.3088 89.1544 64.1949 88.8129C65.1895 88.7024 66.184 88.5919 67.2087 88.478C67.3744 89.141 67.3744 89.141 67.5435 89.8174C68.0408 90.1489 68.0408 90.1489 68.5481 90.4872C68.1061 90.5977 67.6641 90.7082 67.2087 90.822C67.1741 91.0292 67.1396 91.2364 67.104 91.4499C66.8738 92.1614 66.8738 92.1614 65.8692 92.8312C64.7567 92.7226 64.3263 92.6277 63.5252 91.8266C63.5252 91.3846 63.5252 90.9426 63.5252 90.4872C63.1937 90.4872 62.8622 90.4872 62.5206 90.4872C62.5206 90.8187 62.5206 91.1502 62.5206 91.4917C62.7417 91.4917 62.9627 91.4917 63.1904 91.4917C63.3009 91.8232 63.4114 92.1548 63.5252 92.4963C64.6042 93.2156 65.3793 93.3796 66.6253 93.6147C66.8178 93.6876 67.0103 93.7606 67.2087 93.8357C67.3192 94.1673 67.4297 94.4988 67.5435 94.8403C67.5988 94.4121 67.654 93.9839 67.711 93.5427C67.7576 93.1814 67.7576 93.1814 67.8051 92.8129C67.8909 92.1598 67.8909 92.1598 67.8784 91.4917C68.2099 91.3812 68.5414 91.2707 68.883 91.1569C69.2877 90.4871 69.2877 90.4871 69.5527 89.8174C69.2315 89.6931 69.2315 89.6931 68.9039 89.5663C68.2132 89.1477 68.2132 89.1477 68.004 88.478C67.9625 88.257 67.9211 88.036 67.8784 87.8083C67.6574 87.5873 67.4364 87.3663 67.2087 87.1386C67.2087 86.6966 67.2087 86.2545 67.2087 85.7991C67.9822 86.0201 68.7557 86.2411 69.5527 86.4688C69.6632 87.0214 69.7737 87.5739 69.8875 88.1431C71.0067 88.045 71.479 87.8876 72.3022 87.0993C75.1092 83.5222 77.302 79.8375 79.2636 75.7534C78.7111 75.6429 78.1586 75.5324 77.5893 75.4185C77.4788 74.9765 77.3683 74.5345 77.2544 74.0791C77.9175 73.7476 77.9175 73.7476 78.5939 73.4094C78.9254 73.7409 79.2569 74.0724 79.5984 74.4139C80.7179 71.6327 81.4037 68.8536 81.9843 65.9169C82.0685 65.5068 82.1527 65.0967 82.2394 64.6742C82.7163 62.3172 83.1256 59.9613 83.4571 57.5793C83.6383 56.5433 83.9529 55.6503 84.3597 54.686C84.6897 53.805 84.8904 52.9156 85.1027 51.9993C85.6536 49.7057 86.582 47.7127 87.6351 45.6161C86.5334 45.8799 86.5334 45.8799 85.8352 46.9764C84.9562 47.9601 84.9562 47.9601 84.0772 48.1694C83.2819 47.9601 83.2819 47.9601 82.675 47.3531C82.2773 46.6206 82.2773 46.6206 82.2773 45.6161C81.8353 45.6161 81.3933 45.6161 80.9379 45.6161C80.8274 46.1686 80.7169 46.7211 80.603 47.2904C80.4925 47.2904 80.382 47.2904 80.2682 47.2904C80.2237 47.0361 80.1792 46.7819 80.1334 46.5199C80.0743 46.1871 80.0152 45.8543 79.9542 45.5114C79.896 45.1812 79.8377 44.851 79.7777 44.5108C79.6127 43.5795 79.6127 43.5795 79.2636 42.6023C79.2636 42.2708 79.2636 41.9393 79.2636 41.5978C79.0426 41.5978 78.8216 41.5978 78.5939 41.5978C78.5939 41.3767 78.5939 41.1557 78.5939 40.928C78.8563 40.8383 79.1188 40.7485 79.3892 40.656C80.3623 40.3092 80.3623 40.3092 80.9379 39.2537C81.1589 39.2537 81.3799 39.2537 81.6076 39.2537C81.3866 39.8063 81.1656 40.3588 80.9379 40.928C81.4851 41.5001 81.8986 41.9107 82.6122 42.2675C82.3912 41.936 82.1702 41.6045 81.9425 41.2629C81.9006 40.363 81.9006 40.363 81.9425 39.5886C82.1635 39.6991 82.3845 39.8096 82.6122 39.9235C82.6398 40.1168 82.6674 40.3102 82.6959 40.5095C83.0863 41.6807 83.9449 42.3007 84.9562 42.9372C85.941 43.3526 85.941 43.3526 86.9653 43.2721C88.0495 42.6517 88.0495 42.6517 88.9745 41.9326C89.1955 41.9326 89.4165 41.9326 89.6442 41.9326C89.6442 41.6011 89.6442 41.2696 89.6442 40.928C89.8652 40.928 90.0862 40.928 90.3139 40.928C90.3139 40.486 90.3139 40.044 90.3139 39.5886C90.0929 39.4781 89.8719 39.3676 89.6442 39.2537C89.6304 39.4955 89.6166 39.7372 89.6024 39.9862C89.1785 41.3486 88.4745 41.8269 87.3002 42.6023C85.9902 42.843 85.4952 42.7322 84.3702 42.0163C83.2149 40.8611 83.2149 40.8611 82.947 39.9235C83.0726 38.6677 83.0726 38.6677 83.2819 37.5794C84.0081 37.7489 84.6212 37.9143 85.291 38.2492C85.1702 38.0877 85.0493 37.9263 84.9248 37.76C84.6917 37.4427 84.6917 37.4427 84.4539 37.119C84.2208 36.8043 84.2208 36.8043 83.983 36.4833C83.6168 35.9052 83.6168 35.9052 83.6168 35.2354C84.2728 34.6614 84.9424 34.1023 85.6259 33.5611C86.2036 33.9209 86.7813 34.2806 87.3591 34.6403C88.0273 35.0048 88.0273 35.0048 88.9745 34.5657C90.8391 34.756 90.8391 34.756 91.6534 35.5703C91.4876 34.9073 91.4876 34.9073 91.3185 34.2309C91.0146 34.3137 90.7107 34.3966 90.3976 34.482C89.3094 34.5657 89.3094 34.5657 88.5141 33.9588C87.9699 33.2263 87.9699 33.2263 87.9699 32.5566C87.6384 32.4461 87.3069 32.3356 86.9653 32.2217C87.6172 30.9179 89.3376 30.6531 90.6488 30.2126C91.7115 29.8944 92.7794 29.5996 93.8509 29.3126C94.1156 29.2408 94.3804 29.169 94.6532 29.0951C96.4426 28.6306 98.1835 28.3708 100.025 28.2034C100.356 28.7007 100.356 28.7007 100.695 29.208C100.916 29.208 101.137 29.208 101.364 29.208C101.033 28.8765 100.701 28.545 100.36 28.2034C102.361 27.5906 104.524 27.7871 106.596 27.7848Z" fill="#161616"/>
<path d="M77.5893 67.7167C77.9242 68.7213 77.9242 68.7213 77.6939 69.37C77.6594 69.598 77.6249 69.8259 77.5893 70.0607C78.0216 70.5209 78.4685 70.9678 78.9287 71.4001C78.9287 71.7316 78.9287 72.0631 78.9287 72.4047C78.3762 72.6257 77.8237 72.8467 77.2544 73.0744C76.8124 72.5219 76.3704 71.9694 75.915 71.4001C75.915 71.8421 75.915 72.2842 75.915 72.7396C75.694 72.7396 75.473 72.7396 75.2453 72.7396C75.4663 73.1816 75.6873 73.6236 75.915 74.079C75.252 73.858 74.589 73.637 73.9059 73.4093C73.7954 73.6303 73.6848 73.8513 73.571 74.079C74.234 74.3 74.897 74.521 75.5801 74.7487C75.4755 75.3766 75.4755 75.3766 75.2453 76.0881C74.2407 76.7579 74.2407 76.7579 73.4036 76.6951C72.5207 76.4081 72.1455 76.125 71.5618 75.4184C71.5618 75.6394 71.5618 75.8604 71.5618 76.0881C72.5154 76.9623 73.2799 77.5705 74.5756 77.7624C74.5756 77.5414 74.5756 77.3204 74.5756 77.0927C75.2386 77.0927 75.9016 77.0927 76.5847 77.0927C76.7505 77.4242 76.7505 77.4242 76.9196 77.7624C76.6986 77.9834 76.4776 78.2045 76.2499 78.4322C76.5814 78.6532 76.9129 78.8742 77.2544 79.1019C76.9824 79.7507 76.9824 79.7507 76.5847 80.4413C76.2532 80.5518 75.9217 80.6623 75.5801 80.7762C74.5649 80.179 74.2858 79.907 73.9059 78.767C73.1053 78.3965 73.1053 78.3965 72.2316 78.0973C71.9 77.8763 71.5685 77.6553 71.227 77.4276C71.4445 77.6769 71.4445 77.6769 71.6665 77.9312C72.6048 79.0758 73.19 79.8389 73.4454 81.3203C73.1973 82.66 72.7531 83.4075 71.8967 84.4596C70.55 85.3574 69.4615 85.4017 67.8784 85.1293C66.8498 84.5565 66.0685 83.8536 65.5344 82.7853C65.4781 82.096 65.4781 82.096 65.4716 81.2994C65.4668 81.0374 65.4621 80.7754 65.4572 80.5054C65.5344 79.7716 65.5344 79.7716 66.2041 78.767C66.4251 78.767 66.6461 78.767 66.8738 78.767C66.8738 78.4355 66.8738 78.104 66.8738 77.7624C66.5423 77.7624 66.2108 77.7624 65.8692 77.7624C65.8692 77.5414 65.8692 77.3204 65.8692 77.0927C65.6482 76.9822 65.4272 76.8717 65.1995 76.7579C65.4136 76.4609 65.6277 76.1639 65.8483 75.8579C66.477 74.8482 66.842 74.2526 66.8738 73.0744C66.7081 72.9087 66.5423 72.7429 66.3715 72.5721C66.2058 72.4064 66.04 72.2406 65.8692 72.0698C65.9739 71.1699 65.9739 71.1699 66.2041 70.3955C66.6461 70.285 67.0881 70.1745 67.5435 70.0607C67.5435 69.6187 67.5435 69.1767 67.5435 68.7213C67.3225 68.7213 67.1015 68.7213 66.8738 68.7213C66.8738 68.5002 66.8738 68.2792 66.8738 68.0515C67.8135 68.4344 68.297 68.8094 69.0085 69.5584C70.0105 70.5126 70.5413 70.8095 71.8967 71.0653C73.0236 71.018 74.1296 70.8936 75.2453 70.7304C75.2453 70.5094 75.2453 70.2884 75.2453 70.0607C75.4456 69.9847 75.6459 69.9087 75.8522 69.8305C76.7734 69.2777 77.0953 68.6552 77.5893 67.7167Z" fill="#221E1F"/>
<path d="M146.905 143.395C147.704 146.033 146.045 149.083 144.896 151.432C143.901 153.044 142.794 154.382 141.213 155.45C140.929 155.643 140.646 155.837 140.355 156.036C138.249 156.801 136.082 156.728 133.95 156.078C132.524 155.27 131.169 154.381 129.827 153.441C130.162 152.436 130.162 152.436 130.909 152.006C131.236 151.865 131.563 151.723 131.899 151.577C132.262 151.416 132.625 151.255 132.999 151.089C133.389 150.919 133.779 150.749 134.181 150.573C136.894 149.357 139.558 148.123 142.113 146.597C142.33 146.467 142.548 146.337 142.772 146.203C144.199 145.332 145.554 144.378 146.905 143.395Z" fill="#FEB6C4"/>
<path d="M63.8601 58.0057C64.2439 58.3335 64.6276 58.6614 65.0111 58.9894C65.2248 59.172 65.4385 59.3546 65.6586 59.5427C65.9596 59.8032 66.2574 60.0683 66.5389 60.3497C67.4332 60.397 68.3218 60.364 69.2178 60.3497C69.3283 60.5708 69.4388 60.7918 69.5527 61.0195C69.5527 60.5775 69.5527 60.1354 69.5527 59.68C69.8842 59.5695 70.2157 59.459 70.5572 59.3452C70.6677 59.7872 70.7783 60.2292 70.8921 60.6846C71.0863 60.6932 71.2806 60.7019 71.4807 60.7108C73.3033 60.8431 74.5155 61.0896 75.915 62.3589C76.7488 63.446 77.2615 64.4323 77.2453 65.8226C76.9376 67.5807 76.3407 68.602 74.9104 69.7258C73.7243 70.5561 72.6477 70.5425 71.227 70.3955C69.7916 69.6356 68.6814 68.8025 67.8784 67.3818C67.6642 65.7109 67.5992 64.4519 68.5481 63.0286C69.2111 63.2496 69.8741 63.4706 70.5572 63.6983C70.5572 63.3668 70.5572 63.0353 70.5572 62.6938C69.7285 62.528 69.7285 62.528 68.883 62.3589C68.7724 62.0274 68.6619 61.6959 68.5481 61.3543C68.2166 61.3543 67.8851 61.3543 67.5435 61.3543C67.6264 61.5408 67.7093 61.7273 67.7947 61.9194C67.8784 62.6938 67.8784 62.6938 67.3552 63.6146C66.5389 64.3681 66.5389 64.3681 65.4925 64.5146C64.5298 64.3681 64.5298 64.3681 63.8601 63.6983C63.8182 62.4845 63.8182 62.4845 63.8601 61.3543C64.0811 61.3543 64.3021 61.3543 64.5298 61.3543C64.5857 60.5452 64.5857 60.5452 64.5298 59.68C64.3088 59.459 64.0878 59.238 63.8601 59.0103C63.8601 58.6788 63.8601 58.3473 63.8601 58.0057Z" fill="#1C1A1A"/>
<path d="M76.5846 41.9326C78.0352 42.7353 78.8086 43.5394 79.2844 45.1347C79.2566 46.6634 78.9324 47.4724 78.0705 48.7135C76.8647 49.5792 75.7118 49.7465 74.2405 49.6343C72.9524 48.9786 72.3621 48.491 71.5617 47.2903C71.1812 45.9732 71.163 45.431 71.7082 44.151C71.8808 43.861 72.0535 43.5709 72.2314 43.272C72.6734 43.493 73.1154 43.714 73.5708 43.9417C73.6813 43.7207 73.7918 43.4997 73.9057 43.272C73.5742 43.272 73.2427 43.272 72.9011 43.272C73.0116 42.9405 73.1221 42.609 73.236 42.2674C74.477 41.8538 75.2778 41.7801 76.5846 41.9326Z" fill="#151515"/>
<path d="M71.227 77.0929C71.4135 77.2448 71.6 77.3968 71.7921 77.5533C72.5452 78.1339 72.5452 78.1339 73.4455 78.4114C74.4121 78.8439 74.4655 79.1871 74.9105 80.1066C75.5459 80.4399 75.5459 80.4399 76.2499 80.4415C76.5814 80.2205 76.9129 79.9995 77.2545 79.7718C76.2988 83.1799 73.5769 85.9091 71.227 88.4781C70.785 88.3676 70.343 88.2571 69.8876 88.1432C69.7218 87.3145 69.7218 87.3145 69.5527 86.4689C69.3265 86.4361 69.1004 86.4033 68.8673 86.3695C65.8907 85.8706 65.8907 85.8706 64.8647 84.4598C64.0978 83.3095 64.1352 82.7904 64.195 81.4461C63.974 81.4461 63.753 81.4461 63.5253 81.4461C63.8968 80.2785 64.2832 79.1774 64.8647 78.0975C65.1962 78.208 65.5277 78.3185 65.8693 78.4323C65.8537 78.7272 65.8382 79.022 65.8222 79.3257C65.8101 79.7146 65.798 80.1036 65.7856 80.5043C65.77 80.8889 65.7545 81.2735 65.7385 81.6697C65.8944 82.9997 66.279 83.5181 67.2087 84.4598C68.3716 85.0412 69.6237 84.9962 70.8922 84.7947C71.8149 84.0641 72.3776 83.4982 72.9013 82.4506C73.0284 80.7663 72.9165 79.792 71.8967 78.4323C71.3668 77.8458 71.3668 77.8458 70.8922 77.4278C71.0027 77.3173 71.1132 77.2067 71.227 77.0929Z" fill="#E1A2AE"/>
<path d="M80.2681 54.3223C81.2726 55.2013 81.2726 55.2013 81.9424 56.3314C82.0051 57.5244 82.0051 57.5244 81.6075 58.6754C80.6415 59.7313 80.0013 60.2658 78.5938 60.559C77.1981 60.2682 76.5474 59.7103 75.58 58.6754C75.2045 57.4488 75.1599 56.5406 75.58 55.3268C76.2431 55.5479 76.9061 55.7689 77.5892 55.9966C77.3406 55.7686 77.3406 55.7686 77.0869 55.5361C76.5846 54.992 76.5846 54.992 76.5846 54.3223C77.8831 53.8548 78.9461 53.9744 80.2681 54.3223Z" fill="#151515"/>
<path d="M106.207 0.00631048C107.153 0.0125231 108.098 0.0131774 109.044 0.013096C109.646 0.0147388 110.248 0.0166891 110.85 0.0189821C111.132 0.0193548 111.414 0.0197274 111.705 0.0201114C113.676 0.0363266 113.676 0.0363266 114.424 0.410087C114.872 0.475211 115.323 0.524931 115.775 0.565744C116.046 0.591859 116.318 0.617974 116.597 0.644881C117.162 0.696793 117.727 0.748258 118.292 0.79923C120.606 1.02318 122.801 1.46179 125.035 2.10531C126.073 2.3992 127.086 2.59798 128.153 2.7541C128.153 2.97511 128.153 3.19611 128.153 3.42382C126.054 3.22045 124.038 2.8834 121.979 2.44017C109.763 -0.040103 96.0139 0.160466 84.1177 4.1524C83.2196 4.44897 82.8137 4.42864 81.9424 4.09353C82.9922 3.47144 83.7422 3.35637 84.9562 3.42382C84.9562 3.20281 84.9562 2.9818 84.9562 2.7541C86.3484 2.47866 87.7409 2.20488 89.1337 1.93248C89.6053 1.84004 90.0767 1.74719 90.5481 1.65387C92.1421 1.33847 93.7382 1.0367 95.3368 0.744946C95.7126 0.674775 96.0883 0.604604 96.4755 0.532307C99.7179 -0.00754815 102.93 -0.016041 106.207 0.00631048Z" fill="#151515"/>
<path d="M64.1948 70.7304C65.088 71.3881 65.7041 72.0824 66.204 73.0744C66.0817 74.5179 65.7501 75.1718 64.8018 76.2556C63.5348 76.9313 62.8806 76.82 61.516 76.423C60.606 75.7525 60.2533 75.3197 59.9045 74.2464C59.8426 73.422 59.9167 72.8493 60.1765 72.0698C61.0053 72.4013 61.0053 72.4013 61.8508 72.7395C61.6298 72.2975 61.4088 71.8555 61.1811 71.4001C62.3733 70.6053 62.7914 70.4827 64.1948 70.7304Z" fill="#151515"/>
<path d="M86.6303 32.2217C86.6303 32.4427 86.6303 32.6637 86.6303 32.8914C86.2988 33.0019 85.9673 33.1124 85.6258 33.2263C85.1761 33.8939 84.7295 34.5635 84.2863 35.2354C84.0653 35.2354 83.8443 35.2354 83.6166 35.2354C83.8307 35.5462 84.0448 35.857 84.2654 36.1772C84.956 37.2446 84.956 37.2446 85.2909 38.2491C84.6279 38.0281 83.9649 37.8071 83.2818 37.5794C83.1833 39.2529 83.249 40.253 84.2863 41.5977C85.4722 42.3883 85.9029 42.4592 87.3001 42.2674C88.349 41.658 89.163 40.9795 89.6022 39.8188C89.616 39.6323 89.6298 39.4458 89.6441 39.2537C89.9756 39.3642 90.3071 39.4747 90.6487 39.5886C90.5381 40.0306 90.4276 40.4726 90.3138 40.928C90.0928 40.928 89.8718 40.928 89.6441 40.928C89.6441 41.2595 89.6441 41.591 89.6441 41.9326C88.8575 42.6946 87.9814 43.2054 86.9652 43.6069C85.5653 43.4003 84.7887 43.0489 83.6166 42.2674C83.6166 42.0464 83.6166 41.8254 83.6166 41.5977C83.2851 41.4872 82.9536 41.3767 82.612 41.2629C82.3888 40.4815 82.1656 39.7002 81.9423 38.9189C81.6108 38.8084 81.2793 38.6979 80.9377 38.584C81.2693 38.4735 81.6008 38.363 81.9423 38.2491C81.9423 38.0281 81.9423 37.8071 81.9423 37.5794C81.2793 37.3584 80.6163 37.1374 79.9332 36.9097C80.9804 35.0646 81.9171 34.1797 83.784 33.1635C84.1052 32.9861 84.4263 32.8087 84.7572 32.6259C85.6258 32.2217 85.6258 32.2217 86.6303 32.2217Z" fill="#A47880"/>
<path d="M60.8464 58.3407C61.0674 58.3407 61.2884 58.3407 61.5161 58.3407C61.4263 58.5755 61.3365 58.8103 61.244 59.0523C61.1712 60.1691 61.3046 60.3048 61.9974 61.1242C62.2806 61.4212 62.5638 61.7182 62.8555 62.0241C62.4369 62.5474 62.4369 62.5474 61.8509 63.0287C61.1184 62.9241 61.1184 62.9241 60.5115 62.6939C60.5115 63.0254 60.5115 63.3569 60.5115 63.6984C60.2905 63.6984 60.0695 63.6984 59.8418 63.6984C59.8418 64.03 59.8418 64.3615 59.8418 64.703C60.1733 64.8135 60.5048 64.924 60.8464 65.0379C60.7359 65.4799 60.6254 65.9219 60.5115 66.3773C60.0695 66.3773 59.6275 66.3773 59.1721 66.3773C59.2826 66.5983 59.3931 66.8193 59.5069 67.047C59.8384 66.9365 60.17 66.826 60.5115 66.7122C61.1224 67.119 61.1224 67.119 61.7463 67.6958C62.059 67.9801 62.059 67.9801 62.3781 68.27C62.5356 68.419 62.6932 68.5679 62.8555 68.7213C61.5043 70.9235 61.5043 70.9235 60.3232 71.4421C59.5069 71.4002 59.5069 71.4002 58.7326 71.0235C58.1675 70.3956 58.1675 70.3956 58.021 69.5585C58.1879 68.6049 58.4254 68.3079 59.1721 67.7167C58.9511 67.7167 58.7301 67.7167 58.5024 67.7167C58.3319 65.5222 58.9468 63.7652 59.6744 61.7102C59.7862 61.3854 59.898 61.0606 60.0131 60.7259C60.2877 59.9297 60.5655 59.1347 60.8464 58.3407Z" fill="#292324"/>
<path d="M66.8738 54.9921C67.1707 55.144 67.4677 55.2959 67.7737 55.4525C68.6918 55.9029 69.603 56.3015 70.5572 56.6664C70.3749 57.9423 69.8913 58.5549 68.8829 59.3452C67.9202 59.701 67.9202 59.701 66.8738 59.6801C65.7212 58.9407 65.0172 58.4331 64.5507 57.1268C64.5298 56.3315 64.5298 56.3315 64.8646 55.3269C65.2686 55.3373 65.2686 55.3373 65.6808 55.3479C66.5167 55.4262 66.5167 55.4262 66.8738 54.9921Z" fill="#151515"/>
<path d="M144.226 9.78625C146.288 10.7789 148.39 11.7984 150.253 13.1348C150.253 13.3559 150.253 13.5769 150.253 13.8046C150.454 13.846 150.654 13.8874 150.86 13.9301C151.593 14.1394 151.593 14.1394 152.598 14.8091C152.598 15.0301 152.598 15.2512 152.598 15.4789C152.947 15.5922 152.947 15.5922 153.304 15.7078C154.487 16.2468 155.393 16.9976 156.365 17.8438C156.555 18.0072 156.745 18.1707 156.942 18.3391C158.586 19.7657 160.127 21.2798 161.639 22.8458C161.922 23.122 162.205 23.3983 162.497 23.6829C163.708 24.9252 164.847 26.2301 165.992 27.5338C165.826 27.8653 165.826 27.8653 165.657 28.2035C165.514 28.0486 165.371 27.8937 165.224 27.7341C158.786 20.7784 152.043 15.3094 143.891 10.456C144.002 10.235 144.112 10.014 144.226 9.78625Z" fill="#151515"/>
<path d="M68.5479 10.7907C68.3696 10.9033 68.1913 11.0159 68.0075 11.1319C61.7482 15.0994 56.0935 19.3455 50.9757 24.7332C50.4656 25.1897 50.4656 25.1897 49.7958 25.1897C50.3376 23.8305 51.3035 22.9105 52.3282 21.9039C52.5088 21.725 52.6894 21.5462 52.8755 21.3619C54.0978 20.1683 55.3599 19.0801 56.7337 18.0621C57.6356 17.3842 58.4949 16.6631 59.3602 15.9392C63.1811 12.7999 63.1811 12.7999 64.5296 12.7999C64.5296 12.5789 64.5296 12.3579 64.5296 12.1302C65.0085 11.84 65.4905 11.5549 65.9737 11.2721C66.3758 11.0332 66.3758 11.0332 66.786 10.7894C67.5434 10.4559 67.5434 10.4559 68.5479 10.7907Z" fill="#151515"/>
<path d="M67.2085 88.8128C67.319 89.1443 67.4295 89.4758 67.5434 89.8174C67.8749 90.0384 68.2064 90.2594 68.5479 90.4871C68.1059 90.5976 67.6639 90.7081 67.2085 90.822C67.1567 91.1328 67.1567 91.1328 67.1039 91.4498C66.8737 92.1614 66.8737 92.1614 65.8691 92.8311C64.7565 92.7226 64.3261 92.6276 63.5251 91.8265C63.5251 91.3845 63.5251 90.9425 63.5251 90.4871C62.9725 90.3766 62.42 90.2661 61.8508 90.1522C62.6392 89.6736 63.0162 89.4535 63.9436 89.6081C64.2337 89.7117 64.2337 89.7117 64.5296 89.8174C64.4191 89.4859 64.3086 89.1544 64.1948 88.8128C66.4551 88.4361 66.4551 88.4361 67.2085 88.8128Z" fill="#292224"/>
<path d="M63.1902 64.0332C63.4803 64.199 63.7703 64.3647 64.0692 64.5355C65.2354 65.0538 65.952 65.1275 67.2085 65.0378C67.2085 65.8113 67.2085 66.5848 67.2085 67.3818C66.877 67.5475 66.877 67.5475 66.5388 67.7167C66.5388 67.3851 66.5388 67.0536 66.5388 66.7121C66.2971 66.9814 66.0553 67.2508 65.8063 67.5283C64.8561 68.394 64.4387 68.6142 63.1902 68.7212C62.4996 67.9678 62.4996 67.9678 61.8508 67.0469C61.9345 66.2726 61.9345 66.2726 62.1856 65.7075C62.5171 65.7075 62.8486 65.7075 63.1902 65.7075C63.1902 65.155 63.1902 64.6025 63.1902 64.0332Z" fill="#272122"/>
<path d="M59.8417 83.4551C61.6872 83.6601 61.6872 83.6601 62.4578 84.2713C62.8554 84.7945 62.8554 84.7945 63.1903 85.4642C64.0366 85.6837 64.0366 85.6837 64.8646 85.7991C64.6436 86.0201 64.4226 86.2411 64.1949 86.4688C63.0109 86.2894 63.0109 86.2894 62.5206 85.7991C62.4032 86.0753 62.2858 86.3516 62.1648 86.6362C61.516 87.4734 61.516 87.4734 60.3231 87.6408C59.9432 87.5856 59.5634 87.5303 59.172 87.4734C58.4051 86.3231 58.4425 85.804 58.5023 84.4597C58.7233 84.4597 58.9443 84.4597 59.172 84.4597C59.393 84.1281 59.614 83.7966 59.8417 83.4551Z" fill="#2B2425"/>
<path d="M74.9104 59.6802C76.5429 60.2662 76.5429 60.2662 76.9196 61.0196C77.5975 61.238 77.5975 61.238 78.259 61.3545C78.259 61.5755 78.259 61.7965 78.259 62.0242C78.48 62.0242 78.701 62.0242 78.9287 62.0242C78.9287 61.8032 78.9287 61.5822 78.9287 61.3545C79.5866 60.9969 80.2576 60.6628 80.9379 60.3499C81.1589 60.4604 81.3799 60.5709 81.6076 60.6848C80.9379 61.6893 80.9379 61.6893 79.9333 62.0242C80.4858 62.4662 81.0383 62.9082 81.6076 63.3636C80.9797 64.6612 80.9797 64.6612 80.603 65.0379C79.8077 65.1426 79.8077 65.1426 78.9287 65.0379C77.887 64.0706 77.7458 63.0668 77.5893 61.6893C77.4028 61.7722 77.2163 61.8551 77.0242 61.9405C76.2499 62.0242 76.2499 62.0242 75.329 61.3754C75.0804 61.1475 74.8317 60.9196 74.5756 60.6848C74.6861 60.3532 74.7966 60.0217 74.9104 59.6802Z" fill="#151515"/>
<path d="M77.2543 111.249C78.4846 111.351 78.8553 111.502 79.7029 112.441C79.9826 112.845 79.9826 112.845 80.268 113.258C79.0541 115.225 79.0541 115.225 77.924 115.602C76.6937 115.032 76.0637 114.533 75.58 113.258C75.7941 113.175 76.0082 113.092 76.2287 113.007C76.9821 112.65 76.9821 112.65 77.1705 111.876C77.1982 111.669 77.2258 111.462 77.2543 111.249Z" fill="#2C2526"/>
<path d="M165.992 28.2035C168.34 28.9863 170.142 32.4736 171.35 34.5658C171.35 34.7868 171.35 35.0078 171.35 35.2355C171.571 35.2355 171.792 35.2355 172.019 35.2355C172.157 35.4898 172.294 35.744 172.435 36.006C172.616 36.3388 172.796 36.6716 172.982 37.0145C173.161 37.3447 173.34 37.6749 173.524 38.0151C174.031 38.9511 174.031 38.9511 174.698 39.9236C174.698 40.2551 174.698 40.5866 174.698 40.9281C174.919 40.9281 175.14 40.9281 175.368 40.9281C175.601 41.4709 175.831 42.0154 176.059 42.5606C176.187 42.8636 176.315 43.1666 176.447 43.4788C176.707 44.2767 176.707 44.2767 176.373 44.9464C176.255 44.7342 176.137 44.5219 176.015 44.3032C173.242 39.32 170.418 34.5564 166.925 30.0439C166.327 29.2081 166.327 29.2081 165.992 28.2035Z" fill="#151515"/>
<path d="M76.9196 79.7717C77.0301 79.9927 77.1406 80.2137 77.2545 80.4414C75.8807 83.165 73.4908 87.306 70.5573 88.4781C70.2258 88.1466 69.8943 87.815 69.5527 87.4735C70.8085 86.4689 70.8085 86.4689 71.5619 86.4689C71.5619 86.2479 71.5619 86.0269 71.5619 85.7992C72.1162 85.4581 72.6745 85.1234 73.2362 84.7946C73.3467 84.5736 73.4572 84.3526 73.571 84.1249C73.792 84.1249 74.0131 84.1249 74.2408 84.1249C74.2822 83.745 74.3236 83.3652 74.3663 82.9738C74.4354 82.5801 74.5045 82.1865 74.5756 81.7809C74.7966 81.6704 75.0176 81.5599 75.2453 81.446C75.0243 81.004 74.8033 80.562 74.5756 80.1066C74.9693 80.2102 74.9693 80.2102 75.3709 80.3159C75.661 80.3573 75.9511 80.3988 76.2499 80.4414C76.4709 80.2204 76.6919 79.9994 76.9196 79.7717Z" fill="#FFB7C5"/>
<path d="M57.8326 71.0652C58.3851 71.5072 58.9376 71.9492 59.5068 72.4046C59.0648 72.4046 58.6228 72.4046 58.1674 72.4046C58.2779 73.3992 58.3884 74.3937 58.5023 75.4184C59.0548 75.5289 59.6073 75.6394 60.1766 75.7532C60.1766 75.9742 60.1766 76.1952 60.1766 76.4229C59.9556 76.5334 59.7346 76.6439 59.5068 76.7578C59.8384 76.9788 60.1699 77.1998 60.5114 77.4275C60.5114 77.8695 60.5114 78.3115 60.5114 78.7669C59.7371 78.9762 59.7371 78.9762 58.8371 79.1018C58.5056 78.8808 58.1741 78.6598 57.8326 78.4321C57.3704 76.0375 57.2185 73.4446 57.8326 71.0652Z" fill="#151515"/>
<path d="M65.1992 77.4276C63.9854 78.4322 63.9854 78.4322 62.8552 78.4322C63.1867 78.6532 63.5182 78.8742 63.8598 79.1019C63.5904 79.1502 63.3211 79.1986 63.0436 79.2484C62.2119 79.3501 62.2119 79.3501 61.8506 79.7716C62.4032 79.7716 62.9557 79.7716 63.5249 79.7716C63.2947 80.5669 63.2947 80.5669 62.8552 81.4459C61.9762 81.8854 61.9762 81.8854 61.1809 82.1156C60.3437 81.3876 60.0303 80.8665 59.8415 79.7716C60.173 79.6611 60.5045 79.5506 60.8461 79.4368C60.9151 79.1674 60.9842 78.8981 61.0554 78.6205C61.5158 77.7625 61.5158 77.7625 62.2038 77.4917C64.3385 76.9972 64.3385 76.9972 65.1992 77.4276Z" fill="#151515"/>
<path d="M71.8968 56.6664C72.5598 56.6664 73.2228 56.6664 73.906 56.6664C73.906 56.9979 73.906 57.3294 73.906 57.671C73.4639 57.45 73.0219 57.2289 72.5665 57.0012C72.5665 57.2222 72.5665 57.4433 72.5665 57.671C73.2295 57.892 73.8926 58.113 74.5757 58.3407C74.3837 59.3008 74.2872 59.6337 73.5711 60.3498C72.5024 60.4904 72.0358 60.44 71.1224 59.8475C70.936 59.6818 70.7495 59.516 70.5574 59.3453C70.7784 58.7927 70.9994 58.2402 71.2271 57.671C71.5586 57.671 71.8901 57.671 72.2317 57.671C72.1212 57.3394 72.0107 57.0079 71.8968 56.6664Z" fill="#151515"/>
<path d="M82.947 37.9143C83.2819 38.9189 83.2819 38.9189 83.3656 39.7142C83.7194 40.9527 84.2824 41.483 85.291 42.2675C86.3366 42.4899 86.9325 42.4847 87.8626 41.9352C88.6709 41.3126 89.2382 40.7811 89.6023 39.8188C89.6161 39.6323 89.63 39.4459 89.6442 39.2537C89.9757 39.3642 90.3072 39.4747 90.6488 39.5886C90.5383 40.0306 90.4278 40.4726 90.3139 40.928C90.0929 40.928 89.8719 40.928 89.6442 40.928C89.6442 41.2595 89.6442 41.5911 89.6442 41.9326C88.8576 42.6947 87.9815 43.2054 86.9653 43.6069C85.5654 43.4004 84.7888 43.0489 83.6167 42.2675C83.6167 42.0465 83.6167 41.8255 83.6167 41.5978C83.2852 41.4873 82.9537 41.3767 82.6121 41.2629C82.2243 39.9053 82.3319 39.1807 82.947 37.9143Z" fill="#FFB7C5"/>
<path d="M177.377 105.221C177.794 106.47 177.463 106.923 176.908 108.066C176.794 108.295 176.679 108.523 176.561 108.758C175.713 110.271 175.713 110.271 175.368 111.918C175.542 111.995 175.716 112.073 175.895 112.152C177.473 112.89 178.564 113.63 179.721 114.932C179.611 115.153 179.5 115.374 179.386 115.601C179.124 115.367 178.862 115.132 178.591 114.89C177.189 113.713 175.611 112.828 174.029 111.918C174.523 110.864 175.019 109.811 175.515 108.758C175.656 108.457 175.796 108.156 175.942 107.847C176.077 107.561 176.211 107.275 176.35 106.98C176.537 106.583 176.537 106.583 176.728 106.178C177.042 105.556 177.042 105.556 177.377 105.221Z" fill="#151515"/>
<path d="M66.8738 74.0791C67.0948 74.0791 67.3158 74.0791 67.5435 74.0791C67.5643 74.3415 67.585 74.604 67.6063 74.8744C67.6961 75.1645 67.7859 75.4545 67.8784 75.7534C68.7076 76.2137 68.7076 76.2137 69.5527 76.4231C68.3229 77.243 67.3605 77.7625 65.8692 77.7625C65.8692 77.5415 65.8692 77.3205 65.8692 77.0928C65.6482 76.9823 65.4272 76.8718 65.1995 76.758C65.4617 76.3097 65.7274 75.8637 65.9948 75.4185C66.1424 75.1699 66.2901 74.9213 66.4422 74.6651C66.5846 74.4717 66.7271 74.2783 66.8738 74.0791Z" fill="#181717"/>
<path d="M74.2409 52.3133C75.0152 52.6691 75.0152 52.6691 75.5803 52.983C75.5175 53.6109 75.5175 53.6109 75.2454 54.3224C74.3433 54.8588 73.8515 55.0544 72.8177 54.8247C71.9679 54.0963 71.9909 53.3951 71.8969 52.3133C72.8085 51.8575 73.2675 52.0584 74.2409 52.3133Z" fill="#151515"/>
<path d="M77.9242 65.0378C78.1452 65.0378 78.3662 65.0378 78.5939 65.0378C78.7044 65.3694 78.8149 65.7009 78.9288 66.0424C79.5473 66.274 79.5473 66.274 80.2682 66.3773C80.7147 66.4889 81.1612 66.6005 81.6076 66.7121C81.4156 67.6723 81.3192 68.0052 80.6031 68.7213C79.7868 68.7004 79.7868 68.7004 78.9288 68.3864C78.0298 67.2705 77.8026 66.457 77.9242 65.0378Z" fill="#151515"/>
<path d="M75.5801 109.574C75.1381 109.574 74.6961 109.574 74.2407 109.574C74.2407 109.795 74.2407 110.016 74.2407 110.244C74.6827 110.354 75.1247 110.465 75.5801 110.579C75.4696 111.021 75.3591 111.463 75.2453 111.918C74.5337 112.211 74.5337 112.211 73.571 112.253C72.8024 111.668 72.1832 110.98 71.5618 110.244C71.6723 110.023 71.7828 109.802 71.8967 109.574C72.394 109.906 72.394 109.906 72.9013 110.244C73.0118 109.912 73.1223 109.581 73.2361 109.239C74.3649 108.75 74.5024 108.856 75.5801 109.574Z" fill="#151515"/>
<path d="M60.8461 58.3407C61.0671 58.3407 61.2881 58.3407 61.5158 58.3407C61.426 58.5755 61.3362 58.8103 61.2437 59.0523C61.1709 60.1691 61.3043 60.3048 61.9971 61.1242C62.2803 61.4212 62.5635 61.7182 62.8552 62.0241C62.4366 62.5474 62.4366 62.5474 61.8506 63.0287C61.0721 62.9344 60.5417 62.7091 59.8415 62.359C60.0116 60.9132 60.2423 59.6691 60.8461 58.3407Z" fill="#151515"/>
<path d="M77.5893 67.7167C77.9241 68.7213 77.9241 68.7213 77.6939 69.37C77.6594 69.598 77.6249 69.8259 77.5893 70.0607C78.0216 70.5209 78.4685 70.9678 78.9287 71.4001C78.9287 71.7316 78.9287 72.0631 78.9287 72.4047C78.3762 72.6257 77.8237 72.8467 77.2544 73.0744C76.8124 72.5219 76.3704 71.9694 75.915 71.4001C76.136 71.0686 76.357 70.7371 76.5847 70.3955C76.5847 70.064 76.5847 69.7325 76.5847 69.391C76.9019 68.8226 77.2351 68.2627 77.5893 67.7167Z" fill="#151515"/>
<path d="M71.8967 62.0242C74.6156 62.4134 74.6156 62.4134 75.7685 63.5101C76.2499 64.3682 76.2499 64.3682 76.2499 65.3728C75.9183 65.3728 75.5868 65.3728 75.2453 65.3728C74.9897 65.1103 74.7342 64.8479 74.4709 64.5775C73.5123 63.6412 72.8426 63.3564 71.5618 63.0287C71.6723 62.6972 71.7828 62.3657 71.8967 62.0242Z" fill="#FFB7C5"/>
<path d="M74.2405 109.574C75.0252 109.66 75.8072 109.772 76.5846 109.909C77.0515 110.843 77.0053 111.557 76.9194 112.588C75.9148 113.257 75.9148 113.257 75.1823 113.132C74.982 113.063 74.7818 112.994 74.5754 112.923C74.679 112.722 74.7826 112.522 74.8893 112.316C75.2793 111.553 75.2793 111.553 75.58 110.579C75.138 110.468 74.6959 110.358 74.2405 110.244C74.2405 110.023 74.2405 109.802 74.2405 109.574Z" fill="#B98790"/>
<path d="M64.8647 78.0973C65.1962 78.2078 65.5277 78.3183 65.8693 78.4321C65.5378 78.9294 65.5378 78.9294 65.1996 79.4367C64.9769 81.254 64.8717 82.9087 65.8274 84.5015C66.0622 84.7087 66.2971 84.9159 66.539 85.1293C66.76 85.3503 66.981 85.5713 67.2087 85.799C66.4553 85.7572 66.4553 85.7572 65.5344 85.4642C64.6111 84.3911 64.2165 83.7454 64.1113 82.3249C64.1389 82.0348 64.1665 81.7447 64.195 81.4459C63.974 81.4459 63.753 81.4459 63.5253 81.4459C63.8968 80.2783 64.2832 79.1773 64.8647 78.0973Z" fill="#151515"/>
<path d="M80.9378 52.6481C82.2079 52.9836 83.1865 53.2542 84.2864 53.9875C84.0654 54.4295 83.8444 54.8715 83.6167 55.3269C82.8214 55.3688 82.8214 55.3688 81.9424 55.3269C81.0833 54.4679 81.0917 53.8278 80.9378 52.6481Z" fill="#151515"/>
<path d="M133.176 5.09814C135.494 5.25619 137.436 6.16532 139.538 7.1073C139.939 7.27996 140.339 7.45262 140.752 7.63052C141.642 8.16922 141.805 8.52688 142.217 9.45131C141.901 9.30153 141.585 9.15174 141.26 8.99742C138.592 7.73906 135.912 6.53851 133.176 5.433C133.176 5.3225 133.176 5.212 133.176 5.09814Z" fill="#151515"/>
<path d="M70.892 42.9373C70.892 44.0744 70.7173 44.2989 70.0548 45.1766C69.8994 45.3851 69.744 45.5936 69.5839 45.8084C69.4631 45.966 69.3422 46.1235 69.2177 46.2858C69.5492 46.5069 69.8807 46.7279 70.2222 46.9556C70.0012 47.3976 69.7802 47.8396 69.5525 48.295C69.1105 48.1845 68.6685 48.074 68.2131 47.9601C67.9528 47.2342 67.9528 47.2342 67.8782 46.2858C68.5048 45.3898 68.5048 45.3898 69.3642 44.5069C69.7883 44.0634 69.7883 44.0634 70.2209 43.6109C70.4424 43.3886 70.6638 43.1663 70.892 42.9373Z" fill="#151515"/>
<path d="M78.5939 49.2994C78.7044 49.5204 78.8149 49.7415 78.9287 49.9692C79.3734 50.0877 79.8202 50.1986 80.2682 50.304C80.5997 50.525 80.9312 50.746 81.2727 50.9737C81.0517 51.4157 80.8307 51.8578 80.603 52.3132C79.8077 52.2295 79.8077 52.2295 78.9287 51.9783C78.5311 51.3295 78.5311 51.3295 78.259 50.6389C78.038 50.4179 77.817 50.1969 77.5893 49.9692C77.9208 49.7481 78.2523 49.5271 78.5939 49.2994Z" fill="#151515"/>
<path d="M83.6377 49.2576C83.9588 49.4441 83.9588 49.4441 84.2865 49.6343C84.5075 49.7448 84.7285 49.8554 84.9562 49.9692C84.8457 50.4112 84.7352 50.8532 84.6213 51.3086C83.847 51.5389 83.847 51.5389 82.947 51.6435C82.3401 51.2459 82.3401 51.2459 81.9424 50.6389C81.9424 50.1969 81.9424 49.7549 81.9424 49.2995C82.947 48.9646 82.947 48.9646 83.6377 49.2576Z" fill="#151515"/>
<path d="M179.386 51.3086C181.409 53.5239 182.007 57.3226 182.107 60.2242C182.093 60.4867 182.079 60.7491 182.065 61.0195C181.955 61.0195 181.844 61.0195 181.73 61.0195C181.683 60.8373 181.636 60.6551 181.587 60.4673C181.371 59.6327 181.153 58.7983 180.935 57.9639C180.861 57.6773 180.787 57.3907 180.71 57.0954C180.395 55.8901 180.074 54.7078 179.666 53.5297C179.386 52.648 179.386 52.648 179.386 51.3086Z" fill="#151515"/>
<path d="M68.8829 106.56C69.2144 106.671 69.5459 106.781 69.8875 106.895C69.8875 107.116 69.8875 107.337 69.8875 107.565C70.219 107.454 70.5505 107.344 70.892 107.23C71.6245 107.544 71.6245 107.544 72.2315 107.9C72.2315 108.342 72.2315 108.784 72.2315 109.239C71.499 109.365 71.499 109.365 70.5572 109.239C69.8579 108.627 69.4242 108.003 68.8829 107.23C68.8829 107.009 68.8829 106.788 68.8829 106.56Z" fill="#151515"/>
<path d="M74.5756 42.9372C75.6429 42.8116 75.6429 42.8116 76.9196 42.9372C77.6721 43.5407 78.0512 44.1241 78.5939 44.9464C78.5939 45.1674 78.5939 45.3884 78.5939 45.6161C78.2624 45.6161 77.9308 45.6161 77.5893 45.6161C77.1428 45.1696 76.6963 44.7231 76.2499 44.2766C75.3684 43.8566 75.3684 43.8566 74.5756 43.6069C74.5756 43.3859 74.5756 43.1649 74.5756 42.9372Z" fill="#FFB7C5"/>
<path d="M80.6029 113.927C81.6885 114.045 82.1483 114.116 82.8841 114.953C83.0153 115.167 83.1465 115.381 83.2817 115.602C82.6187 115.933 82.6187 115.933 81.9423 116.271C81.6108 116.05 81.2793 115.829 80.9377 115.602C80.9377 115.381 80.9377 115.16 80.9377 114.932C80.7167 114.932 80.4957 114.932 80.268 114.932C80.3785 114.6 80.489 114.269 80.6029 113.927Z" fill="#151515"/>
<path d="M68.883 78.4323C71.0261 78.5559 71.0261 78.5559 72.0432 79.6252C72.2158 79.8945 72.3885 80.1639 72.5664 80.4414C72.4559 80.6624 72.3454 80.8834 72.2315 81.1111C72.0105 81.1111 71.7895 81.1111 71.5618 81.1111C71.3615 80.9039 71.1613 80.6967 70.9549 80.4833C70.1805 79.731 69.5621 79.44 68.5481 79.102C68.6586 78.881 68.7691 78.66 68.883 78.4323Z" fill="#FFB7C5"/>
<path d="M78.5939 37.5795C78.7044 37.8005 78.8149 38.0215 78.9287 38.2492C79.6067 38.4676 79.6067 38.4676 80.2682 38.584C80.1577 39.0261 80.0472 39.4681 79.9333 39.9235C79.138 39.9653 79.138 39.9653 78.259 39.9235C78.038 39.7025 77.817 39.4815 77.5893 39.2538C77.5893 38.9223 77.5893 38.5907 77.5893 38.2492C77.9208 38.0282 78.2523 37.8072 78.5939 37.5795Z" fill="#151515"/>
<path d="M62.5205 54.9921C62.8554 55.9966 62.8554 55.9966 62.5205 57.0012C62.852 57.1117 63.1835 57.2222 63.5251 57.3361C63.4146 57.6676 63.3041 57.9991 63.1902 58.3407C62.6377 58.3407 62.0852 58.3407 61.5159 58.3407C61.1811 57.3361 61.1811 57.3361 61.4414 56.7252C61.8011 56.1475 62.1608 55.5698 62.5205 54.9921Z" fill="#151515"/>
<path d="M68.8828 101.203C69.2143 101.203 69.5458 101.203 69.8874 101.203C70.5571 102.207 70.5571 102.207 70.5571 103.212C69.9502 103.421 69.9502 103.421 69.2177 103.547C68.8861 103.326 68.5546 103.105 68.2131 102.877C68.5061 101.579 68.5061 101.579 68.8828 101.203Z" fill="#151515"/>
<path d="M76.5847 38.2491C76.5847 38.4702 76.5847 38.6912 76.5847 38.9189C76.3637 38.9189 76.1427 38.9189 75.915 38.9189C76.0808 39.1261 76.2465 39.3333 76.4173 39.5467C76.9196 40.2583 76.9196 40.2583 76.9196 40.928C75.6639 41.3047 75.6639 41.3047 74.9104 40.928C74.6174 40.3211 74.6174 40.3211 74.5756 39.5886C75.6546 38.2491 75.6546 38.2491 76.5847 38.2491Z" fill="#151515"/>
<path d="M57.8325 79.1019C58.164 79.2677 58.164 79.2677 58.5022 79.4368C58.5022 79.6578 58.5022 79.8788 58.5022 80.1065C58.7232 80.1065 58.9442 80.1065 59.1719 80.1065C59.1719 80.3275 59.1719 80.5485 59.1719 80.7762C58.9509 80.7762 58.7299 80.7762 58.5022 80.7762C58.5643 81.0939 58.6265 81.4116 58.6905 81.7389C58.837 82.7854 58.837 82.7854 58.5022 83.4551C58.7232 83.5656 58.9442 83.6761 59.1719 83.79C58.8404 83.9005 58.5089 84.011 58.1673 84.1248C57.8204 82.4338 57.7981 80.8184 57.8325 79.1019Z" fill="#151515"/>
<path d="M78.9287 115.602C79.1497 115.602 79.3707 115.602 79.5984 115.602C79.5984 115.823 79.5984 116.044 79.5984 116.271C79.9299 116.161 80.2614 116.05 80.603 115.936C80.7066 116.258 80.7066 116.258 80.8123 116.585C81.2377 117.393 81.2377 117.393 82.3192 117.527C82.6369 117.555 82.9546 117.582 83.2819 117.611C83.3924 117.942 83.5029 118.274 83.6167 118.615C82.4365 118.392 81.5463 117.911 80.5193 117.297C80.2206 117.121 79.9219 116.945 79.6141 116.764C79.3879 116.602 79.1618 116.439 78.9287 116.271C78.9287 116.05 78.9287 115.829 78.9287 115.602Z" fill="#151515"/>
<path d="M67.2085 49.9692C67.7695 50.065 68.3282 50.1761 68.8827 50.3041C68.9933 50.6356 69.1038 50.9671 69.2176 51.3087C69.1071 51.5297 68.9966 51.7507 68.8827 51.9784C68.3302 51.8679 67.7777 51.7574 67.2085 51.6435C67.0201 50.9947 67.0201 50.9947 66.8736 50.3041C66.9841 50.1936 67.0946 50.0831 67.2085 49.9692Z" fill="#151515"/>
<path d="M81.6075 4.42831C81.0743 5.49466 79.9797 5.61653 78.9077 5.97703C78.6856 6.05386 78.4635 6.1307 78.2347 6.20986C77.6854 6.39954 77.1351 6.58621 76.5846 6.77232C76.5846 6.44081 76.5846 6.1093 76.5846 5.76774C77.1062 5.54085 77.6299 5.3185 78.1542 5.09802C78.4456 4.97371 78.737 4.84939 79.0372 4.72131C79.9523 4.42204 80.6521 4.37322 81.6075 4.42831Z" fill="#151515"/>
<path d="M77.9241 54.9921C79.1499 54.8806 79.7306 54.8375 80.7285 55.599C81.2727 56.3315 81.2727 56.3315 81.2727 57.3361C80.1565 56.778 79.0403 56.2199 77.9241 55.6618C77.9241 55.4408 77.9241 55.2198 77.9241 54.9921Z" fill="#FFB7C5"/>
<path d="M85.9609 36.9098C87.2253 37.0854 88.045 37.354 88.9746 38.2492C88.9746 38.5807 88.9746 38.9122 88.9746 39.2538C87.8584 38.6957 86.7422 38.1376 85.626 37.5795C85.7365 37.3585 85.847 37.1375 85.9609 36.9098Z" fill="#FFB7C5"/>
<path d="M68.883 53.9875C69.6574 54.5107 69.6574 54.5107 70.2225 54.9921C70.112 55.3236 70.0015 55.6551 69.8876 55.9967C69.5837 55.7687 69.2798 55.5408 68.9667 55.306C67.974 54.5669 67.974 54.5669 67.0832 54.7409C66.8138 54.8653 66.8138 54.8653 66.539 54.9921C66.4285 54.6606 66.318 54.3291 66.2042 53.9875C67.3331 53.6112 67.7596 53.6587 68.883 53.9875Z" fill="#151515"/>
<path d="M70.8922 72.7397C71.1133 72.7397 71.3343 72.7397 71.562 72.7397C71.1763 73.5662 70.8762 74.0952 70.2225 74.7489C69.3223 74.8393 68.4507 74.7782 67.5437 74.7489C67.4332 74.4174 67.3227 74.0859 67.2088 73.7443C67.5127 73.8134 67.8166 73.8825 68.1297 73.9536C69.2583 74.0838 69.6471 74.05 70.5574 73.4095C70.6679 73.1885 70.7784 72.9675 70.8922 72.7397Z" fill="#FFB7C5"/>
<path d="M62.8555 69.0562C63.1456 69.1494 63.1456 69.1494 63.4415 69.2445C64.2642 69.4045 64.7454 69.3097 65.5344 69.0562C65.5344 69.7192 65.5344 70.3822 65.5344 71.0653C65.2028 70.9548 64.8713 70.8443 64.5298 70.7304C64.5298 70.5094 64.5298 70.2884 64.5298 70.0607C63.8668 70.1712 63.2037 70.2817 62.5206 70.3956C62.6311 69.9536 62.7416 69.5116 62.8555 69.0562Z" fill="#151515"/>
<path d="M74.9104 59.6802C75.7266 59.9104 75.7266 59.9104 76.5847 60.3499C76.8568 61.2289 76.8568 61.2289 76.9196 62.0242C75.3535 61.5296 75.3535 61.5296 74.8058 60.6429C74.7298 60.4357 74.6538 60.2285 74.5756 60.015C74.6861 59.9045 74.7966 59.794 74.9104 59.6802Z" fill="#262122"/>
<path d="M64.1949 51.6436C65.3552 52.1408 65.3552 52.1408 66.5389 52.6481C66.4284 52.9796 66.3179 53.3112 66.204 53.6527C65.6515 53.5422 65.099 53.4317 64.5297 53.3178C64.4192 52.7653 64.3087 52.2128 64.1949 51.6436Z" fill="#151515"/>
<path d="M128.153 3.42383C131.688 3.62291 131.688 3.62291 133.176 4.76326C131.907 5.24349 131.145 4.93407 129.911 4.44933C129.416 4.25833 129.416 4.25833 128.912 4.06346C128.661 3.96289 128.411 3.86231 128.153 3.75869C128.153 3.64818 128.153 3.53768 128.153 3.42383Z" fill="#151515"/>
<path d="M62.8555 71.4001C63.8317 71.7598 64.4555 71.9956 65.1995 72.7396C65.1995 73.0711 65.1995 73.4026 65.1995 73.7442C64.3065 73.2977 63.4136 72.8512 62.5206 72.4047C62.6311 72.0732 62.7416 71.7417 62.8555 71.4001Z" fill="#FFB7C5"/>
<path d="M166.662 122.634C168.031 123.399 169.161 124.293 170.345 125.312C170.014 125.478 170.014 125.478 169.675 125.647C169.454 125.537 169.233 125.426 169.006 125.312C169.006 125.091 169.006 124.87 169.006 124.643C168.122 124.169 167.308 123.848 166.327 123.638C166.437 123.307 166.548 122.975 166.662 122.634Z" fill="#151515"/>
<path d="M72.5663 8.4466C69.9831 10.4558 69.9831 10.4558 68.8829 10.4558C69.2539 9.34279 69.3799 9.24503 70.3479 8.69775C70.5508 8.57861 70.7536 8.45947 70.9627 8.33673C71.5617 8.11174 71.5617 8.11174 72.5663 8.4466Z" fill="#151515"/>
<path d="M176.707 124.643C176.929 124.643 177.15 124.643 177.377 124.643C177.267 124.974 177.156 125.306 177.042 125.647C176.301 125.965 176.301 125.965 175.389 126.212C175.089 126.297 174.789 126.381 174.48 126.467C173.694 126.652 173.694 126.652 173.024 126.652C173.024 126.431 173.024 126.21 173.024 125.982C173.262 125.914 173.5 125.845 173.745 125.774C174.053 125.684 174.36 125.594 174.677 125.501C175.138 125.367 175.138 125.367 175.607 125.23C176.353 125.048 176.353 125.048 176.707 124.643Z" fill="#151515"/>
<path d="M70.2224 49.9692C71.0511 50.135 71.0511 50.135 71.8966 50.3041C72.0071 50.6356 72.1177 50.9671 72.2315 51.3087C71.679 51.4192 71.1265 51.5297 70.5572 51.6435C70.4467 51.091 70.3362 50.5385 70.2224 49.9692Z" fill="#151515"/>
<path d="M181.061 94.1707C181.171 94.1707 181.282 94.1707 181.396 94.1707C181.506 95.1652 181.617 96.1597 181.73 97.1844C181.399 97.1844 181.067 97.1844 180.726 97.1844C180.615 97.4054 180.505 97.6264 180.391 97.8541C180.311 96.4855 180.584 95.4509 181.061 94.1707Z" fill="#151515"/>
<path d="M77.9242 69.391C78.3662 69.612 78.8082 69.833 79.2636 70.0607C79.2636 70.2817 79.2636 70.5027 79.2636 70.7304C79.5951 70.7304 79.9266 70.7304 80.2682 70.7304C80.1577 71.1724 80.0472 71.6145 79.9333 72.0699C79.733 71.8074 79.5327 71.545 79.3264 71.2746C78.6237 70.3468 78.6237 70.3468 77.5893 69.7259C77.6998 69.6153 77.8103 69.5048 77.9242 69.391Z" fill="#151515"/>
<path d="M73.9057 80.1064C74.1267 80.1064 74.3477 80.1064 74.5754 80.1064C75.1196 80.9436 75.1196 80.9436 75.58 81.7807C75.1335 82.2272 74.687 82.6737 74.2406 83.1202C74.1301 82.1256 74.0196 81.1311 73.9057 80.1064Z" fill="#151515"/>
<path d="M93.6624 33.2263C94.4912 33.5578 94.4912 33.5578 95.3367 33.896C95.0052 34.0618 95.0052 34.0618 94.667 34.2309C94.667 34.4519 94.667 34.6729 94.667 34.9006C94.225 34.7901 93.783 34.6796 93.3276 34.5658C93.4381 34.1237 93.5486 33.6817 93.6624 33.2263Z" fill="#E5A5B1"/>
<path d="M179.386 121.964C179.497 122.295 179.607 122.627 179.721 122.968C179.169 123.521 178.616 124.073 178.047 124.643C177.826 124.532 177.605 124.422 177.377 124.308C178.04 123.534 178.703 122.761 179.386 121.964Z" fill="#151515"/>
<path d="M66.8736 104.216C67.8759 104.584 68.1615 104.778 68.6316 105.765C68.7145 106.028 68.7974 106.29 68.8827 106.56C67.7404 106.18 67.5036 105.876 66.8736 104.886C66.8736 104.665 66.8736 104.444 66.8736 104.216Z" fill="#151515"/>
</svg>
