<?xml version="1.0" encoding="UTF-8"?>
<svg version="1.1" xmlns="http://www.w3.org/2000/svg" width="1000" height="1000">
<path d="M0 0 C3.64142571 0.22382286 4.8770264 0.52140634 7.3046875 3.203125 C8.359375 5.83984375 8.359375 5.83984375 9.1796875 8.890625 C10.98874974 14.73151201 13.36123767 18.60395141 17.3046875 23.203125 C26.32443532 34.20607319 34.33933651 45.21971403 40.3046875 58.203125 C40.6346875 58.203125 40.9646875 58.203125 41.3046875 58.203125 C41.79771425 40.97457897 38.02822235 29.22658135 28.9296875 14.765625 C26.48410748 10.779264 25.20855184 7.91377224 25.3046875 3.203125 C26.2421875 1.265625 26.2421875 1.265625 28.3046875 0.203125 C35.57278945 -0.52368519 40.21189609 1.14126406 46.3046875 5.203125 C47.26375 4.1821875 47.26375 4.1821875 48.2421875 3.140625 C52.61558232 0.37378338 55.38187567 1.30145784 60.3046875 2.203125 C61.31144531 2.34234375 62.31820312 2.4815625 63.35546875 2.625 C75.39369861 4.29737684 85.80063575 7.11801448 96.6640625 12.484375 C99.07817446 13.66292295 101.38614903 14.59701939 103.9296875 15.5234375 C110.01246234 17.74525414 115.75923251 20.70627007 121.5546875 23.578125 C123.31039062 24.42503906 123.31039062 24.42503906 125.1015625 25.2890625 C126.225625 25.8459375 127.3496875 26.4028125 128.5078125 26.9765625 C129.52520508 27.47591309 130.54259766 27.97526367 131.59082031 28.48974609 C134.60189349 30.39076369 136.31951466 32.2615258 138.3046875 35.203125 C138.80078125 37.9921875 138.80078125 37.9921875 138.7421875 40.828125 C138.74025391 42.23964844 138.74025391 42.23964844 138.73828125 43.6796875 C138.24240517 46.56559693 137.66525217 47.51458712 135.3046875 49.203125 C127.84762764 49.38500451 121.20142761 44.05602587 115.9921875 39.20703125 C112.98606085 36.29366458 110.05547217 33.36038301 107.3046875 30.203125 C107.3046875 29.543125 107.3046875 28.883125 107.3046875 28.203125 C106.48484375 27.83380859 106.48484375 27.83380859 105.6484375 27.45703125 C101.78908167 25.39227588 98.43972704 22.6230108 94.9609375 19.98046875 C91.05845202 17.36924685 88.17631978 17.07265982 83.5546875 17.140625 C82.35585938 17.15416016 82.35585938 17.15416016 81.1328125 17.16796875 C80.52953125 17.17957031 79.92625 17.19117188 79.3046875 17.203125 C78.1469369 20.67637681 78.23602098 23.56379948 78.3046875 27.203125 C79.5628125 26.97625 80.8209375 26.749375 82.1171875 26.515625 C89.19552012 25.7440532 95.53683042 27.41215865 101.4921875 31.265625 C104.15569442 35.58234311 104.13687878 39.26391567 103.3046875 44.203125 C101.98668921 47.96783288 100.0282011 50.57738351 96.9921875 53.203125 C93.21708173 54.60781552 91.17301165 54.33694415 87.3046875 53.203125 C84.75795723 51.40601709 82.51334027 49.39835131 80.3046875 47.203125 C77.59301917 49.91479333 77.5785016 51.36972754 77.3046875 55.203125 C77.80347942 58.57878749 78.51130685 61.88535138 79.3046875 65.203125 C80.24828125 65.10773438 81.191875 65.01234375 82.1640625 64.9140625 C97.2705401 63.60968793 107.03879912 66.0368482 120.10546875 73.79296875 C127.8864618 78.3743508 136.13505744 81.80114435 145.3046875 81.203125 C146.820625 80.8009375 146.820625 80.8009375 148.3671875 80.390625 C151.3046875 80.203125 151.3046875 80.203125 153.9296875 82.265625 C156.3046875 85.203125 156.3046875 85.203125 158.3046875 88.453125 C160.03578012 91.36402125 160.03578012 91.36402125 162.8046875 92.140625 C165.58730478 92.32138733 165.58730478 92.32138733 169.3046875 91.203125 C169.3046875 87.243125 169.3046875 83.283125 169.3046875 79.203125 C166.55125 78.6153125 166.55125 78.6153125 163.7421875 78.015625 C157.21730588 76.37671016 152.78285905 74.38934557 148.5546875 68.953125 C145.1959196 61.56383561 142.27091557 54.02710827 145.078125 45.98828125 C151.23903419 33.55722689 163.43679265 24.830963 176.3046875 20.203125 C177.6246875 20.203125 178.9446875 20.203125 180.3046875 20.203125 C182.89931602 26.05712158 184.68815508 33.31902354 182.47265625 39.5390625 C181.3671875 41.453125 181.3671875 41.453125 179.3046875 44.203125 C178.3146875 44.203125 177.3246875 44.203125 176.3046875 44.203125 C175.09375 42.70703125 175.09375 42.70703125 173.9296875 40.765625 C171.91347903 37.68661583 171.91347903 37.68661583 168.4921875 36.265625 C167.409375 36.2346875 167.409375 36.2346875 166.3046875 36.203125 C163.59885962 40.03638117 162.97855132 42.52850649 163.3046875 47.203125 C163.93375 47.51765625 164.5628125 47.8321875 165.2109375 48.15625 C166.99636336 49.04896293 168.77875655 49.94775864 170.55859375 50.8515625 C172.23144706 51.6749014 173.92388825 52.46155603 175.64453125 53.1796875 C179.26434666 54.73007399 181.01056435 55.78032298 183.3046875 59.078125 C185.85885122 66.70765922 185.66292933 77.7970024 182.3046875 85.203125 C178.21344871 92.6184953 173.50209545 96.93257426 166.3046875 101.203125 C165.716875 101.73550781 165.1290625 102.26789063 164.5234375 102.81640625 C161.33222675 104.81091297 158.15326778 104.81114405 154.4921875 104.953125 C153.46254883 105.01693359 153.46254883 105.01693359 152.41210938 105.08203125 C147.90742257 105.31216662 143.77875228 104.85430632 139.3046875 104.203125 C138.3146875 104.698125 138.3146875 104.698125 137.3046875 105.203125 C132.05311336 105.61501317 127.77720809 105.0400963 123.3046875 102.203125 C121.57502033 100.61938508 119.98976915 98.94207787 118.38671875 97.23046875 C114.94253394 93.87675033 111.02692653 91.16710865 107.1484375 88.33984375 C104.87737421 86.63342669 102.85366028 84.90667993 100.8046875 82.953125 C96.41814782 79.10547226 90.91119085 76.68785118 85.3046875 75.203125 C77.05488533 75.97720669 68.82540556 78.89349302 61.08203125 81.75 C59.3046875 82.203125 59.3046875 82.203125 57.3046875 81.203125 C57.80490064 77.47114264 58.36643911 73.77673584 59.09375 70.08203125 C59.23039063 69.37369141 59.36703125 68.66535156 59.5078125 67.93554688 C59.78861985 66.49120907 60.07766605 65.04844824 60.375 63.60742188 C61.3463738 58.4656788 61.18294067 54.36870875 60.3046875 49.203125 C60.12550781 48.10613281 59.94632813 47.00914062 59.76171875 45.87890625 C58.28105875 38.15255316 56.42046795 30.59081056 54.3046875 23.015625 C54.05565674 22.10659424 53.80662598 21.19756348 53.55004883 20.26098633 C53.30407959 19.4027124 53.05811035 18.54443848 52.8046875 17.66015625 C52.588125 16.89678955 52.3715625 16.13342285 52.1484375 15.34692383 C51.1831539 12.8943326 50.05976477 11.16763934 48.3046875 9.203125 C47.3146875 8.873125 46.3246875 8.543125 45.3046875 8.203125 C42.18721106 15.35498272 43.90185653 22.05352604 45.81616211 29.32910156 C47.82132499 37.05835147 48.70789484 44.46643535 48.7421875 52.453125 C48.7568103 53.77425293 48.7568103 53.77425293 48.77172852 55.12207031 C48.70336068 60.30205693 47.91730829 63.6226433 45.3046875 68.203125 C44.795324 70.43750653 44.795324 70.43750653 44.5546875 72.578125 C43.42962115 78.14720342 40.29490566 81.33891373 36.3046875 85.203125 C35.80582031 85.73421875 35.30695312 86.2653125 34.79296875 86.8125 C32.00981027 89.52703266 29.84971091 90.52438104 26.0546875 90.640625 C22.3046875 90.203125 22.3046875 90.203125 20.3046875 88.203125 C20.46875 85.83984375 20.46875 85.83984375 20.9296875 82.890625 C22.15951503 70.50344648 16.23637971 58.15151924 8.6171875 48.578125 C5.97527649 45.66578216 2.99667679 43.28171643 -0.0703125 40.828125 C-7.98582577 34.44223118 -13.61319603 27.78701856 -18.6953125 19.015625 C-19.09379395 18.33814209 -19.49227539 17.66065918 -19.90283203 16.96264648 C-22.11076745 12.98631383 -23.64185798 9.85040039 -22.6953125 5.203125 C-20.05031134 2.22874634 -18.30766525 1.31604111 -14.390625 0.59375 C-12.62332031 0.52414062 -12.62332031 0.52414062 -10.8203125 0.453125 C-9.64726562 0.39640625 -8.47421875 0.3396875 -7.265625 0.28125 C-4.8425162 0.22822793 -2.42003551 0.13302521 0 0 Z " fill="#1742B0" transform="translate(489.6953125,435.796875)"/>
<path d="M0 0 C1.32 0 2.64 0 4 0 C4.25168945 0.78648926 4.50337891 1.57297852 4.76269531 2.38330078 C5.70954133 5.32668141 6.66473375 8.26718733 7.62548828 11.20605469 C8.23979217 13.09363428 8.8445885 14.98429954 9.44921875 16.875 C9.84238281 18.07382812 10.23554688 19.27265625 10.640625 20.5078125 C10.99672852 21.60754395 11.35283203 22.70727539 11.71972656 23.84033203 C13.10072042 27.24857431 14.90429233 29.98902408 17 33 C17.63426753 34.60580431 18.2218407 36.23123891 18.75 37.875 C20.200449 41.67890128 21.69975817 43.99299466 24.6875 46.75 C28.41044536 50.18602664 31.18051449 53.84521618 33.9375 58.0625 C34.32703857 58.64032227 34.71657715 59.21814453 35.11791992 59.81347656 C37.6805776 63.83570268 38.72122527 67.24896682 39 72 C38 73 38 73 35.69921875 73.01953125 C28.96542096 72.55663724 23.35353939 71.22668941 17.03125 68.9140625 C12.89344221 67.66632149 8.89604049 67.42378636 4.59375 67.2734375 C1.89256942 66.98867449 0.2480368 66.5124092 -2 65 C-2.99879897 61.61944964 -3.05065674 59.28705486 -2.4375 55.8125 C-1.6444908 52.80093007 -1.6444908 52.80093007 -4 50 C-7.3666837 50.30606215 -9.56154387 50.7000037 -12.375 52.625 C-14.63225161 55.92406005 -14.33416201 58.05688828 -14 62 C-13.773125 63.155 -13.54625 64.31 -13.3125 65.5 C-12.83290861 70.87142357 -14.86336513 74.31464485 -17.8125 78.6875 C-20 81 -20 81 -22.875 82.8125 C-25.83186969 84.88230879 -26.89296957 86.14864217 -28.8125 89.0625 C-32.02157039 93.6578888 -35.65073423 94.8588233 -41 96 C-44.39356029 93.42557495 -45.42469031 91.04886907 -46.5 87.0625 C-47.6262219 82.91873789 -48.78783516 80.01140453 -52 77 C-52.99 77 -53.98 77 -55 77 C-54.68872484 78.58357459 -54.37592711 80.16684993 -54.0625 81.75 C-53.88847656 82.63171875 -53.71445312 83.5134375 -53.53515625 84.421875 C-53.05943052 86.94693312 -53.05943052 86.94693312 -52.3125 89.125 C-52 91 -52 91 -53.9375 94.25 C-54.618125 95.1575 -55.29875 96.065 -56 97 C-62.47685262 96.47798501 -68.0983352 95.31343489 -74.1875 93.0625 C-75.00613525 92.76037598 -75.82477051 92.45825195 -76.66821289 92.14697266 C-86.13950152 88.44342634 -96.30998204 82.69902495 -102 74 C-101 71 -101 71 -98.5 69.5625 C-95.89359081 68.29553634 -95.89359081 68.29553634 -95.37011719 66.20385742 C-92.35700387 48.26231789 -92.4643889 27.99599398 -103.3125 12.75 C-105 10 -105 10 -105.125 7.75 C-104 6 -104 6 -101.359375 4.69921875 C-96.89211514 3.76940536 -95.0954401 4.90926578 -91.125 7.0625 C-90.50713623 7.39032471 -89.88927246 7.71814941 -89.25268555 8.0559082 C-86.01315106 9.79719523 -82.88307882 11.66587668 -79.8125 13.6875 C-76.05573924 16.14138415 -72.11417784 17.50116159 -67.89453125 18.9765625 C-64.85878946 20.04992869 -61.85733213 21.16040559 -58.875 22.375 C-57.96492188 22.73335938 -57.05484375 23.09171875 -56.1171875 23.4609375 C-54 25 -54 25 -53.10546875 27.734375 C-52.98753381 31.38599026 -53.53535972 34.33861009 -54.4375 37.875 C-54.72496094 39.02742188 -55.01242187 40.17984375 -55.30859375 41.3671875 C-55.53675781 42.23601562 -55.76492188 43.10484375 -56 44 C-52.84967368 42.92602512 -50.60181937 41.92241474 -48.74609375 39.078125 C-46.98430388 35.30750462 -45.88227981 32.03841853 -45.6875 27.875 C-44.75618813 22.62578764 -42.15046382 20.17944433 -38 17 C-34.52526017 14.9646996 -32.02845862 14.81688824 -28 15 C-27.1875 17.1875 -27.1875 17.1875 -27 20 C-29.3125 22.6875 -29.3125 22.6875 -32 25 C-34.49917763 27.49917763 -35.00868864 29.79955797 -36.0234375 33.125 C-37 35 -37 35 -39.01953125 35.984375 C-41.16672234 36.82311759 -41.16672234 36.82311759 -41.86328125 38.953125 C-42.01152344 39.71109375 -42.15976562 40.4690625 -42.3125 41.25 C-42.55419922 42.37148438 -42.55419922 42.37148438 -42.80078125 43.515625 C-43.15523714 47.9358985 -42.6981108 50.97380709 -40.1796875 54.67578125 C-39.41914063 55.54589844 -38.65859375 56.41601562 -37.875 57.3125 C-34.20901541 61.58752995 -30.709927 65.92738816 -27.3125 70.41796875 C-26.6628125 71.20107422 -26.6628125 71.20107422 -26 72 C-25.67 72 -25.34 72 -25 72 C-24.89453857 71.45698242 -24.78907715 70.91396484 -24.68041992 70.35449219 C-20.99214653 51.4388329 -20.99214653 51.4388329 -18.63671875 42.515625 C-18.05173588 40.20440432 -17.61336797 37.90688212 -17.1875 35.5625 C-16.09024545 30.39508756 -13.6679097 25.87426025 -11.37109375 21.1484375 C-10.15946269 18.36617359 -9.51406984 16.09825761 -9.0625 13.125 C-8.27902036 8.59915482 -5.93747133 6.3816016 -2.55859375 3.41015625 C-0.88030826 2.06329002 -0.88030826 2.06329002 0 0 Z " fill="#1742B0" transform="translate(444,445)"/>
<path d="M0 0 C0.375 2.25 0.375 2.25 0 5 C-1.97133986 6.37535339 -3.97681922 7.70211044 -6 9 C-7.26121366 10.69646604 -7.26121366 10.69646604 -8.375 12.5625 C-11.05678758 16.62000978 -14.33232556 17.97467403 -19 19 C-19.99 19 -20.98 19 -22 19 C-21.59145316 13.71972479 -20.0929289 11.45730813 -16.3125 7.8125 C-15.46300781 6.97332031 -14.61351562 6.13414062 -13.73828125 5.26953125 C-9.42849779 1.69751386 -5.68060636 -0.50122997 0 0 Z " fill="#1742B0" transform="translate(462,423)"/>
</svg>
