<?xml version="1.0" encoding="UTF-8"?>
<svg id="Vrstva_1" data-name="Vrstva 1" xmlns="http://www.w3.org/2000/svg" viewBox="0 0 233.82 91.52">
  <defs>
    <style>
      .cls-1 {
        fill: #284a9a;
      }
    </style>
  </defs>
  <path class="cls-1" d="m101.33,16.11c2.61.16,3.49.37,5.23,2.29q.76,1.89,1.34,4.07c1.3,4.18,2.99,6.95,5.82,10.25,6.46,7.88,12.2,15.76,16.47,25.06h.72c.35-12.34-2.35-20.75-8.86-31.1-1.75-2.85-2.66-4.91-2.6-8.28q.67-1.39,2.15-2.15c5.2-.52,8.53.67,12.89,3.58q.69-.73,1.39-1.48c3.13-1.98,5.11-1.32,8.64-.67.72.1,1.44.2,2.18.3,8.62,1.2,16.07,3.22,23.85,7.06,1.73.84,3.38,1.51,5.2,2.18,4.36,1.59,8.47,3.71,12.62,5.77q1.26.61,2.54,1.23c.81.4,1.61.8,2.44,1.21.73.36,1.46.72,2.21,1.08,2.16,1.36,3.38,2.7,4.81,4.81q.35,2,.31,4.03,0,1.01,0,2.04c-.36,2.07-.77,2.75-2.46,3.95-5.34.13-10.1-3.69-13.83-7.16-2.15-2.09-4.25-4.19-6.22-6.45v-1.43q-.59-.26-1.19-.53c-2.76-1.48-5.16-3.46-7.65-5.35-2.79-1.87-4.86-2.08-8.17-2.03q-.86,0-1.73.02c-.43,0-.86.02-1.31.03-.83,2.49-.77,4.55-.72,7.16.9-.16,1.8-.32,2.73-.49,5.07-.55,9.61.64,13.87,3.4,1.91,3.09,1.89,5.73,1.3,9.26-.94,2.7-2.35,4.56-4.52,6.44-2.7,1.01-4.17.81-6.94,0-1.82-1.29-3.43-2.72-5.01-4.3-1.94,1.94-1.95,2.98-2.15,5.73.36,2.42.86,4.78,1.43,7.16.68-.07,1.35-.14,2.05-.21,10.82-.93,17.81.8,27.17,6.36,5.57,3.28,11.48,5.73,18.04,5.31q1.08-.29,2.19-.58,2.1-.13,3.98,1.34,1.7,2.1,3.13,4.43,1.24,2.08,3.22,2.64,1.99.13,4.65-.67v-8.59q-1.97-.42-3.98-.85c-4.67-1.17-7.85-2.6-10.87-6.49-2.4-5.29-4.5-10.69-2.49-16.44,4.41-8.9,13.14-15.15,22.36-18.46h2.86c1.86,4.19,3.14,9.39,1.55,13.84q-.79,1.37-2.27,3.34h-2.15q-.87-1.07-1.7-2.46-1.44-2.2-3.89-3.22-.77-.02-1.57-.04c-1.94,2.74-2.38,4.53-2.15,7.88.45.23.9.45,1.36.68,1.28.64,2.55,1.28,3.83,1.93,1.2.59,2.41,1.15,3.64,1.67,2.59,1.11,3.84,1.86,5.49,4.22,1.83,5.46,1.69,13.4-.72,18.71-2.93,5.31-6.3,8.4-11.46,11.46-.42.38-.84.76-1.28,1.16-2.29,1.43-4.56,1.43-7.18,1.53q-.74.05-1.49.09c-3.23.16-6.18-.16-9.39-.63q-.71.35-1.43.72c-3.76.29-6.82-.12-10.02-2.15-1.24-1.13-2.37-2.33-3.52-3.56-2.47-2.4-5.27-4.34-8.05-6.37-1.63-1.22-3.08-2.46-4.54-3.86-3.14-2.76-7.08-4.49-11.1-5.55-5.91.55-11.8,2.64-17.34,4.69q-1.27.32-2.7-.39c.36-2.67.76-5.32,1.28-7.96.1-.51.2-1.01.3-1.54.2-1.03.41-2.07.62-3.1.7-3.68.58-6.61-.05-10.31-.13-.79-.26-1.57-.39-2.38-1.06-5.53-2.39-10.95-3.91-16.37-.18-.65-.36-1.3-.54-1.97-.18-.61-.35-1.23-.53-1.86-.16-.55-.31-1.09-.47-1.66-.69-1.76-1.5-2.99-2.75-4.4-.71-.24-1.42-.47-2.15-.72-2.23,5.12-1,9.92.37,15.13,1.44,5.53,2.07,10.84,2.1,16.56q.01.95.02,1.91c-.05,3.71-.61,6.09-2.48,9.37q-.36,1.6-.54,3.13c-.81,3.99-3.05,6.27-5.91,9.04-.36.38-.71.76-1.08,1.15-1.99,1.94-3.54,2.66-6.26,2.74q-2.68-.31-4.12-1.75.12-1.69.45-3.8c.88-8.87-3.36-17.71-8.82-24.57-1.89-2.09-4.02-3.79-6.22-5.55-5.67-4.57-9.7-9.34-13.34-15.62-.29-.49-.57-.97-.86-1.47-1.58-2.85-2.68-5.09-2-8.42,1.89-2.13,3.14-2.78,5.95-3.3q1.27-.05,2.56-.1c.84-.04,1.68-.08,2.55-.12,1.73-.04,3.47-.11,5.2-.2Z"/>
  <path class="cls-1" d="m92.65.05q.27,1.61,0,3.58c-1.41.98-2.85,1.93-4.3,2.86q-.9,1.21-1.7,2.55c-1.92,2.91-4.27,3.88-7.61,4.61h-2.15c.29-3.78,1.37-5.4,4.07-8.01.61-.6,1.22-1.2,1.84-1.82,3.09-2.56,5.77-4.13,9.84-3.77Z"/>
  <path class="cls-1" d="m75.27,22.07h2.86c.18.56.36,1.13.55,1.71.68,2.11,1.36,4.21,2.05,6.32.44,1.35.87,2.71,1.31,4.06.28.86.56,1.72.85,2.6.25.79.51,1.57.77,2.39.99,2.44,2.28,4.4,3.78,6.56.45,1.15.87,2.31,1.25,3.49,1.04,2.72,2.11,4.38,4.25,6.35,2.67,2.46,4.65,5.08,6.62,8.1.28.41.56.83.84,1.25,1.84,2.88,2.58,5.32,2.78,8.73q-.72.72-2.36.73c-4.82-.33-8.84-1.28-13.37-2.94-2.96-.89-5.82-1.07-8.91-1.17-1.93-.2-3.11-.54-4.72-1.63-.72-2.42-.75-4.09-.31-6.58q.57-2.16-1.12-4.16c-2.41.22-3.98.5-6,1.88-1.62,2.36-1.4,3.89-1.16,6.71.16.83.32,1.65.49,2.51.34,3.85-1.11,6.31-3.22,9.44q-1.57,1.66-3.62,2.95c-2.12,1.48-2.88,2.39-4.25,4.48-2.3,3.29-4.9,4.15-8.73,4.97-2.43-1.84-3.17-3.55-3.94-6.4-.81-2.97-1.64-5.05-3.94-7.2h-2.15c.22,1.13.45,2.27.67,3.4.12.63.25,1.26.38,1.91q.34,1.81.88,3.37.22,1.34-1.16,3.67c-.49.65-.97,1.3-1.48,1.97-4.64-.37-8.66-1.21-13.02-2.82-.59-.22-1.17-.43-1.78-.66-6.78-2.65-14.06-6.76-18.14-12.99q.72-2.15,2.51-3.18t2.24-2.4c2.16-12.85,2.08-27.36-5.69-38.27q-1.21-1.97-1.3-3.58.81-1.25,2.7-2.18c3.2-.67,4.48.15,7.33,1.69.44.23.88.47,1.34.71,2.32,1.25,4.56,2.58,6.76,4.03,2.69,1.76,5.51,2.73,8.53,3.79,2.17.77,4.32,1.56,6.46,2.43.65.26,1.3.51,1.97.78q1.52,1.1,2.16,3.06c.08,2.61-.31,4.73-.95,7.26-.21.83-.41,1.65-.62,2.5-.16.62-.33,1.24-.49,1.89,2.26-.77,3.87-1.49,5.19-3.52,1.26-2.7,2.05-5.04,2.19-8.02.67-3.76,2.53-5.51,5.5-7.79,2.49-1.46,4.28-1.56,7.16-1.43q.58,1.57.72,3.58-1.66,1.92-3.58,3.58c-1.79,1.79-2.15,3.44-2.88,5.82q-.7,1.34-2.15,2.05-1.54.6-2.04,2.13c-.11.54-.21,1.09-.32,1.64q-.17.8-.35,1.62c-.25,3.16.07,5.34,1.88,7.99.54.62,1.09,1.25,1.65,1.89,2.62,3.06,5.13,6.17,7.56,9.38q.47.56.94,1.13h.72c.08-.39.15-.78.23-1.18q2.64-13.54,4.33-19.93c.42-1.65.73-3.3,1.04-4.98.79-3.7,2.52-6.94,4.16-10.32.87-1.99,1.33-3.62,1.65-5.74.56-3.24,2.24-4.83,4.66-6.96q1.2-.96,1.83-2.44Z"/>
</svg>