<svg width="123" height="104" viewBox="0 0 123 104" fill="none" xmlns="http://www.w3.org/2000/svg">
<path d="M89.0501 50.7173L90.0588 77.0891V88.4736V94.0939L91.9322 102.884H89.0501C86.6002 101.78 80.5477 98.4747 75.9362 94.0939C73.8707 91.596 68.9038 84.698 65.5604 77.0891C64.8879 74.1589 63.2547 66.598 62.1019 59.7961V39.3328C63.2547 34.7213 66.9439 22.9621 72.4776 12.8169C75.0716 9.83863 82.0176 3.30573 89.0501 1V14.2579V29.5334V50.7173Z" fill="#1742B0"/>
<path d="M91.9322 14.2579V1C94.4781 1 100.579 1.48997 104.614 3.44984C106.199 4.84288 110.263 8.66655 113.837 12.8169C114.701 14.4501 116.949 19.2729 119.025 25.4984C119.745 28.1884 121.474 34.9807 122.627 40.6297V56.914C122.627 60.5647 122.108 69.7108 120.033 77.0891L117.439 84.1504C115.614 87.4649 110.493 94.9873 104.614 98.5612L99.57 101.443C98.4171 101.924 95.852 102.366 94.8144 100.291V94.0939L93.5174 85.7356V77.0891V59.7961C92.989 56.7699 91.9322 48.6998 91.9322 40.6297V26.2189V14.2579Z" fill="#1742B0"/>
<path d="M26.363 45.0971C27.6312 36.5659 29.6775 27.612 30.5422 24.2014C31.9256 19.3594 34.8654 13.3453 36.1624 10.9435C39.1598 7.13901 42.6953 4.36252 44.0883 3.44984C46.8552 2.64283 49.2762 2.24894 50.1409 2.15287L51.4379 12.8169V23.1927V35.586V50.7173V64.4076V78.3861V86.8885V96.8319C51.4379 100.521 51.4379 102.308 49.9968 102.308L44.0883 98.5612C38.6699 92.7969 33.7606 85.0151 31.9833 81.8447C29.5622 74.0052 27.2277 63.8792 26.363 59.7961C25.3255 65.0993 23.8171 74.3991 23.1927 78.3861C21.3481 82.9975 18.0048 90.7794 16.5637 94.0939C13.3357 97.6677 9.35827 101.443 6.62022 102.164C3.62657 103.929 2.59549 102.506 2.2856 101.486C2.29265 101.674 2.29697 101.898 2.29697 102.164L1 90.2029V67.7221V57.9227V47.2587C1.09607 49.7086 1.25939 52.9654 1.14411 46.3941C1.02882 39.8227 1.86465 31.1186 1.86465 28.957C1.28822 22.6162 1.57643 15.9392 1.14411 12.8169V5.61146V2.15287C2.27456 1.70068 4.64651 2.75603 6.4513 3.92764C8.46687 4.42812 13.2849 7.55619 15.4108 11.8081C18.293 17.5724 20.4546 22.4721 21.1751 24.2014L23.4809 30.3981C24.6337 34.5484 25.8827 41.9267 26.363 45.0971Z" fill="#1742B0"/>
<path d="M90.0588 77.0891L89.0501 50.7173V29.5334V14.2579V1C82.0176 3.30573 75.0716 9.83863 72.4776 12.8169C66.9439 22.9621 63.2547 34.7213 62.1019 39.3328C62.1019 47.4028 62.1019 56.3375 62.1019 59.7961C63.2547 66.598 64.8879 74.1589 65.5604 77.0891C68.9038 84.698 73.8707 91.596 75.9362 94.0939C80.5477 98.4748 86.6002 101.78 89.0501 102.884C89.8571 102.884 91.3078 102.884 91.9322 102.884L90.0588 94.0939V88.4736V77.0891ZM91.9322 1V14.2579V26.2189V40.6297C91.9322 48.6998 92.989 56.7699 93.5174 59.7961C93.5174 66.0216 93.5174 73.9187 93.5174 77.0891V85.7356L94.8144 94.0939V100.291C95.852 102.366 98.4171 101.924 99.57 101.443L104.614 98.5612C110.493 94.9873 115.614 87.4649 117.439 84.1504L120.033 77.0891C122.108 69.7108 122.627 60.5647 122.627 56.914C122.627 48.1522 122.627 42.4071 122.627 40.6297C121.474 34.9807 119.745 28.1884 119.025 25.4984C116.949 19.2729 114.701 14.4501 113.837 12.8169C110.263 8.66655 106.199 4.84288 104.614 3.44984C100.579 1.48997 94.4782 1 91.9322 1ZM26.363 45.0971C27.6312 36.5659 29.6775 27.612 30.5422 24.2014C31.9256 19.3594 34.8654 13.3453 36.1624 10.9435C39.1598 7.13901 42.6953 4.36252 44.0883 3.44984C46.8552 2.64283 49.2762 2.24894 50.1409 2.15287L51.4379 12.8169V23.1927V35.586V50.7173C51.4379 55.6746 51.4379 61.9097 51.4379 64.4076C51.4379 68.6732 51.4379 75.5039 51.4379 78.3861V86.8885V96.8319C51.4379 100.521 51.4379 102.308 49.9968 102.308L44.0883 98.5612C38.6699 92.7969 33.7606 85.015 31.9833 81.8447C29.5622 74.0052 27.2277 63.8792 26.363 59.7961C25.3255 65.0993 23.8171 74.3991 23.1927 78.3861C21.3481 82.9975 18.0048 90.7794 16.5637 94.0939C13.3357 97.6677 9.35827 101.443 6.62022 102.164C1 105.478 2.29698 97.5525 2.29697 102.164L1 90.2029C1 83.5163 1 72.4296 1 67.7221V57.9227V47.2587C1.09607 49.7086 1.25939 52.9654 1.14411 46.3941C1.02882 39.8227 1.86465 31.1186 1.86465 28.957C1.28822 22.6162 1.57643 15.9392 1.14411 12.8169V5.61146V2.15287C2.58519 1.57643 6.04379 3.44984 7.77308 4.89092L5.61146 4.4586C4.69878 2.34501 12.5287 6.04379 15.4108 11.8081C18.293 17.5724 20.4546 22.4721 21.1751 24.2014L23.4809 30.3981C24.6337 34.5484 25.8827 41.9267 26.363 45.0971Z" stroke="#1742B0" stroke-width="0.288216"/>
</svg>
