<svg width="104" height="100" viewBox="0 0 104 100" fill="none" xmlns="http://www.w3.org/2000/svg">
<path d="M38.7527 81.1823C36.9708 84.0778 32.739 91.0047 30.0662 95.5483C29.2867 93.5438 27.5271 89.0669 26.7253 87.196C26.2798 86.0824 25.2553 83.1869 24.7207 80.5142C24.1861 77.8414 24.5634 74.8346 24.7207 73.4982C25.0355 70.8255 25.3887 66.8163 26.7253 62.4731C27.7273 59.8004 29.5985 57.3949 31.7367 54.4549C33.1946 52.4503 36.2135 49.4435 39.4208 46.7707C41.4254 45.5457 46.5036 42.4944 50.78 40.0889C53.0073 38.9752 58.1301 36.347 60.8028 34.7434C62.4733 33.7411 66.616 31.202 69.8233 29.0638C71.1597 27.9502 74.8347 24.8542 78.8438 21.3797C80.0688 20.1547 83.2539 16.9028 86.1939 13.6955C87.6416 11.4682 90.8712 6.21184 92.2076 3.00455C93.3212 5.3432 95.7489 10.6219 96.5508 13.0273L98.5553 17.7046C99.0008 19.5978 100.159 24.1861 101.228 27.3933C101.562 29.5093 102.431 34.6766 103.233 38.4184C103.233 40.7571 103.566 46.7707 103.233 52.4503C103.232 54.789 101.896 60.5354 100.56 64.8118C99.5576 67.0391 96.8849 72.4291 94.2121 76.1709C92.5416 78.0641 88.8664 82.5187 83.8552 85.8596L81.5163 87.196L79.8461 88.3653L78.1756 89.5347C74.5004 91.8733 73.3647 91.6729 68.821 93.5438L65.8142 94.212C64.1437 94.6574 59.8673 95.7488 56.1255 96.5506C53.8982 96.8847 48.4414 97.6865 44.4322 98.2211C42.4277 98.3325 37.7504 98.622 35.0776 98.8893C35.6345 97.7756 36.8817 95.1474 37.4163 93.5438C38.7527 91.5392 41.8263 86.7951 43.43 83.8551C44.8777 81.7392 48.4414 76.7055 51.1141 73.4982L53.7868 70.1573C56.3482 67.8186 62.7405 62.4063 67.8188 59.4663L71.8279 57.1276C69.6006 57.5731 64.7451 58.6645 63.1415 59.4663C60.4687 60.914 54.3214 64.4777 51.1141 67.1504L48.4414 69.8232C47.105 71.1595 43.6972 74.7678 40.7572 78.5096L38.7527 81.1823Z" fill="#1742B0" stroke="#1742B0" stroke-width="0.668186"/>
<path d="M21.0456 73.1641C21.2683 75.5028 22.0479 81.3828 23.3842 86.1937C21.6024 84.9687 17.0365 82.1846 14.6978 79.846C12.6933 78.1755 10.6887 76.171 9.35233 74.1664C7.70456 72.1891 5.4532 66.6359 5.66706 66.806C4.33445 65.4571 3.06865 60.9949 2.00228 57.7958C1.66819 55.0117 1 48.508 1 44.7662C1 43.0957 1.20046 38.5521 2.00228 33.7411C2.5591 30.2888 4.07366 22.2483 5.6773 17.7047C6.0114 16.0342 7.21413 11.4237 9.35233 6.34549L12.0251 1C12.3592 2.00228 13.2946 4.47457 14.3637 6.34549C15.9228 8.68414 19.7092 14.0296 22.382 16.7024C25.1661 19.1524 31.7366 24.7874 35.7457 27.7274C37.5275 28.8411 42.0266 31.6029 45.7685 33.7411L50.4458 36.4139C49.3321 37.0821 46.5035 38.6857 44.098 39.7548C42.7616 40.6457 39.2203 42.8953 35.7457 44.7662C34.4093 45.9912 31.1352 49.0426 28.7297 51.4481C27.8388 52.7844 25.5224 56.5263 23.3842 60.8027C22.6047 63.4754 21.0456 69.6895 21.0456 73.1641Z" fill="#1742B0"/>
<path d="M23.3842 86.1937C22.0479 81.3828 21.2683 75.5028 21.0456 73.1641C21.0456 69.6895 22.6047 63.4754 23.3842 60.8027C25.5224 56.5263 27.8388 52.7844 28.7297 51.4481C31.1352 49.0426 34.4093 45.9912 35.7457 44.7662C39.2203 42.8953 42.7616 40.6457 44.098 39.7548C46.5035 38.6857 49.3321 37.0821 50.4458 36.4139L45.7685 33.7411C42.0266 31.6029 37.5275 28.8411 35.7457 27.7274C31.7366 24.7874 25.1661 19.1524 22.382 16.7024C19.7092 14.0296 15.9228 8.68414 14.3637 6.34549C13.2946 4.47457 12.3592 2.00228 12.0251 1L9.35233 6.34549C7.21413 11.4237 6.0114 16.0342 5.6773 17.7047C4.07366 22.2483 2.5591 30.2888 2.00228 33.7411C1.20046 38.5521 1 43.0957 1 44.7662C1 48.508 1.66819 55.0117 2.00228 57.7958C3.07138 61.0031 4.34093 65.48 5.6773 66.8163C5.39106 66.4823 7.68186 72.1618 9.35233 74.1664C10.6887 76.171 12.6933 78.1755 14.6978 79.846C17.0365 82.1846 21.6024 84.9687 23.3842 86.1937Z" stroke="#1742B0" stroke-width="0.668186"/>
</svg>
