<svg width="81" height="103" viewBox="0 0 81 103" fill="none" xmlns="http://www.w3.org/2000/svg">
<path d="M16.6131 39.3794C17.5608 35.8258 20.8064 25.8756 26.208 14.5039C27.8664 15.4515 32.1307 18.0575 35.4475 20.9004C37.935 23.0326 44.9713 31.4192 48.9513 37.958C50.3728 40.6824 53.9265 48.4768 56.7694 57.8584C57.717 61.4121 59.6123 71.1491 59.6123 81.6679C59.7307 83.6816 59.6123 88.7752 56.7694 93.0395C55.8772 94.3778 51.9364 97.8725 46.8192 100.147C42.5548 102.042 38.0061 102.421 31.1831 101.568L27.2741 100.147C24.6681 98.7254 18.39 94.8164 14.1256 90.552L12.3488 85.5769L12.349 82.3892C12.3478 89.1167 11.2041 75.9766 12.3488 65.6764C12.8226 61.4121 14.3388 50.1825 16.6131 39.3794Z" fill="#EF6E37"/>
<path d="M26.208 14.5039C20.8064 25.8756 17.5608 35.8258 16.6131 39.3794C14.3388 50.1825 12.8226 61.4121 12.3488 65.6764C11.2035 75.982 12.349 89.1305 12.349 82.3786L12.3488 85.5769L14.1256 90.552C18.39 94.8164 24.6681 98.7254 27.2741 100.147L31.1831 101.568C38.0061 102.421 42.5548 102.042 46.8192 100.147C51.9364 97.8725 55.8772 94.3778 56.7694 93.0395C59.6123 88.7752 59.7307 83.6816 59.6123 81.6679C59.6123 71.1491 57.717 61.4121 56.7694 57.8584C53.9265 48.4768 50.3728 40.6824 48.9513 37.958C44.9713 31.4192 37.935 23.0326 35.4475 20.9004C32.1307 18.0575 27.8664 15.4515 26.208 14.5039Z" stroke="#EF6E37" stroke-width="0.71073"/>
<path d="M39.7121 1L30.4726 9.88412C34.9739 13.4378 44.6162 21.3269 47.1748 24.4541C49.5439 28.2446 54.8507 36.8919 57.125 41.1562C58.6649 45.4206 62.1001 55.2998 63.5216 60.7013C64.1138 64.9657 65.6538 74.2052 66.0091 79.1803V81.3125V84.1554C66.0091 85.2215 63.8769 90.1966 62.4555 95.1717L61.034 98.7254C63.0477 97.3039 67.7149 93.7503 70.2735 90.9073L72.4057 87.3537C73.3533 84.9846 75.3908 79.2514 75.9593 75.2713C76.6701 70.4146 78.3048 58.4981 79.1576 49.685V26.5863L79.8684 9.88412C79.513 9.88412 77.3808 9.52876 71.695 9.88412C65.6538 11.3056 58.9729 13.1535 54.9928 14.8592C52.9791 12.2532 48.1698 6.33048 45.0426 3.48756C44.0949 2.89528 41.4889 1 39.7121 1Z" fill="#EF6E37" stroke="#EF6E37" stroke-width="0.71073"/>
<path d="M9.16659 43.5387L9.15826 43.5656L9.15427 43.5935C8.78309 46.1918 8.31471 51.309 7.69977 58.0274C7.16116 63.9119 6.51012 71.0247 5.71349 78.7492C5.33418 77.991 4.921 77.0003 4.49788 75.8534C3.86892 74.1486 3.22768 72.1258 2.65215 70.0672C1.49662 65.934 0.621901 61.7128 0.621901 59.6352V59.6131L0.619157 59.5911C0.268035 56.7822 0.265982 48.9948 0.621713 39.0367C0.729221 36.0272 0.700401 29.7027 0.664967 21.9265C0.64507 17.5601 0.623087 12.736 0.621983 7.78416L8.38484 8.45919C10.93 9.03915 16.9003 10.6397 21.1052 12.5408C20.0309 14.6556 18.331 17.7022 16.3086 21.073L16.2845 21.1131L16.2716 21.1581C15.9675 22.2224 15.3001 24.2853 14.3456 27.2353C13.0706 31.1759 11.2836 36.6992 9.16659 43.5387Z" fill="#EF6E37" stroke="#EF6E37" stroke-width="0.71073"/>
</svg>
