<?xml version="1.0" encoding="UTF-8"?>
<svg id="Vrstva_2" data-name="Vrstva 2" xmlns="http://www.w3.org/2000/svg" viewBox="0 0 738.65 227.83">
  <defs>
    <style>
      .cls-1 {
        fill: #1742b0;
      }

      .cls-2, .cls-3, .cls-4 {
        fill: #3b2401;
      }

      .cls-3, .cls-5, .cls-4, .cls-6 {
        stroke: #3b2401;
      }

      .cls-7 {
        stroke: #4a2d01;
      }

      .cls-7, .cls-6 {
        fill: #543301;
      }

      .cls-8 {
        stroke: #ffb7c5;
        stroke-linecap: round;
        stroke-width: 3px;
      }

      .cls-8, .cls-5 {
        fill: none;
      }

      .cls-4, .cls-6 {
        stroke-width: 2px;
      }
    </style>
  </defs>
  <g id="Vrstva_1-2" data-name="Vrstva 1">
    <g>
      <path class="cls-7" d="m271.82,44.46l6.5,4,1.5.5,4.5-1.5c1.67-.5,5.6-1.5,8-1.5,1.5.33,5.2,1.4,8,3,2.17,1.5,7.3,5.2,10.5,8,1.33,1.67,4.6,5.9,7,9.5,1.17,2,4,7.3,6,12.5.83,2.33,2.7,8,3.5,12,.33,3.5,1,11.9,1,17.5v35l-1,11.5c-.33,2-1.2,7-2,11-.67,2.17-2.4,8-4,14l-7.5,15-7.5,12.5c-2.33,2.33-8.2,7.7-13,10.5-2,1-7.3,3.4-12.5,5-2,.5-7.1,1.5-11.5,1.5h-11c-2.33-1-8.5-3.7-14.5-6.5l-3-2.5c-2.5-2-8.3-7-11.5-11-2.33-3-7.6-10.2-10-15-1-3.33-3.3-12.1-4.5-20.5-.5-3.33-1.5-11.7-1.5-18.5l1.5-23.5c0-4.17.4-15.3,2-26.5l1.5-8.5c.83-3.33,3.1-11.5,5.5-17.5,1.33-2.5,5.8-9.8,13-19l8.5-5.5c4-1.33,14.9-4.3,26.5-5.5Z"/>
      <path class="cls-3" d="m260.32,202.46l-1.5,10,2,.5c.5-.83,2-3.1,4-5.5.83-1.17,2.9-4,4.5-6,.83-.5,3.3-1.5,6.5-1.5,1,.33,4,1.3,8,2.5h5l3-1c-.83-.17-3.2-.5-6-.5l-5-1.5c-1.33-.5-4.6-2-7-4-.67-1-2-4.1-2-8.5,0-1.33.3-5.3,1.5-10.5.83-1.33,2.9-5,4.5-9l2-3.5,1.5-3c.5-1.33,1.6-4.7,2-7.5,0-1.17.1-4.6.5-9l1-7v-3c0-1.17.3-4.6,1.5-9v-15c0-1.67-.1-5.7-.5-8.5l-2-2c0-1.17.2-4.1,1-6.5-.17-1-.7-3.5-1.5-5.5-.5-.83-1.9-2.9-3.5-4.5-.83-.67-2.9-2.7-4.5-5.5-.5-1.17-1.5-4.3-1.5-7.5l-1-.5c-1-.67-3.5-2.5-5.5-4.5-.17-.83-.2-3.3,1-6.5.83-.67,2.8-2.6,4-5v-1c-1.33,1-4.9,3.6-8.5,6v1c-1,.5-3,2.3-3,5.5,0,1,.2,3.8,1,7l2,3,.5,2v5c.83,1.83,2.8,6.5,4,10.5.5,1.83,1.5,6.7,1.5,11.5v5c0,1.17.5,4.3,2.5,7.5-.33,1.5-1,5.5-1,9.5-.5,1.67-1.5,6.2-1.5,11-.33,2.33-1.3,8.7-2.5,15.5l-1,3.5-2,4c-.67.83-2,3.4-2,7-.67,2-2.5,7-4.5,11v5.5c-.33.33-1.3.6-2.5-1l-2.5-1.5c-.33.5-.6,2.1,1,4.5l5,4,2,2.5c.5,1.67,1.1,6-.5,10Z"/>
      <g>
        <path class="cls-2" d="m230.32,96.46c-1.5-2.5-5.5-8.5-9.5-12.5l-1,4-1.5,5.5-1.5,8.5-1,11.5v5.5l-1,8.5v6.5l-1,11.5v8l1,8.5v6l2,7.5c.5,3.17,1.9,10.5,3.5,14.5.83,1.67,3.1,5.7,5.5,8.5,2,2.67,7.4,9.4,13,15,1.5,1,5.6,3.8,10,7l9.5,3.5c2.83.17,11,.2,21-1l16.5-6.5c-3.83,1.33-12.5,4-16.5,4l-3.5-1.5-5-4-3-2.5c-.83.33-3.6,1-8,1-1.83-.83-6.5-3.3-10.5-6.5l-5.5-5-6.5-5-7-12c-1-1.5-3-5.7-3-10.5,1-1.67,4.1-6,8.5-10l8-7,7-6.5,3.5-4c.5-.5.2-2.7-5-7.5-2-2.33-8.1-8.5-16.5-14.5-2.17-1.67-7.8-5.8-13-9l2.5-4.5,5-7.5c.67-1,2.2-3.9,3-7.5Z"/>
        <path class="cls-5" d="m230.32,96.46c-1.5-2.5-5.5-8.5-9.5-12.5l-1,4-1.5,5.5-1.5,8.5-1,11.5v5.5l-1,8.5v6.5l-1,11.5v8l1,8.5v6l2,7.5c.5,3.17,1.9,10.5,3.5,14.5.83,1.67,3.1,5.7,5.5,8.5,2,2.67,7.4,9.4,13,15,1.5,1,5.6,3.8,10,7l9.5,3.5c2.83.17,11,.2,21-1l16.5-6.5c-3.83,1.33-12.5,4-16.5,4l-3.5-1.5-5-4-3-2.5c-.83.33-3.6,1-8,1-1.83-.83-6.5-3.3-10.5-6.5l-5.5-5-6.5-5-7-12c-1-1.5-3-5.7-3-10.5,1-1.67,4.1-6,8.5-10l8-7,7-6.5,3.5-4c.5-.5.2-2.7-5-7.5-2-2.33-8.1-8.5-16.5-14.5-2.17-1.67-7.8-5.8-13-9l2.5-4.5,5-7.5c.67-1,2.2-3.9,3-7.5Z"/>
      </g>
      <path class="cls-3" d="m246.82,52.96h-5l5-3.5,9.5-2,9-2h2.5l3.5-1,4.5,3,2,1.5h2.5l1.5-.5h2l1.5-1,2-.5,2.5-.5h2l2,.5,2,.5,1,.5,2,1,2.5,1,2,1.5,2,1.5,2,2,2,1.5,2.5,2.5,1.5,2c-.33.5-1.3,2-2.5,4-.33.67-1.4,2.4-3,4-.5.5-2.4,1.6-6,2l-3.5-.5c-.67-.33-2.9-1.2-6.5-2l-3,.5c-1,.5-3.9,1.5-7.5,1.5-.83-.17-3.6-.6-8-1l-3-2c-1-.67-3.1-2.4-3.5-4,.17-1,1.1-3.5,3.5-5.5l2-2.5,2-4-5,3.5-6,3.5c-1-.5-3.8-1.4-7-1-.17-1.17-.9-3.9-2.5-5.5-1,0-3.8.2-7,1Z"/>
      <path class="cls-6" d="m410.32,199.84c-2.83-4.17-9.6-16.7-14-33.5-.67-2.17-2-8.5-2-16.5v-23c1.33-4,4.9-14.3,8.5-23.5,2-2.83,7.7-10,14.5-16,2-2.17,7.7-8,14.5-14l13.5-3c-9,0,6.9-.3,12.5-1.5,2.83-.5,10.4-.9,18,1.5,3.17,1.33,11,5.3,17,10.5,2.33,2,8,7.6,12,14,2,4.17,7,15.3,11,26.5,1.17,4.17,3.5,14.4,3.5,22v21c-1,3.17-3.5,11.4-5.5,19-2.17,4.5-8.4,16.2-16,27-3.17,2.67-11.1,8.7-17.5,11.5l-10.5,3h-23c13,0-5.8-.6-15-5-3.5-2.33-12.7-9.6-21.5-20Z"/>
      <path class="cls-4" d="m398.82,155.34l-4-12.5v14l1,7,3,11.5,4,7.5,3,9.5,5.5,7.5,6.5,6.5,6.5,6.5,7,6,8.5,4,7.5,1.5h21l8.5-1.5,8-4,7-4.5,6-5,4.5-6.5h-10.5l-5.5,2c-1.83,1-7.1,3.8-13.5,7-2.17.83-8.1,2.5-14.5,2.5-3.5-.5-11.7-2.5-16.5-6.5-2.17-1-8-4-14-8-3-2.33-10.5-8.5-16.5-14.5-1.67-2.5-6-9.9-10-19.5l-2.5-10.5Z"/>
      <path class="cls-4" d="m449.82,191.34l-9,9,9-5,1.5,1.5c.67.67,2.3,2.8,3.5,6l-3.5,8.5,5.5-4.5c.33-.83,1.7-2.5,4.5-2.5l5.5,3c-.83-1-3.4-3.8-7-7-.17-1-.1-3.9,1.5-7.5h6.5l-8-1.5,1.5-3.5c.33-1.17.5-4.6-1.5-9l-.5-6.5,1.5-6v-5l1.5-5v-9l-1.5-5.5c-.5-1.17-1.8-4.5-3-8.5l1.5-5c0-2-.3-7.2-1.5-12l-2-3c.67-1.33,2.3-5.1,3.5-9.5v-5.5c-.5-1.33-2.1-4.8-4.5-8v-4.5l1-5v-7l3.5-4.5h-5.5l-7,1.5c1,.67,3,2.5,3,4.5v17c-.67.83-2.2,3.6-3,8v6l1,4.5v8.5c0,3.6,1.33,4.5,2,4.5l1.5,4.5-1.5,9v31.5l1.5,3.5v16.5l-1.5,2.5Z"/>
      <path class="cls-1" d="m269.72,18.96c-.18.62-.58,1.08-1.2,1.38-.6.3-1.24.45-1.92.45-.58,0-1.15-.14-1.71-.42-.54-.28-.9-.71-1.08-1.29-.66.52-1.26.94-1.8,1.26-.54.3-1.19.45-1.95.45-1.08,0-1.98-.24-2.7-.72-.7-.5-1.05-1.21-1.05-2.13,0-.74.15-1.38.45-1.92.3-.56.75-1.04,1.35-1.44.6-.4,1.35-.74,2.25-1.02.9-.28,1.96-.53,3.18-.75v-.96c0-.9-.08-1.57-.24-2.01-.16-.44-.57-.66-1.23-.66s-1.19.09-1.65.27c-.46.18-.7.53-.72,1.05.08.1.14.23.18.39.06.16.09.33.09.51,0,.88-.54,1.32-1.62,1.32-.86,0-1.29-.5-1.29-1.5,0-.48.1-.93.3-1.35.22-.44.55-.82.99-1.14.44-.32,1.01-.57,1.71-.75.7-.2,1.55-.3,2.55-.3.62,0,1.22.08,1.8.24.58.14,1.09.38,1.53.72.46.32.83.74,1.11,1.26.28.5.42,1.12.42,1.86v6.3c0,.6.26.9.78.9.14,0,.28-.03.42-.09.14-.08.3-.17.48-.27l.57.36Zm-6.09-4.8c-1.14.16-1.99.46-2.55.9-.54.44-.81,1.15-.81,2.13,0,.64.09,1.12.27,1.44.2.32.57.48,1.11.48s.91-.08,1.17-.24c.26-.18.44-.4.54-.66.12-.28.18-.59.18-.93.02-.34.05-.68.09-1.02v-2.1Zm7.15,6.3v-1.26c1.26,0,1.89-.49,1.89-1.47v-6.09c0-1.28-.66-1.92-1.98-1.92v-1.11l5.91-.99v2.49c.14-.26.32-.53.54-.81.22-.3.47-.57.75-.81.3-.24.61-.43.93-.57.34-.16.69-.24,1.05-.24,1.6,0,2.4.73,2.4,2.19,0,1.24-.51,1.86-1.53,1.86-.92,0-1.38-.44-1.38-1.32v-.21c0-.1,0-.19.03-.27h-.3c-.54,0-.97.18-1.29.54-.32.34-.57.77-.75,1.29-.18.5-.3,1.03-.36,1.59-.06.54-.09,1-.09,1.38v3.12c0,.9.75,1.35,2.25,1.35v1.26h-8.07Zm26.04-1.5c-.18.62-.58,1.08-1.2,1.38-.6.3-1.24.45-1.92.45-.58,0-1.15-.14-1.71-.42-.54-.28-.9-.71-1.08-1.29-.66.52-1.26.94-1.8,1.26-.54.3-1.19.45-1.95.45-1.08,0-1.98-.24-2.7-.72-.7-.5-1.05-1.21-1.05-2.13,0-.74.15-1.38.45-1.92.3-.56.75-1.04,1.35-1.44.6-.4,1.35-.74,2.25-1.02.9-.28,1.96-.53,3.18-.75v-.96c0-.9-.08-1.57-.24-2.01-.16-.44-.57-.66-1.23-.66s-1.19.09-1.65.27c-.46.18-.7.53-.72,1.05.08.1.14.23.18.39.06.16.09.33.09.51,0,.88-.54,1.32-1.62,1.32-.86,0-1.29-.5-1.29-1.5,0-.48.1-.93.3-1.35.22-.44.55-.82.99-1.14.44-.32,1.01-.57,1.71-.75.7-.2,1.55-.3,2.55-.3.62,0,1.22.08,1.8.24.58.14,1.09.38,1.53.72.46.32.83.74,1.11,1.26.28.5.42,1.12.42,1.86v6.3c0,.6.26.9.78.9.14,0,.28-.03.42-.09.14-.08.3-.17.48-.27l.57.36Zm-6.09-4.8c-1.14.16-1.99.46-2.55.9-.54.44-.81,1.15-.81,2.13,0,.64.09,1.12.27,1.44.2.32.57.48,1.11.48s.91-.08,1.17-.24c.26-.18.44-.4.54-.66.12-.28.18-.59.18-.93.02-.34.05-.68.09-1.02v-2.1Zm7.87,6.36c.26-1.22.39-2.71.39-4.47V4.26c0-1.44-.63-2.16-1.89-2.16V.96l5.25-.96v9.54c.94-1.24,2.2-1.86,3.78-1.86.68,0,1.34.13,1.98.39.66.26,1.24.65,1.74,1.17.5.5.9,1.14,1.2,1.92.32.78.48,1.68.48,2.7,0,1.2-.16,2.25-.48,3.15-.32.88-.76,1.62-1.32,2.22-.54.6-1.19,1.04-1.95,1.32-.76.3-1.58.45-2.46.45s-1.61-.14-2.19-.42-1.13-.68-1.65-1.2c-.1.24-.27.47-.51.69-.24.22-.53.47-.87.75l-1.5-.3Zm3.66-5.67c0,.38.01.85.03,1.41.04.56.16,1.1.36,1.62.2.5.5.94.9,1.32.42.36,1.01.54,1.77.54.54,0,.96-.14,1.26-.42.3-.3.52-.68.66-1.14.16-.46.25-.98.27-1.56.04-.6.06-1.19.06-1.77s-.02-1.18-.06-1.8c-.04-.64-.15-1.22-.33-1.74-.18-.52-.45-.95-.81-1.29s-.87-.51-1.53-.51-1.13.15-1.47.45-.6.68-.78,1.14c-.16.44-.26.92-.3,1.44-.02.52-.03.99-.03,1.41v.9Zm10.94,5.61v-1.26c1.32,0,1.98-.53,1.98-1.59v-5.76c0-1.42-.59-2.13-1.77-2.13v-1.11l5.7-.99v10.11c0,.98.75,1.47,2.25,1.47v1.26h-8.16Zm3.75-15.6c-.6,0-1.04-.15-1.32-.45-.28-.32-.42-.83-.42-1.53,0-1.24.62-1.86,1.86-1.86,1.16,0,1.74.62,1.74,1.86,0,.7-.16,1.21-.48,1.53-.32.3-.78.45-1.38.45Zm14.82,15.6v-1.26c.6,0,.94-.07,1.02-.21l-2.25-4.41c-.22.12-.44.25-.66.39-.22.12-.47.25-.75.39v2.7c0,.76.42,1.14,1.26,1.14v1.26h-7.08v-1.26c1.26,0,1.89-.42,1.89-1.26V3.33c0-.82-.67-1.23-2.01-1.23V.84l5.94-.81v13.47c.36-.24.76-.53,1.2-.87.46-.36.88-.72,1.26-1.08.38-.36.7-.7.96-1.02.26-.32.39-.58.39-.78,0-.22-.54-.33-1.62-.33v-1.17h6.93v1.17c-.86,0-1.89.27-3.09.81-.24.26-.52.54-.84.84-.3.3-.63.64-.99,1.02l3.24,5.76c.62.9,1.27,1.35,1.95,1.35h.84v1.26h-7.59Zm21.56-1.5c-.18.62-.58,1.08-1.2,1.38-.6.3-1.24.45-1.92.45-.58,0-1.15-.14-1.71-.42-.54-.28-.9-.71-1.08-1.29-.66.52-1.26.94-1.8,1.26-.54.3-1.19.45-1.95.45-1.08,0-1.98-.24-2.7-.72-.7-.5-1.05-1.21-1.05-2.13,0-.74.15-1.38.45-1.92.3-.56.75-1.04,1.35-1.44.6-.4,1.35-.74,2.25-1.02.9-.28,1.96-.53,3.18-.75v-.96c0-.9-.08-1.57-.24-2.01-.16-.44-.57-.66-1.23-.66s-1.19.09-1.65.27c-.46.18-.7.53-.72,1.05.08.1.14.23.18.39.06.16.09.33.09.51,0,.88-.54,1.32-1.62,1.32-.86,0-1.29-.5-1.29-1.5,0-.48.1-.93.3-1.35.22-.44.55-.82.99-1.14.44-.32,1.01-.57,1.71-.75.7-.2,1.55-.3,2.55-.3.62,0,1.22.08,1.8.24.58.14,1.09.38,1.53.72.46.32.83.74,1.11,1.26.28.5.42,1.12.42,1.86v6.3c0,.6.26.9.78.9.14,0,.28-.03.42-.09.14-.08.3-.17.48-.27l.57.36Zm-6.09-4.8c-1.14.16-1.99.46-2.55.9-.54.44-.81,1.15-.81,2.13,0,.64.09,1.12.27,1.44.2.32.57.48,1.11.48s.91-.08,1.17-.24c.26-.18.44-.4.54-.66.12-.28.18-.59.18-.93.02-.34.05-.68.09-1.02v-2.1Z"/>
      <path class="cls-1" d="m376.31,54.46v-1.26c1.26,0,1.89-.49,1.89-1.47v-6.09c0-1.28-.66-1.92-1.98-1.92v-1.11l5.91-.99v2.49c.14-.26.32-.53.54-.81.22-.3.47-.57.75-.81.3-.24.61-.43.93-.57.34-.16.69-.24,1.05-.24,1.6,0,2.4.73,2.4,2.19,0,1.24-.51,1.86-1.53,1.86-.92,0-1.38-.44-1.38-1.32v-.21c0-.1.01-.19.03-.27h-.3c-.54,0-.97.18-1.29.54-.32.34-.57.77-.75,1.29-.18.5-.3,1.03-.36,1.59-.06.54-.09,1-.09,1.38v3.12c0,.9.75,1.35,2.25,1.35v1.26h-8.07Zm26.04-6.3c0,1.2-.2,2.23-.6,3.09s-.93,1.57-1.59,2.13c-.64.54-1.37.94-2.19,1.2-.8.28-1.62.42-2.46.42-.94,0-1.83-.15-2.67-.45-.84-.3-1.57-.73-2.19-1.29-.62-.56-1.11-1.24-1.47-2.04-.36-.8-.54-1.7-.54-2.7,0-1.28.2-2.35.6-3.21.4-.88.92-1.59,1.56-2.13.66-.54,1.41-.92,2.25-1.14.84-.24,1.7-.36,2.58-.36s1.76.15,2.58.45c.82.3,1.53.73,2.13,1.29.62.56,1.11,1.24,1.47,2.04s.54,1.7.54,2.7Zm-6.72,5.49c.62,0,1.1-.16,1.44-.48.34-.32.59-.7.75-1.14.18-.46.28-.93.3-1.41.04-.48.06-.88.06-1.2,0-.62-.02-1.3-.06-2.04-.02-.74-.12-1.43-.3-2.07-.16-.64-.42-1.17-.78-1.59-.36-.44-.87-.66-1.53-.66s-1.14.17-1.5.51c-.36.32-.63.71-.81,1.17-.16.44-.26.9-.3,1.38-.02.48-.03.87-.03,1.17,0,.62.01,1.3.03,2.04.04.74.14,1.43.3,2.07.18.64.45,1.18.81,1.62.38.42.92.63,1.62.63Zm9.15.87c.26-1.22.39-2.71.39-4.47v-11.79c0-1.44-.63-2.16-1.89-2.16v-1.14l5.25-.96v9.54c.94-1.24,2.2-1.86,3.78-1.86.68,0,1.34.13,1.98.39.66.26,1.24.65,1.74,1.17.5.5.9,1.14,1.2,1.92.32.78.48,1.68.48,2.7,0,1.2-.16,2.25-.48,3.15-.32.88-.76,1.62-1.32,2.22-.54.6-1.19,1.04-1.95,1.32-.76.3-1.58.45-2.46.45s-1.61-.14-2.19-.42-1.13-.68-1.65-1.2c-.1.24-.27.47-.51.69-.24.22-.53.47-.87.75l-1.5-.3Zm3.66-5.67c0,.38.01.85.03,1.41.04.56.16,1.1.36,1.62.2.5.5.94.9,1.32.42.36,1.01.54,1.77.54.54,0,.96-.14,1.26-.42.3-.3.52-.68.66-1.14.16-.46.25-.98.27-1.56.04-.6.06-1.19.06-1.77s-.02-1.18-.06-1.8c-.04-.64-.15-1.22-.33-1.74-.18-.52-.45-.95-.81-1.29s-.87-.51-1.53-.51-1.13.15-1.47.45-.6.68-.78,1.14c-.16.44-.26.92-.3,1.44-.02.52-.03.99-.03,1.41v.9Zm21.35,5.76c-.08-.14-.13-.28-.15-.42-.02-.16-.03-.35-.03-.57v-.45c-.2.26-.4.49-.6.69-.2.2-.44.37-.72.51-.28.14-.61.24-.99.3-.36.08-.8.12-1.32.12-.78,0-1.49-.08-2.13-.24-.62-.14-1.16-.38-1.62-.72-.44-.36-.78-.83-1.02-1.41-.24-.6-.36-1.35-.36-2.25v-5.85c0-.54-.62-.81-1.86-.81l-.18-1.11,5.97-.39v7.62c0,.44.01.86.03,1.26.04.4.12.76.24,1.08.14.3.34.54.6.72.26.18.62.27,1.08.27.72,0,1.29-.25,1.71-.75.42-.5.77-1.2,1.05-2.1v-5.79c0-.54-.69-.81-2.07-.81l-.18-1.11,6.18-.39v9.93c0,.54.66.84,1.98.9l.3,1.17-5.91.6Zm15.26-8.67c-.4-1.02-.9-1.77-1.5-2.25-.6-.5-1.2-.75-1.8-.75-.28,0-.56.03-.84.09-.28.06-.54.16-.78.3-.22.14-.41.32-.57.54-.14.22-.21.48-.21.78s.15.57.45.81c.3.22.66.41,1.08.57.42.16.85.3,1.29.42.44.12.8.22,1.08.3.44.16.87.33,1.29.51.44.18.82.41,1.14.69.34.26.61.59.81.99.2.4.3.9.3,1.5,0,.68-.13,1.29-.39,1.83-.24.54-.58,1.01-1.02,1.41-.42.38-.92.67-1.5.87-.56.22-1.16.33-1.8.33s-1.15-.06-1.53-.18c-.38-.1-.73-.27-1.05-.51-.24.18-.52.32-.84.42-.32.1-.77.17-1.35.21-.12-.7-.2-1.47-.24-2.31-.02-.86-.03-1.74-.03-2.64h1.41c.2.72.4,1.32.6,1.8.22.46.46.83.72,1.11.28.28.6.48.96.6.36.1.79.15,1.29.15,1.48,0,2.25-.48,2.31-1.44,0-.56-.18-.99-.54-1.29-.34-.3-.77-.55-1.29-.75s-1.09-.38-1.71-.54c-.62-.18-1.19-.41-1.71-.69s-.96-.65-1.32-1.11c-.34-.48-.51-1.13-.51-1.95,0-1.14.39-2.1,1.17-2.88.8-.8,1.96-1.2,3.48-1.2.44,0,.85.05,1.23.15.4.08.8.24,1.2.48.14-.1.33-.21.57-.33.24-.12.56-.2.96-.24.2.76.32,1.48.36,2.16.04.68.06,1.36.06,2.04h-1.23Zm12.86,5.22c0,.58-.14,1.1-.42,1.56-.26.46-.61.85-1.05,1.17-.44.32-.95.56-1.53.72-.56.18-1.14.27-1.74.27-.48,0-.94-.06-1.38-.18-.42-.12-.8-.3-1.14-.54-.34-.26-.61-.58-.81-.96-.2-.38-.3-.83-.3-1.35v-8.13h-1.92l.15-1.23c.44-.08.9-.25,1.38-.51.48-.28.93-.61,1.35-.99.42-.4.78-.85,1.08-1.35.32-.5.54-1.02.66-1.56l1.23-.18v4.35h2.13c.22,0,.47-.03.75-.09.28-.06.54-.13.78-.21v1.77h-3.66v8.1c.02.2.07.39.15.57.08.16.2.3.36.42.18.1.43.15.75.15.52,0,.98-.2,1.38-.6.4-.4.65-.91.75-1.53l1.05.33Zm14.28,1.8c-.18.62-.58,1.08-1.2,1.38-.6.3-1.24.45-1.92.45-.58,0-1.15-.14-1.71-.42-.54-.28-.9-.71-1.08-1.29-.66.52-1.26.94-1.8,1.26-.54.3-1.19.45-1.95.45-1.08,0-1.98-.24-2.7-.72-.7-.5-1.05-1.21-1.05-2.13,0-.74.15-1.38.45-1.92.3-.56.75-1.04,1.35-1.44.6-.4,1.35-.74,2.25-1.02.9-.28,1.96-.53,3.18-.75v-.96c0-.9-.08-1.57-.24-2.01-.16-.44-.57-.66-1.23-.66s-1.19.09-1.65.27c-.46.18-.7.53-.72,1.05.08.1.14.23.18.39.06.16.09.33.09.51,0,.88-.54,1.32-1.62,1.32-.86,0-1.29-.5-1.29-1.5,0-.48.1-.93.3-1.35.22-.44.55-.82.99-1.14.44-.32,1.01-.57,1.71-.75.7-.2,1.55-.3,2.55-.3.62,0,1.22.08,1.8.24.58.14,1.09.38,1.53.72.46.32.83.74,1.11,1.26.28.5.42,1.12.42,1.86v6.3c0,.6.26.9.78.9.14,0,.28-.03.42-.09.14-.08.3-.17.48-.27l.57.36Zm-6.09-4.8c-1.14.16-1.99.46-2.55.9-.54.44-.81,1.15-.81,2.13,0,.64.09,1.12.27,1.44.2.32.57.48,1.11.48s.91-.08,1.17-.24c.26-.18.44-.4.54-.66.12-.28.18-.59.18-.93.02-.34.05-.68.09-1.02v-2.1Z"/>
      <path d="m31.53,64.2c-.21.45-.46.83-.74,1.15-.29.32-.6.58-.94.79-.34.19-.68.34-1.03.43-.35.1-.7.14-1.03.14-1.01,0-1.78-.32-2.33-.96-.53-.64-.79-1.54-.79-2.71,0-.88.14-1.73.43-2.54.29-.83.67-1.56,1.15-2.18.48-.64,1.03-1.15,1.66-1.54.64-.38,1.3-.58,1.99-.58.59,0,1.09.1,1.49.29.4.18.6.46.6.84s-.11.66-.34.89c-.21.21-.38.31-.5.31-.19,0-.34-.06-.43-.19-.08-.14-.17-.29-.26-.43-.1-.16-.22-.3-.38-.43-.16-.14-.41-.22-.74-.22-.46,0-.87.16-1.22.48-.34.3-.62.7-.84,1.18-.22.48-.39,1.01-.5,1.58-.11.58-.17,1.13-.17,1.66,0,1.01.18,1.76.53,2.26.35.5.93.74,1.73.74.46,0,.86-.1,1.2-.29s.68-.54,1.03-1.06l.46.38Zm10.07.22c-.18.26-.39.52-.65.79s-.53.52-.82.74c-.27.21-.54.38-.82.5-.27.14-.5.22-.7.22-.35,0-.54-.26-.55-.77v-.29c.02-.08.03-.14.05-.17l.98-5.04c.11-.54.2-1.01.26-1.39.06-.38.1-.65.1-.79,0-.42-.14-.62-.41-.62-.35,0-.84.33-1.46.98-.62.64-1.43,1.62-2.42,2.95l-.94,4.73-1.61.58,2.54-14.02c.03-.08.05-.17.05-.26v-.26c-.03-.34-.12-.58-.26-.74-.13-.16-.36-.24-.7-.24l.1-.65,3.05-.74-2.09,10.49c2.02-2.83,3.66-4.25,4.92-4.25.24,0,.44.13.6.38.18.26.26.66.26,1.22,0,.34-.03.7-.1,1.1-.06.38-.14.77-.22,1.15l-.65,3.46c-.03.13-.06.28-.1.46-.03.16-.05.3-.05.43,0,.11,0,.22.02.34.02.11.07.17.17.17.18,0,.55-.32,1.13-.96l.29.5Zm10.44.12c-.18.26-.38.52-.62.79-.24.26-.5.5-.77.72-.26.21-.51.38-.77.53-.26.14-.49.22-.7.22-.18,0-.3-.06-.38-.19-.08-.11-.12-.34-.12-.7,0-.11,0-.25.02-.41.03-.18.07-.39.12-.65.06-.26.14-.58.22-.96.1-.38.21-.86.34-1.42-1.04,1.47-1.94,2.57-2.71,3.29-.75.72-1.45,1.08-2.09,1.08-.24,0-.44-.14-.6-.41-.16-.29-.24-.71-.24-1.27,0-.32.02-.66.07-1.03.06-.37.14-.74.22-1.13l.65-3.46c.06-.22.1-.42.12-.58.02-.16.02-.28.02-.36,0-.32-.06-.48-.17-.48-.16,0-.54.34-1.13,1.01l-.26-.55c.16-.24.37-.5.62-.77.26-.27.52-.51.79-.72.29-.22.57-.41.84-.55s.51-.22.72-.22c.18,0,.3.05.36.14.08.1.14.27.17.53v.31c0,.06-.02.16-.05.29l-1.01,4.99c-.22,1.17-.34,1.93-.34,2.28,0,.19.04.34.12.43.08.1.18.14.31.14.34,0,.79-.36,1.37-1.08.59-.74,1.39-1.86,2.4-3.36l.91-4.25,1.58-.6-1.54,7.85c-.03.1-.05.27-.05.53,0,.3.06.46.17.46.16,0,.53-.33,1.1-.98l.29.53Zm5.77-.12c-.18.26-.4.52-.67.79-.26.27-.54.52-.84.74-.29.21-.58.38-.89.5-.3.14-.58.22-.82.22-.21,0-.39-.07-.55-.22-.14-.14-.22-.37-.22-.67v-.34l1.44-8.06h-1.44l.41-.94h1.2l.43-2.14,1.34-1.34.55.29-.65,3.19h1.34c.18,0,.34-.02.48-.05.14-.05.28-.1.41-.14l-.62,1.03-1.82.07-1.08,6.12c-.03.13-.06.29-.1.48-.02.18-.02.33-.02.46,0,.18.02.32.05.43.05.11.14.17.26.17.18,0,.41-.1.7-.31.29-.21.56-.47.82-.79l.29.5Zm1.78-8.45c.54-.35.97-.67,1.27-.96.32-.3.56-.58.72-.82.16-.26.26-.47.29-.65.03-.19.05-.36.05-.5,0-.19-.08-.31-.24-.36-.16-.06-.34-.12-.53-.17-.18-.05-.34-.13-.5-.24s-.24-.32-.24-.62c0-.59.14-1.04.43-1.34.3-.3.68-.46,1.13-.46.96,0,1.44.54,1.44,1.61,0,1.14-.31,2.12-.94,2.95-.62.82-1.49,1.52-2.59,2.11l-.29-.55Zm11.21,10.97c-.54,0-1.02-.1-1.44-.31-.4-.21-.74-.5-1.03-.86-.27-.37-.48-.8-.62-1.3-.13-.51-.19-1.06-.19-1.63,0-1.02.16-1.94.48-2.76.32-.82.73-1.51,1.22-2.09.51-.58,1.07-1.02,1.68-1.32.62-.32,1.22-.48,1.8-.48.51,0,.96.1,1.34.31.38.21.7.5.96.86.27.37.47.8.6,1.3.14.5.22,1.03.22,1.61,0,1.04-.16,1.98-.48,2.81-.3.82-.7,1.51-1.2,2.09-.5.58-1.04,1.02-1.63,1.32-.59.3-1.16.46-1.7.46Zm.24-1.01c.66,0,1.18-.21,1.58-.62.4-.43.7-.95.91-1.56.22-.61.37-1.25.43-1.92.08-.69.12-1.3.12-1.82,0-.38-.02-.75-.07-1.1-.03-.37-.11-.69-.24-.96-.11-.27-.27-.49-.48-.65-.21-.18-.48-.26-.82-.26-.69,0-1.24.22-1.66.67-.42.43-.74.96-.96,1.58-.21.62-.35,1.28-.43,1.97-.06.69-.1,1.29-.1,1.8,0,.38.02.75.07,1.1.05.34.14.64.26.91.13.26.3.46.53.62.22.16.5.24.84.24Zm8.48,1.01l-.74-8.52c0-.27-.07-.41-.22-.41-.08,0-.21.08-.38.24-.18.16-.36.4-.55.72l-.36-.48c.1-.26.23-.51.41-.77.18-.27.37-.51.58-.72.22-.22.45-.41.67-.55.24-.14.46-.22.65-.22.05,0,.11.02.19.07.1.05.19.12.29.22.1.1.18.22.26.38.08.16.13.35.14.58l.43,6.91c.32-.48.66-1,1.01-1.56.37-.56.7-1.12.98-1.68.3-.56.55-1.09.74-1.58.19-.51.29-.95.29-1.32,0-.14-.02-.26-.05-.34-.03-.1-.07-.18-.12-.24-.03-.06-.06-.13-.1-.19-.03-.06-.05-.14-.05-.24,0-.32.1-.56.29-.72.19-.18.4-.26.62-.26.34,0,.57.12.7.36.14.22.22.52.22.89,0,.27-.05.57-.14.89-.1.3-.28.7-.55,1.2s-.65,1.13-1.13,1.9c-.46.77-1.07,1.74-1.82,2.9l-1.51,2.33-.74.22Zm9.92,0c-.54,0-1.02-.1-1.44-.31-.4-.21-.74-.5-1.03-.86-.27-.37-.48-.8-.62-1.3-.13-.51-.19-1.06-.19-1.63,0-1.02.16-1.94.48-2.76.32-.82.73-1.51,1.22-2.09.51-.58,1.07-1.02,1.68-1.32.62-.32,1.22-.48,1.8-.48.51,0,.96.1,1.34.31.38.21.7.5.96.86.27.37.47.8.6,1.3.14.5.22,1.03.22,1.61,0,1.04-.16,1.98-.48,2.81-.3.82-.7,1.51-1.2,2.09-.5.58-1.04,1.02-1.63,1.32-.59.3-1.16.46-1.7.46Zm.24-1.01c.66,0,1.18-.21,1.58-.62.4-.43.7-.95.91-1.56.22-.61.37-1.25.43-1.92.08-.69.12-1.3.12-1.82,0-.38-.02-.75-.07-1.1-.03-.37-.11-.69-.24-.96-.11-.27-.27-.49-.48-.65-.21-.18-.48-.26-.82-.26-.69,0-1.24.22-1.66.67-.42.43-.74.96-.96,1.58-.21.62-.35,1.28-.43,1.97-.06.69-.1,1.29-.1,1.8,0,.38.02.75.07,1.1.05.34.14.64.26.91.13.26.3.46.53.62.22.16.5.24.84.24Zm13.11-1.73c-.21.45-.46.83-.74,1.15-.29.32-.6.58-.94.79-.34.19-.68.34-1.03.43-.35.1-.7.14-1.03.14-1.01,0-1.78-.32-2.33-.96-.53-.64-.79-1.54-.79-2.71,0-.88.14-1.73.43-2.54.29-.83.67-1.56,1.15-2.18.48-.64,1.03-1.15,1.66-1.54.64-.38,1.3-.58,1.99-.58.59,0,1.09.1,1.49.29.4.18.6.46.6.84s-.11.66-.34.89c-.21.21-.38.31-.5.31-.19,0-.34-.06-.43-.19-.08-.14-.17-.29-.26-.43-.1-.16-.22-.3-.38-.43-.16-.14-.41-.22-.74-.22-.46,0-.87.16-1.22.48-.34.3-.62.7-.84,1.18-.22.48-.39,1.01-.5,1.58-.11.58-.17,1.13-.17,1.66,0,1.01.18,1.76.53,2.26.35.5.93.74,1.73.74.46,0,.86-.1,1.2-.29s.68-.54,1.03-1.06l.46.38Zm8.48.12c-.46.7-.96,1.28-1.49,1.73-.53.45-1.18.67-1.97.67-.58,0-1.08-.1-1.51-.31-.43-.21-.79-.5-1.08-.86-.29-.37-.5-.8-.65-1.3-.13-.5-.19-1.03-.19-1.61,0-.85.13-1.66.38-2.42.26-.78.6-1.47,1.03-2.06.45-.61.96-1.09,1.54-1.44.58-.37,1.18-.55,1.82-.55.7,0,1.29.14,1.75.43.46.27.7.78.7,1.51,0,.16-.03.38-.1.67-.06.27-.26.59-.6.96-.34.35-.86.74-1.58,1.18-.72.42-1.74.85-3.05,1.3.05,1.02.27,1.79.67,2.3.4.5.94.74,1.61.74.46,0,.9-.14,1.32-.41.43-.29.76-.58.98-.89l.41.36Zm-4.97-2.9c.42-.18.84-.37,1.27-.58.43-.21.82-.43,1.18-.67.37-.24.66-.5.89-.79.24-.29.36-.6.36-.94,0-.94-.35-1.42-1.06-1.42-.4,0-.76.14-1.08.41-.32.26-.6.59-.84,1.01-.22.42-.4.89-.53,1.42-.13.51-.19,1.03-.19,1.56Zm5.63,8.33c.54-.35.97-.68,1.27-.98.32-.29.55-.55.7-.79.16-.24.26-.46.29-.67.03-.19.05-.36.05-.5,0-.18-.08-.29-.24-.34-.14-.06-.31-.12-.5-.17-.19-.05-.37-.12-.53-.22-.14-.11-.22-.31-.22-.6,0-.61.14-1.06.43-1.37.29-.32.66-.48,1.1-.48.98,0,1.46.55,1.46,1.66s-.32,2.1-.96,2.9c-.62.82-1.48,1.52-2.57,2.11l-.29-.55Zm20.27-5.21c-.5.75-.97,1.32-1.42,1.7-.45.37-.77.55-.96.55-.13,0-.3-.06-.5-.19-.21-.11-.44-.37-.7-.77-.26-.4-.54-.98-.86-1.75-.3-.77-.63-1.79-.98-3.07l-.94,1.13-.77,4.13-1.61.58,2.52-14.02c.03-.08.05-.17.05-.26v-.26c-.03-.34-.12-.58-.26-.74-.13-.16-.36-.24-.7-.24l.1-.65,3.05-.74-2.04,10.66c1.1-1.47,2.06-2.57,2.88-3.29s1.58-1.08,2.28-1.08c.22,0,.42.08.6.24.18.14.26.38.26.7s-.06.54-.19.72c-.11.18-.3.26-.58.26-.13,0-.22-.02-.29-.05-.06-.03-.13-.06-.19-.1-.06-.05-.14-.09-.22-.12-.08-.03-.19-.05-.34-.05-.3,0-.58.05-.82.14-.22.08-.44.21-.65.38-.21.16-.42.36-.62.6-.19.22-.39.47-.6.74.19.58.42,1.19.7,1.85.27.66.54,1.26.82,1.82.27.54.54,1,.79,1.37.26.35.47.53.65.53.06,0,.14-.04.24-.12.11-.08.22-.18.31-.31.11-.13.22-.26.34-.41.11-.16.22-.3.31-.43l.34.55Zm3.42,2.4l-.74-8.52c0-.27-.07-.41-.22-.41-.08,0-.21.08-.38.24-.18.16-.36.4-.55.72l-.36-.48c.1-.26.23-.51.41-.77.18-.27.37-.51.58-.72.22-.22.45-.41.67-.55.24-.14.46-.22.65-.22.05,0,.11.02.19.07.1.05.19.12.29.22.1.1.18.22.26.38s.13.35.14.58l.43,6.91c.32-.48.66-1,1.01-1.56.37-.56.7-1.12.98-1.68.3-.56.55-1.09.74-1.58.19-.51.29-.95.29-1.32,0-.14-.02-.26-.05-.34-.03-.1-.07-.18-.12-.24-.03-.06-.06-.13-.1-.19s-.05-.14-.05-.24c0-.32.1-.56.29-.72.19-.18.4-.26.62-.26.34,0,.57.12.7.36.14.22.22.52.22.89,0,.27-.05.57-.14.89-.1.3-.28.7-.55,1.2-.27.5-.65,1.13-1.13,1.9-.46.77-1.07,1.74-1.82,2.9l-1.51,2.33-.74.22Zm13.49-2.62c-.46.7-.96,1.28-1.49,1.73s-1.18.67-1.97.67c-.58,0-1.08-.1-1.51-.31-.43-.21-.79-.5-1.08-.86s-.5-.8-.65-1.3c-.13-.5-.19-1.03-.19-1.61,0-.85.13-1.66.38-2.42.26-.78.6-1.47,1.03-2.06.45-.61.96-1.09,1.54-1.44.58-.37,1.18-.55,1.82-.55.7,0,1.29.14,1.75.43.46.27.7.78.7,1.51,0,.16-.03.38-.1.67-.06.27-.26.59-.6.96-.34.35-.86.74-1.58,1.18-.72.42-1.74.85-3.05,1.3.05,1.02.27,1.79.67,2.3.4.5.94.74,1.61.74.46,0,.9-.14,1.32-.41.43-.29.76-.58.98-.89l.41.36Zm-4.97-2.9c.42-.18.84-.37,1.27-.58.43-.21.82-.43,1.18-.67.37-.24.66-.5.89-.79.24-.29.36-.6.36-.94,0-.94-.35-1.42-1.06-1.42-.4,0-.76.14-1.08.41-.32.26-.6.59-.84,1.01-.22.42-.4.89-.53,1.42-.13.51-.19,1.03-.19,1.56Zm2.93-6.96l-2.78-2.64,1.08-.65,2.06,1.32,2.64-1.32.77.67-3.77,2.62Zm7.82,9.96c-.18.26-.4.52-.67.79-.26.27-.54.52-.84.74-.29.21-.58.38-.89.5-.3.14-.58.22-.82.22-.21,0-.39-.07-.55-.22-.14-.14-.22-.37-.22-.67v-.34l1.44-8.06h-1.44l.41-.94h1.2l.43-2.14,1.34-1.34.55.29-.65,3.19h1.34c.18,0,.34-.02.48-.05.14-.05.28-.1.41-.14l-.62,1.03-1.82.07-1.08,6.12c-.03.13-.06.29-.1.48-.02.18-.02.33-.02.46,0,.18.02.32.05.43.05.11.14.17.26.17.18,0,.41-.1.7-.31.29-.21.56-.47.82-.79l.29.5Zm5.59,0c-.18.26-.39.52-.65.79-.24.27-.5.52-.77.74-.27.21-.54.38-.82.5-.27.14-.5.22-.7.22-.26,0-.42-.09-.48-.26-.06-.18-.1-.38-.1-.6v-.19s.03-.1.05-.17l1.34-7.08s.02-.08.02-.14c0-.13-.05-.19-.14-.19-.18,0-.55.33-1.13.98l-.29-.53c.18-.26.39-.51.65-.77.26-.27.52-.51.79-.72.27-.22.54-.41.82-.55.27-.14.51-.22.72-.22.18,0,.3.06.38.19.1.13.14.36.14.7v.17s0,.11-.02.19l-1.27,6c-.03.18-.06.35-.1.53-.03.16-.05.31-.05.46,0,.27.06.41.19.41.18,0,.55-.32,1.13-.96l.26.5Zm-.5-10.39c-.77,0-1.15-.46-1.15-1.39s.42-1.34,1.25-1.34c.78,0,1.18.45,1.18,1.34s-.42,1.39-1.27,1.39Zm11.22,10.39c-.18.26-.39.52-.65.79-.24.27-.5.52-.79.74-.27.21-.54.38-.82.5-.27.14-.51.22-.72.22-.19,0-.34-.06-.43-.19-.08-.11-.12-.34-.12-.67,0-.1.02-.22.07-.36l.96-5.04c.11-.54.2-.99.26-1.34.06-.35.1-.63.1-.84,0-.42-.14-.62-.41-.62-.69,0-2.02,1.47-3.98,4.42l-.89,4.25-1.61.58,1.56-7.82c.02-.08.02-.17.02-.26.02-.1.02-.19.02-.29,0-.29-.06-.43-.17-.43-.18,0-.55.33-1.13.98l-.31-.53c.19-.26.41-.51.65-.77.24-.27.49-.51.74-.72.26-.22.51-.41.77-.55.26-.14.49-.22.7-.22.16,0,.28.06.36.19.1.11.14.31.14.6,0,.13,0,.27-.02.43s-.05.38-.1.65c-.05.26-.11.58-.19.98-.08.38-.18.87-.31,1.46,2.02-2.93,3.66-4.39,4.94-4.39.22,0,.42.13.6.38.18.26.26.66.26,1.2,0,.34-.03.7-.1,1.1-.06.4-.14.79-.22,1.18l-.65,3.46c-.06.3-.1.54-.12.72-.02.16-.02.28-.02.36,0,.21.06.31.19.31.16,0,.54-.32,1.13-.96l.26.5Zm.66,5.33c.54-.35.97-.68,1.27-.98.32-.29.55-.55.7-.79.16-.24.26-.46.29-.67.03-.19.05-.36.05-.5,0-.18-.08-.29-.24-.34-.14-.06-.31-.12-.5-.17s-.37-.12-.53-.22c-.14-.11-.22-.31-.22-.6,0-.61.14-1.06.43-1.37.29-.32.66-.48,1.1-.48.98,0,1.46.55,1.46,1.66s-.32,2.1-.96,2.9c-.62.82-1.48,1.52-2.57,2.11l-.29-.55Zm-138.96,19.79c-.5.75-.97,1.32-1.42,1.7-.45.37-.77.55-.96.55-.13,0-.3-.06-.5-.19-.21-.11-.44-.37-.7-.77-.26-.4-.54-.98-.86-1.75-.3-.77-.63-1.79-.98-3.07l-.94,1.13-.77,4.13-1.61.58,2.52-14.02c.03-.08.05-.17.05-.26v-.26c-.03-.34-.12-.58-.26-.74-.13-.16-.36-.24-.7-.24l.1-.65,3.05-.74-2.04,10.66c1.1-1.47,2.06-2.57,2.88-3.29.82-.72,1.58-1.08,2.28-1.08.22,0,.42.08.6.24.18.14.26.38.26.7s-.06.54-.19.72c-.11.18-.3.26-.58.26-.13,0-.22-.02-.29-.05l-.19-.1c-.06-.05-.14-.09-.22-.12s-.19-.05-.34-.05c-.3,0-.58.05-.82.14-.22.08-.44.21-.65.38-.21.16-.42.36-.62.6-.19.22-.39.47-.6.74.19.58.42,1.19.7,1.85.27.66.54,1.26.82,1.82.27.54.54,1,.79,1.37.26.35.47.53.65.53.06,0,.14-.04.24-.12.11-.08.22-.18.31-.31.11-.13.22-.26.34-.41.11-.16.22-.3.31-.43l.34.55Zm7.53-6.91c-.16-.16-.34-.28-.53-.36-.18-.08-.4-.12-.67-.12-.53,0-1,.23-1.42.7-.42.46-.77,1.03-1.06,1.7s-.51,1.39-.67,2.16c-.14.75-.22,1.42-.22,1.99,0,.38,0,.69.02.91.03.21.07.36.12.46.06.1.14.16.22.19.1.02.2.02.31.02.18,0,.42-.14.72-.41.3-.29.62-.64.96-1.06s.66-.87.96-1.37c.32-.51.58-.99.77-1.44l.48-3.38Zm2.28,6.79c-.16.26-.37.52-.62.79-.24.27-.5.52-.77.74-.27.21-.54.38-.82.5-.26.14-.48.22-.67.22-.16,0-.29-.06-.38-.17-.1-.1-.16-.29-.19-.58v-.24c.02-.08.03-.16.05-.24l.29-2.4c-.21.35-.47.74-.79,1.18-.3.42-.65.82-1.03,1.2-.37.37-.75.68-1.15.94-.38.24-.77.36-1.15.36-.18,0-.35-.02-.53-.07-.18-.05-.34-.16-.48-.34-.14-.19-.26-.46-.36-.82-.1-.37-.14-.86-.14-1.49,0-1.04.18-2.03.53-2.98.37-.96.84-1.8,1.42-2.52.59-.72,1.25-1.29,1.97-1.7.72-.43,1.44-.65,2.16-.65.29,0,.51.03.67.1.18.05.34.1.48.17.14.06.29.13.43.19.14.05.33.07.55.07l-.96,6.79c-.02.13-.03.27-.05.43-.02.16-.02.31-.02.46,0,.13,0,.25.02.36.03.1.09.14.17.14.16,0,.51-.32,1.06-.96l.34.5Zm1.78,2.42l1.39-7.82c.02-.1.02-.18.02-.26.02-.1.02-.19.02-.29,0-.29-.06-.43-.19-.43-.08,0-.23.09-.46.26-.22.16-.49.4-.79.72l-.26-.53c.18-.26.38-.51.6-.77.24-.27.48-.51.72-.72.26-.22.5-.41.74-.55.26-.14.5-.22.72-.22.14,0,.26.05.36.14.1.08.14.25.14.5,0,.19-.02.53-.05,1.01-.03.48-.14,1.08-.34,1.8.21-.43.43-.86.67-1.27.26-.43.52-.82.79-1.15.29-.34.57-.61.84-.82.29-.22.57-.34.84-.34s.5.09.67.26.26.44.26.79c0,.42-.08.75-.24,1.01s-.38.38-.67.38c-.16,0-.28-.02-.36-.07-.06-.05-.13-.1-.19-.17-.05-.06-.11-.12-.19-.17-.06-.05-.18-.07-.34-.07-.24,0-.54.28-.89.84-.35.54-.82,1.39-1.39,2.54l-.84,4.8-1.61.58Zm13.91-2.52c-.46.7-.96,1.28-1.49,1.73-.53.45-1.18.67-1.97.67-.58,0-1.08-.1-1.51-.31-.43-.21-.79-.5-1.08-.86-.29-.37-.5-.8-.65-1.3-.13-.5-.19-1.03-.19-1.61,0-.85.13-1.66.38-2.42.26-.78.6-1.47,1.03-2.06.45-.61.96-1.09,1.54-1.44.58-.37,1.18-.55,1.82-.55.7,0,1.29.14,1.75.43.46.27.7.78.7,1.51,0,.16-.03.38-.1.67-.06.27-.26.59-.6.96-.34.35-.86.74-1.58,1.18-.72.42-1.74.85-3.05,1.3.05,1.02.27,1.79.67,2.3.4.5.94.74,1.61.74.46,0,.9-.14,1.32-.41.43-.29.76-.58.98-.89l.41.36Zm-4.97-2.9c.42-.18.84-.37,1.27-.58.43-.21.82-.43,1.18-.67.37-.24.66-.5.89-.79.24-.29.36-.6.36-.94,0-.94-.35-1.42-1.06-1.42-.4,0-.76.14-1.08.41-.32.26-.6.59-.84,1.01-.22.42-.4.89-.53,1.42-.13.51-.19,1.03-.19,1.56Zm20.22,3c-.16.26-.37.52-.62.79-.24.27-.5.52-.77.74-.27.21-.54.38-.82.5-.27.14-.5.22-.7.22-.18,0-.3-.06-.38-.19-.08-.13-.13-.37-.14-.72,0-.11.02-.22.07-.31l.94-5.04c.13-.59.21-1.07.24-1.44.05-.37.08-.65.1-.84,0-.18-.05-.3-.14-.38-.08-.1-.17-.14-.26-.14-.62,0-1.84,1.52-3.65,4.56l-.67,3.98-1.8.55,1.3-6.29c.13-.53.22-.97.26-1.32.05-.35.07-.63.07-.84,0-.43-.13-.65-.38-.65-.67,0-1.94,1.47-3.82,4.42l-.82,4.25-1.58.58,1.44-7.82c.03-.08.05-.17.05-.26,0-.11,0-.24.02-.38,0-.22-.06-.34-.17-.34-.18,0-.53.33-1.06.98l-.29-.53c.18-.26.38-.51.6-.77.24-.27.49-.51.74-.72.26-.22.5-.41.74-.55.26-.14.48-.22.67-.22.14,0,.25.05.31.14.08.1.14.26.17.5,0,.27-.04.69-.12,1.25-.06.54-.22,1.35-.48,2.42,1.97-2.93,3.57-4.39,4.8-4.39.22,0,.4.14.53.41.13.27.19.67.19,1.2,0,.35-.03.73-.1,1.13-.06.4-.16.85-.29,1.34.93-1.36,1.76-2.38,2.5-3.05.75-.69,1.43-1.03,2.04-1.03.14,0,.31.11.5.34.21.22.31.57.31,1.03,0,.24-.03.57-.1.98-.05.42-.11.92-.19,1.51l-.65,3.46c-.03.27-.06.5-.07.67-.02.18-.02.3-.02.38,0,.22.05.34.14.34.14,0,.5-.32,1.08-.96l.26.5Zm8.32-.1c-.46.7-.96,1.28-1.49,1.73-.53.45-1.18.67-1.97.67-.58,0-1.08-.1-1.51-.31-.43-.21-.79-.5-1.08-.86s-.5-.8-.65-1.3c-.13-.5-.19-1.03-.19-1.61,0-.85.13-1.66.38-2.42.26-.78.6-1.47,1.03-2.06.45-.61.96-1.09,1.54-1.44.58-.37,1.18-.55,1.82-.55.7,0,1.29.14,1.75.43.46.27.7.78.7,1.51,0,.16-.03.38-.1.67-.06.27-.26.59-.6.96-.34.35-.86.74-1.58,1.18-.72.42-1.74.85-3.05,1.3.05,1.02.27,1.79.67,2.3.4.5.94.74,1.61.74.46,0,.9-.14,1.32-.41.43-.29.76-.58.98-.89l.41.36Zm-4.97-2.9c.42-.18.84-.37,1.27-.58.43-.21.82-.43,1.18-.67.37-.24.66-.5.89-.79.24-.29.36-.6.36-.94,0-.94-.35-1.42-1.06-1.42-.4,0-.76.14-1.08.41-.32.26-.6.59-.84,1.01-.22.42-.4.89-.53,1.42-.13.51-.19,1.03-.19,1.56Zm9.78,3c-.18.26-.39.52-.65.79-.26.27-.53.52-.82.74-.27.21-.54.38-.82.5-.27.14-.5.22-.7.22-.18,0-.32-.06-.43-.19-.1-.13-.15-.37-.17-.72,0-.08.02-.2.05-.36l2.18-12.58c.02-.08.02-.17.02-.26.02-.11.02-.2.02-.26-.05-.66-.38-.98-1.01-.98l.07-.65,2.98-.74-2.28,13.56c-.03.16-.06.33-.1.5-.02.16-.02.31-.02.46,0,.29.06.43.19.43.22,0,.61-.32,1.15-.96l.31.5Zm10.19.12c-.18.26-.38.52-.62.79-.24.26-.5.5-.77.72-.26.21-.51.38-.77.53-.26.14-.49.22-.7.22-.18,0-.3-.06-.38-.19-.08-.11-.12-.34-.12-.7,0-.11,0-.25.02-.41.03-.18.07-.39.12-.65.06-.26.14-.58.22-.96.1-.38.21-.86.34-1.42-1.04,1.47-1.94,2.57-2.71,3.29-.75.72-1.45,1.08-2.09,1.08-.24,0-.44-.14-.6-.41-.16-.29-.24-.71-.24-1.27,0-.32.02-.66.07-1.03.06-.37.14-.74.22-1.13l.65-3.46c.06-.22.1-.42.12-.58.02-.16.02-.28.02-.36,0-.32-.06-.48-.17-.48-.16,0-.54.34-1.13,1.01l-.26-.55c.16-.24.37-.5.62-.77.26-.27.52-.51.79-.72.29-.22.57-.41.84-.55s.51-.22.72-.22c.18,0,.3.05.36.14.08.1.14.27.17.53v.31c0,.06-.02.16-.05.29l-1.01,4.99c-.22,1.17-.34,1.93-.34,2.28,0,.19.04.34.12.43.08.1.18.14.31.14.34,0,.79-.36,1.37-1.08.59-.74,1.39-1.86,2.4-3.36l.91-4.25,1.58-.6-1.54,7.85c-.03.1-.05.27-.05.53,0,.3.06.46.17.46.16,0,.53-.33,1.1-.98l.29.53Zm.66,5.21c.54-.35.97-.68,1.27-.98.32-.29.55-.55.7-.79.16-.24.26-.46.29-.67.03-.19.05-.36.05-.5,0-.18-.08-.29-.24-.34-.14-.06-.31-.12-.5-.17-.19-.05-.37-.12-.53-.22-.14-.11-.22-.31-.22-.6,0-.61.14-1.06.43-1.37.29-.32.66-.48,1.1-.48.98,0,1.46.55,1.46,1.66s-.32,2.1-.96,2.9c-.62.82-1.48,1.52-2.57,2.11l-.29-.55Zm18.91-5.54c-.21.45-.46.83-.74,1.15-.29.32-.6.58-.94.79-.34.19-.68.34-1.03.43-.35.1-.7.14-1.03.14-1.01,0-1.78-.32-2.33-.96-.53-.64-.79-1.54-.79-2.71,0-.88.14-1.73.43-2.54.29-.83.67-1.56,1.15-2.18.48-.64,1.03-1.15,1.66-1.54.64-.38,1.3-.58,1.99-.58.59,0,1.09.1,1.49.29.4.18.6.46.6.84s-.11.66-.34.89c-.21.21-.38.31-.5.31-.19,0-.34-.06-.43-.19-.08-.14-.17-.29-.26-.43-.1-.16-.22-.3-.38-.43-.16-.14-.41-.22-.74-.22-.46,0-.87.16-1.22.48-.34.3-.62.7-.84,1.18-.22.48-.39,1.01-.5,1.58-.11.58-.17,1.13-.17,1.66,0,1.01.18,1.76.53,2.26.35.5.93.74,1.73.74.46,0,.86-.1,1.2-.29s.68-.54,1.03-1.06l.46.38Zm-1.75-9.74l-2.78-2.64,1.08-.65,2.06,1.32,2.64-1.32.77.67-3.77,2.62Zm6.66,12.48c-.54,0-1.02-.1-1.44-.31-.4-.21-.74-.5-1.03-.86-.27-.37-.48-.8-.62-1.3-.13-.51-.19-1.06-.19-1.63,0-1.02.16-1.94.48-2.76.32-.82.73-1.51,1.22-2.09.51-.58,1.07-1.02,1.68-1.32.62-.32,1.22-.48,1.8-.48.51,0,.96.1,1.34.31.38.21.7.5.96.86.27.37.47.8.6,1.3.14.5.22,1.03.22,1.61,0,1.04-.16,1.98-.48,2.81-.3.82-.7,1.51-1.2,2.09-.5.58-1.04,1.02-1.63,1.32-.59.3-1.16.46-1.7.46Zm.24-1.01c.66,0,1.18-.21,1.58-.62.4-.43.7-.95.91-1.56.22-.61.37-1.25.43-1.92.08-.69.12-1.3.12-1.82,0-.38-.02-.75-.07-1.1-.03-.37-.11-.69-.24-.96-.11-.27-.27-.49-.48-.65-.21-.18-.48-.26-.82-.26-.69,0-1.24.22-1.66.67-.42.43-.74.96-.96,1.58-.21.62-.35,1.28-.43,1.97-.06.69-.1,1.29-.1,1.8,0,.38.02.75.07,1.1.05.34.14.64.26.91.13.26.3.46.53.62.22.16.5.24.84.24Zm14.48-1.39c-.5.75-.97,1.32-1.42,1.7-.45.37-.77.55-.96.55-.13,0-.3-.06-.5-.19-.21-.11-.44-.37-.7-.77-.26-.4-.54-.98-.86-1.75-.3-.77-.63-1.79-.98-3.07l-.94,1.13-.77,4.13-1.61.58,2.52-14.02c.03-.08.05-.17.05-.26v-.26c-.03-.34-.12-.58-.26-.74-.13-.16-.36-.24-.7-.24l.1-.65,3.05-.74-2.04,10.66c1.1-1.47,2.06-2.57,2.88-3.29s1.58-1.08,2.28-1.08c.22,0,.42.08.6.24.18.14.26.38.26.7s-.06.54-.19.72c-.11.18-.3.26-.58.26-.13,0-.22-.02-.29-.05-.06-.03-.13-.06-.19-.1-.06-.05-.14-.09-.22-.12-.08-.03-.19-.05-.34-.05-.3,0-.58.05-.82.14-.22.08-.44.21-.65.38-.21.16-.42.36-.62.6-.19.22-.39.47-.6.74.19.58.42,1.19.7,1.85.27.66.54,1.26.82,1.82.27.54.54,1,.79,1.37.26.35.47.53.65.53.06,0,.14-.04.24-.12.11-.08.22-.18.31-.31.11-.13.22-.26.34-.41.11-.16.22-.3.31-.43l.34.55Zm4.5,2.4c-.54,0-1.02-.1-1.44-.31-.4-.21-.74-.5-1.03-.86-.27-.37-.48-.8-.62-1.3-.13-.51-.19-1.06-.19-1.63,0-1.02.16-1.94.48-2.76.32-.82.73-1.51,1.22-2.09.51-.58,1.07-1.02,1.68-1.32.62-.32,1.22-.48,1.8-.48.51,0,.96.1,1.34.31.38.21.7.5.96.86.27.37.47.8.6,1.3.14.5.22,1.03.22,1.61,0,1.04-.16,1.98-.48,2.81-.3.82-.7,1.51-1.2,2.09-.5.58-1.04,1.02-1.63,1.32s-1.16.46-1.7.46Zm.24-1.01c.66,0,1.18-.21,1.58-.62.4-.43.7-.95.91-1.56.22-.61.37-1.25.43-1.92.08-.69.12-1.3.12-1.82,0-.38-.02-.75-.07-1.1-.03-.37-.11-.69-.24-.96-.11-.27-.27-.49-.48-.65-.21-.18-.48-.26-.82-.26-.69,0-1.24.22-1.65.67-.42.43-.74.96-.96,1.58-.21.62-.35,1.28-.43,1.97-.06.69-.1,1.29-.1,1.8,0,.38.02.75.07,1.1.05.34.14.64.26.91.13.26.3.46.53.62.22.16.5.24.84.24Zm9.6-1.51c-.18.26-.39.52-.65.79-.26.27-.53.52-.82.74-.27.21-.54.38-.82.5-.27.14-.5.22-.7.22-.18,0-.32-.06-.43-.19-.1-.13-.15-.37-.17-.72,0-.08.02-.2.05-.36l2.18-12.58c.02-.08.02-.17.02-.26.02-.11.02-.2.02-.26-.05-.66-.38-.98-1.01-.98l.07-.65,2.98-.74-2.28,13.56c-.03.16-.06.33-.1.5-.02.16-.02.31-.02.46,0,.29.06.43.19.43.22,0,.61-.32,1.15-.96l.31.5Zm7.52-6.79c-.16-.16-.34-.28-.53-.36-.18-.08-.4-.12-.67-.12-.53,0-1,.23-1.42.7-.42.46-.77,1.03-1.06,1.7s-.51,1.39-.67,2.16c-.14.75-.22,1.42-.22,1.99,0,.38,0,.69.02.91.03.21.07.36.12.46.06.1.14.16.22.19.1.02.2.02.31.02.18,0,.42-.14.72-.41.3-.29.62-.64.96-1.06s.66-.87.96-1.37c.32-.51.58-.99.77-1.44l.48-3.38Zm2.28,6.79c-.16.26-.37.52-.62.79-.24.27-.5.52-.77.74-.27.21-.54.38-.82.5-.26.14-.48.22-.67.22-.16,0-.29-.06-.38-.17-.1-.1-.16-.29-.19-.58v-.24c.02-.08.03-.16.05-.24l.29-2.4c-.21.35-.47.74-.79,1.18-.3.42-.65.82-1.03,1.2-.37.37-.75.68-1.15.94-.38.24-.77.36-1.15.36-.18,0-.35-.02-.53-.07-.18-.05-.34-.16-.48-.34-.14-.19-.26-.46-.36-.82-.1-.37-.14-.86-.14-1.49,0-1.04.18-2.03.53-2.98.37-.96.84-1.8,1.42-2.52.59-.72,1.25-1.29,1.97-1.7.72-.43,1.44-.65,2.16-.65.29,0,.51.03.67.1.18.05.34.1.48.17.14.06.29.13.43.19.14.05.33.07.55.07l-.96,6.79c-.02.13-.03.27-.05.43-.02.16-.02.31-.02.46,0,.13,0,.25.02.36.03.1.09.14.17.14.16,0,.51-.32,1.06-.96l.34.5Zm-4.37-10.61c.45-.22.89-.49,1.32-.79s.86-.59,1.27-.86c.42-.27.82-.5,1.2-.7.4-.19.78-.29,1.13-.29s.58.08.7.24c.13.16.19.33.19.5,0,.37-.22.67-.65.91-.42.22-.92.42-1.51.6-.58.18-1.18.34-1.8.5-.62.14-1.13.32-1.51.53l-.34-.65Zm14.71,10.61c-.18.26-.38.52-.62.79s-.5.52-.77.74c-.26.21-.52.38-.79.5-.26.14-.48.22-.67.22-.18,0-.31-.06-.41-.17s-.15-.32-.17-.62v-.22c.02-.06.02-.14.02-.22l.31-2.3c-.21.32-.49.69-.84,1.1-.35.4-.73.78-1.15,1.15-.4.37-.82.68-1.25.94-.42.26-.82.38-1.2.38-.18,0-.35-.02-.53-.07s-.34-.17-.48-.36c-.14-.19-.26-.47-.36-.84-.1-.37-.14-.87-.14-1.51,0-1.04.16-2.02.48-2.95.34-.94.77-1.77,1.29-2.47.54-.72,1.16-1.29,1.85-1.7.69-.43,1.39-.65,2.11-.65.21,0,.39.04.55.12.18.06.35.15.53.26l.6-4.51c0-.24-.11-.42-.34-.53-.21-.13-.56-.19-1.06-.19l.1-.74,3.36-.65-1.9,13.56c-.03.24-.07.45-.12.62-.03.18-.05.32-.05.43,0,.24.06.36.17.36.16,0,.55-.33,1.18-.98l.29.5Zm-2.45-5.98c-.11-.42-.32-.74-.62-.96s-.68-.34-1.13-.34c-.53,0-.98.23-1.37.7-.37.46-.67,1.03-.91,1.7s-.42,1.39-.53,2.16c-.11.75-.17,1.42-.17,1.99,0,.37.02.66.05.86.03.21.07.37.12.48.06.11.14.18.22.22.1.02.21.02.34.02.18,0,.43-.14.77-.41.34-.29.69-.64,1.06-1.06s.71-.87,1.03-1.37c.34-.5.59-.95.77-1.37l.38-2.64Zm5.56-.02c-.03-.27-.1-.41-.22-.41-.1,0-.23.08-.41.24-.16.16-.34.4-.53.72l-.36-.48c.11-.26.26-.51.43-.77.18-.27.37-.51.58-.72.21-.22.42-.41.65-.55s.44-.22.65-.22.4.1.58.29c.18.19.28.51.31.96l.53,6.91c.32-.48.64-1,.96-1.56.34-.56.63-1.12.89-1.68.27-.56.49-1.09.65-1.58.16-.51.24-.95.24-1.32,0-.14-.02-.26-.05-.34-.03-.1-.07-.18-.12-.24-.03-.06-.06-.13-.1-.19s-.05-.14-.05-.24c0-.32.1-.56.29-.72.19-.18.4-.26.62-.26.35,0,.59.12.72.36.13.22.19.54.19.94,0,.27-.05.57-.14.89-.08.32-.25.74-.5,1.27-.24.51-.59,1.15-1.06,1.92-.45.77-1.03,1.74-1.75,2.9-.74,1.18-1.38,2.18-1.94,2.98-.54.8-1.02,1.45-1.42,1.94-.38.5-.71.85-.98,1.06-.26.21-.47.31-.65.31-.53,0-.79-.24-.79-.72,0-.27.05-.46.14-.58s.22-.21.38-.29c.18-.06.38-.14.6-.22.22-.06.46-.18.72-.36.27-.16.54-.4.82-.72.29-.32.58-.76.86-1.32l-.74-8.21Z"/>
      <path d="m576.15,80.36c-.19.48-.39.94-.6,1.37-.19.43-.41.82-.65,1.15-.22.34-.47.6-.74.79-.27.21-.57.31-.89.31-.46,0-.85-.08-1.15-.24-.3-.14-.58-.3-.84-.48-.24-.19-.49-.36-.74-.5-.26-.16-.56-.24-.91-.24-.32,0-.58.11-.77.34-.19.21-.35.47-.48.79l-.34-.41c.06-.35.18-.68.34-.98.18-.3.38-.59.62-.86l5.69-6.58c-.42.14-.86.22-1.32.22-.37,0-.72-.04-1.06-.12-.32-.1-.59-.14-.82-.14-.37,0-.71.14-1.03.41-.32.26-.66.78-1.01,1.58l-.53-.31c.06-.27.15-.58.26-.94.11-.37.26-.71.43-1.03.19-.32.42-.58.67-.79.26-.22.57-.34.94-.34.75,0,1.39.08,1.92.24.53.14,1,.22,1.42.22.35,0,.66-.06.94-.17.29-.13.52-.36.7-.7l.7.55-6.7,7.87c.11-.06.26-.1.43-.1.24,0,.48.06.72.17s.47.24.7.38c.22.13.44.25.65.36.21.11.4.17.58.17.51,0,.94-.19,1.3-.58.37-.38.74-.94,1.13-1.66l.46.24Zm7.93.96c-.46.7-.96,1.28-1.49,1.73-.53.45-1.18.67-1.97.67-.58,0-1.08-.1-1.51-.31-.43-.21-.79-.5-1.08-.86-.29-.37-.5-.8-.65-1.3-.13-.5-.19-1.03-.19-1.61,0-.85.13-1.66.38-2.42.26-.78.6-1.47,1.03-2.06.45-.61.96-1.09,1.54-1.44.58-.37,1.18-.55,1.82-.55.7,0,1.29.14,1.75.43.46.27.7.78.7,1.51,0,.16-.03.38-.1.67-.06.27-.26.59-.6.96-.34.35-.86.74-1.58,1.18-.72.42-1.74.85-3.05,1.3.05,1.02.27,1.79.67,2.3.4.5.94.74,1.61.74.46,0,.9-.14,1.32-.41.43-.29.76-.58.98-.89l.41.36Zm-4.97-2.9c.42-.18.84-.37,1.27-.58.43-.21.82-.43,1.18-.67.37-.24.66-.5.89-.79.24-.29.36-.6.36-.94,0-.94-.35-1.42-1.06-1.42-.4,0-.76.14-1.08.41-.32.26-.6.59-.84,1.01-.22.42-.4.89-.53,1.42-.13.51-.19,1.03-.19,1.56Zm20.22,3c-.16.26-.37.52-.62.79-.24.27-.5.52-.77.74-.27.21-.54.38-.82.5-.27.14-.5.22-.7.22-.18,0-.3-.06-.38-.19-.08-.13-.13-.37-.14-.72,0-.11.02-.22.07-.31l.94-5.04c.13-.59.21-1.07.24-1.44.05-.37.08-.65.1-.84,0-.18-.05-.3-.14-.38-.08-.1-.17-.14-.26-.14-.62,0-1.84,1.52-3.65,4.56l-.67,3.98-1.8.55,1.3-6.29c.13-.53.22-.97.26-1.32.05-.35.07-.63.07-.84,0-.43-.13-.65-.38-.65-.67,0-1.94,1.47-3.82,4.42l-.82,4.25-1.58.58,1.44-7.82c.03-.08.05-.17.05-.26,0-.11,0-.24.02-.38,0-.22-.06-.34-.17-.34-.18,0-.53.33-1.06.98l-.29-.53c.18-.26.38-.51.6-.77.24-.27.49-.51.74-.72.26-.22.5-.41.74-.55.26-.14.48-.22.67-.22.14,0,.25.05.31.14.08.1.14.26.17.5,0,.27-.04.69-.12,1.25-.06.54-.22,1.35-.48,2.42,1.97-2.93,3.57-4.39,4.8-4.39.22,0,.4.14.53.41s.19.67.19,1.2c0,.35-.03.73-.1,1.13-.06.4-.16.85-.29,1.34.93-1.36,1.76-2.38,2.5-3.05.75-.69,1.43-1.03,2.04-1.03.14,0,.31.11.5.34.21.22.31.57.31,1.03,0,.24-.03.57-.1.98-.05.42-.11.92-.19,1.51l-.65,3.46c-.03.27-.06.5-.07.67s-.02.3-.02.38c0,.22.05.34.14.34.14,0,.5-.32,1.08-.96l.26.5Zm5.3,0c-.18.26-.39.52-.65.79-.24.27-.5.52-.77.74-.27.21-.54.38-.82.5-.27.14-.5.22-.7.22-.26,0-.42-.09-.48-.26-.06-.18-.1-.38-.1-.6v-.19s.03-.1.05-.17l1.34-7.08s.02-.08.02-.14c0-.13-.05-.19-.14-.19-.18,0-.55.33-1.13.98l-.29-.53c.18-.26.39-.51.65-.77.26-.27.52-.51.79-.72.27-.22.54-.41.82-.55.27-.14.51-.22.72-.22.18,0,.3.06.38.19.1.13.14.36.14.7v.17s0,.11-.02.19l-1.27,6c-.03.18-.06.35-.1.53-.03.16-.05.31-.05.46,0,.27.06.41.19.41.18,0,.55-.32,1.13-.96l.26.5Zm-.5-10.39c-.77,0-1.15-.46-1.15-1.39s.42-1.34,1.25-1.34c.78,0,1.18.45,1.18,1.34s-.42,1.39-1.27,1.39Zm6.3,10.39c-.18.26-.4.52-.67.79-.26.27-.54.52-.84.74-.29.21-.58.38-.89.5-.3.14-.58.22-.82.22-.21,0-.39-.07-.55-.22-.14-.14-.22-.37-.22-.67v-.34l1.44-8.06h-1.44l.41-.94h1.2l.43-2.14,1.34-1.34.55.29-.65,3.19h1.34c.18,0,.34-.02.48-.05.14-.05.28-.1.41-.14l-.62,1.03-1.82.07-1.08,6.12c-.03.13-.06.29-.1.48-.02.18-.02.33-.02.46,0,.18.02.32.05.43.05.11.14.17.26.17.18,0,.41-.1.7-.31.29-.21.56-.47.82-.79l.29.5Zm8.06-6.79c-.16-.16-.34-.28-.53-.36-.18-.08-.4-.12-.67-.12-.53,0-1,.23-1.42.7-.42.46-.77,1.03-1.06,1.7s-.51,1.39-.67,2.16c-.14.75-.22,1.42-.22,1.99,0,.38,0,.69.02.91.03.21.07.36.12.46.06.1.14.16.22.19.1.02.2.02.31.02.18,0,.42-.14.72-.41.3-.29.62-.64.96-1.06s.66-.87.96-1.37c.32-.51.58-.99.77-1.44l.48-3.38Zm2.28,6.79c-.16.26-.37.52-.62.79-.24.27-.5.52-.77.74-.27.21-.54.38-.82.5-.26.14-.48.22-.67.22-.16,0-.29-.06-.38-.17-.1-.1-.16-.29-.19-.58v-.24c.02-.08.03-.16.05-.24l.29-2.4c-.21.35-.47.74-.79,1.18-.3.42-.65.82-1.03,1.2-.37.37-.75.68-1.15.94-.38.24-.77.36-1.15.36-.18,0-.35-.02-.53-.07-.18-.05-.34-.16-.48-.34-.14-.19-.26-.46-.36-.82-.1-.37-.14-.86-.14-1.49,0-1.04.18-2.03.53-2.98.37-.96.84-1.8,1.42-2.52.59-.72,1.25-1.29,1.97-1.7.72-.43,1.44-.65,2.16-.65.29,0,.51.03.67.1.18.05.34.1.48.17s.29.13.43.19c.14.05.33.07.55.07l-.96,6.79c-.02.13-.03.27-.05.43-.02.16-.02.31-.02.46,0,.13,0,.25.02.36.03.1.09.14.17.14.16,0,.51-.32,1.06-.96l.34.5Zm-4.37-10.61c.45-.22.89-.49,1.32-.79s.86-.59,1.27-.86c.42-.27.82-.5,1.2-.7.4-.19.78-.29,1.13-.29s.58.08.7.24c.13.16.19.33.19.5,0,.37-.22.67-.65.91-.42.22-.92.42-1.51.6-.58.18-1.18.34-1.8.5-.62.14-1.13.32-1.51.53l-.34-.65Zm20.07,10.61c-.18.26-.39.52-.65.79-.25.27-.53.52-.81.74-.27.21-.54.38-.82.5-.27.14-.5.22-.7.22-.35,0-.54-.26-.55-.77v-.29c.02-.08.03-.14.05-.17l.98-5.04c.11-.54.2-1.01.26-1.39.06-.38.1-.65.1-.79,0-.42-.14-.62-.41-.62-.35,0-.84.33-1.46.98-.62.64-1.43,1.62-2.42,2.95l-.94,4.73-1.61.58,2.54-14.02c.03-.08.05-.17.05-.26v-.26c-.03-.34-.12-.58-.26-.74-.13-.16-.36-.24-.7-.24l.1-.65,3.05-.74-2.09,10.49c2.02-2.83,3.66-4.25,4.92-4.25.24,0,.44.13.6.38.18.26.27.66.27,1.22,0,.34-.04.7-.1,1.1-.06.38-.14.77-.22,1.15l-.64,3.46c-.03.13-.06.28-.1.46-.03.16-.05.3-.05.43,0,.11,0,.22.02.34s.07.17.17.17c.18,0,.56-.32,1.13-.96l.29.5Zm4.75,2.52c-.54,0-1.02-.1-1.44-.31-.4-.21-.74-.5-1.03-.86-.27-.37-.48-.8-.62-1.3-.13-.51-.19-1.06-.19-1.63,0-1.02.16-1.94.48-2.76.32-.82.72-1.51,1.22-2.09.51-.58,1.07-1.02,1.68-1.32.62-.32,1.22-.48,1.8-.48.51,0,.96.1,1.34.31.39.21.71.5.96.86.28.37.48.8.6,1.3.15.5.22,1.03.22,1.61,0,1.04-.16,1.98-.48,2.81-.3.82-.7,1.51-1.2,2.09-.5.58-1.04,1.02-1.63,1.32-.59.3-1.16.46-1.71.46Zm.24-1.01c.66,0,1.19-.21,1.59-.62.4-.43.7-.95.91-1.56.22-.61.37-1.25.43-1.92.08-.69.12-1.3.12-1.82,0-.38-.02-.75-.07-1.1-.03-.37-.11-.69-.24-.96-.11-.27-.27-.49-.48-.65-.21-.18-.48-.26-.82-.26-.68,0-1.24.22-1.65.67-.42.43-.74.96-.96,1.58-.21.62-.35,1.28-.43,1.97-.07.69-.1,1.29-.1,1.8,0,.38.02.75.07,1.1.05.34.14.64.27.91.12.26.3.46.52.62.23.16.51.24.84.24Zm6.61.91l1.39-7.82c.02-.1.02-.18.02-.26.02-.1.03-.19.03-.29,0-.29-.07-.43-.19-.43-.08,0-.24.09-.46.26-.22.16-.49.4-.79.72l-.27-.53c.18-.26.38-.51.6-.77.24-.27.48-.51.72-.72.26-.22.51-.41.75-.55.25-.14.49-.22.72-.22.14,0,.26.05.36.14.09.08.14.25.14.5,0,.19-.01.53-.05,1.01-.03.48-.14,1.08-.33,1.8.21-.43.43-.86.67-1.27.26-.43.52-.82.79-1.15.29-.34.57-.61.84-.82.29-.22.57-.34.84-.34s.5.09.67.26c.18.18.27.44.27.79,0,.42-.08.75-.24,1.01-.16.26-.39.38-.67.38-.16,0-.28-.02-.36-.07-.07-.05-.13-.1-.2-.17-.04-.06-.11-.12-.19-.17-.06-.05-.17-.07-.33-.07-.24,0-.54.28-.89.84-.35.54-.82,1.39-1.39,2.54l-.84,4.8-1.61.58Zm3.29-12.38l-2.79-2.64,1.08-.65,2.07,1.32,2.64-1.32.76.67-3.76,2.62Zm11.96,10.08c-.49.75-.96,1.32-1.41,1.7-.45.37-.77.55-.96.55-.13,0-.3-.06-.51-.19-.2-.11-.44-.37-.69-.77-.26-.4-.55-.98-.87-1.75-.3-.77-.63-1.79-.98-3.07l-.94,1.13-.76,4.13-1.61.58,2.52-14.02c.03-.08.05-.17.05-.26v-.26c-.04-.34-.12-.58-.27-.74-.13-.16-.36-.24-.69-.24l.09-.65,3.05-.74-2.04,10.66c1.1-1.47,2.06-2.57,2.88-3.29s1.58-1.08,2.28-1.08c.22,0,.42.08.6.24.18.14.26.38.26.7s-.06.54-.19.72c-.11.18-.3.26-.57.26-.13,0-.23-.02-.29-.05-.07-.03-.13-.06-.19-.1-.07-.05-.14-.09-.22-.12-.08-.03-.19-.05-.34-.05-.3,0-.57.05-.81.14-.23.08-.44.21-.65.38-.21.16-.42.36-.62.6-.2.22-.4.47-.6.74.19.58.42,1.19.69,1.85.27.66.55,1.26.82,1.82.27.54.53,1,.79,1.37.26.35.47.53.65.53.06,0,.14-.04.24-.12.11-.08.21-.18.31-.31.11-.13.22-.26.34-.41.11-.16.21-.3.31-.43l.33.55Zm7.53-6.91c-.16-.16-.34-.28-.53-.36-.17-.08-.4-.12-.67-.12-.53,0-1,.23-1.42.7-.41.46-.76,1.03-1.05,1.7s-.51,1.39-.67,2.16c-.15.75-.22,1.42-.22,1.99,0,.38.01.69.02.91.04.21.08.36.12.46.07.1.14.16.22.19.1.02.2.02.31.02.18,0,.42-.14.72-.41.31-.29.63-.64.96-1.06.34-.42.66-.87.96-1.37.32-.51.58-.99.77-1.44l.48-3.38Zm2.28,6.79c-.16.26-.37.52-.62.79-.24.27-.5.52-.77.74-.27.21-.55.38-.82.5-.25.14-.48.22-.67.22-.16,0-.29-.06-.38-.17-.1-.1-.16-.29-.2-.58v-.24c.02-.08.04-.16.05-.24l.29-2.4c-.21.35-.47.74-.79,1.18-.31.42-.65.82-1.03,1.2-.37.37-.76.68-1.16.94-.38.24-.76.36-1.15.36-.17,0-.35-.02-.53-.07-.17-.05-.33-.16-.48-.34-.14-.19-.26-.46-.36-.82-.09-.37-.14-.86-.14-1.49,0-1.04.18-2.03.53-2.98.37-.96.84-1.8,1.41-2.52.6-.72,1.25-1.29,1.97-1.7.72-.43,1.44-.65,2.16-.65.29,0,.51.03.67.1.18.05.34.1.48.17.15.06.29.13.44.19.14.05.32.07.55.07l-.96,6.79c-.02.13-.03.27-.05.43-.02.16-.02.31-.02.46,0,.13,0,.25.02.36.03.1.09.14.17.14.16,0,.51-.32,1.05-.96l.34.5Zm-4.37-10.61c.45-.22.89-.49,1.32-.79.43-.3.86-.59,1.27-.86.42-.27.82-.5,1.2-.7.4-.19.78-.29,1.13-.29s.59.08.7.24c.13.16.19.33.19.5,0,.37-.22.67-.65.91-.41.22-.92.42-1.51.6-.58.18-1.18.34-1.8.5-.62.14-1.13.32-1.51.53l-.34-.65Zm18.46,10.39c-.21.45-.45.83-.74,1.15-.29.32-.6.58-.94.79-.33.19-.68.34-1.03.43-.35.1-.7.14-1.03.14-1.01,0-1.79-.32-2.33-.96-.53-.64-.79-1.54-.79-2.71,0-.88.14-1.73.43-2.54.29-.83.67-1.56,1.15-2.18.48-.64,1.03-1.15,1.66-1.54.64-.38,1.3-.58,1.99-.58.59,0,1.09.1,1.49.29.4.18.6.46.6.84s-.11.66-.34.89c-.21.21-.37.31-.5.31-.19,0-.34-.06-.43-.19-.08-.14-.17-.29-.27-.43-.09-.16-.22-.3-.38-.43-.16-.14-.41-.22-.75-.22-.46,0-.87.16-1.22.48-.34.3-.62.7-.84,1.18-.22.48-.39,1.01-.5,1.58-.12.58-.17,1.13-.17,1.66,0,1.01.17,1.76.53,2.26.35.5.92.74,1.72.74.47,0,.87-.1,1.2-.29.34-.19.68-.54,1.04-1.06l.45.38Zm10.07.22c-.18.26-.39.52-.65.79-.25.27-.53.52-.81.74-.28.21-.55.38-.82.5-.27.14-.5.22-.7.22-.35,0-.53-.26-.55-.77v-.29c.02-.08.03-.14.05-.17l.98-5.04c.12-.54.2-1.01.27-1.39.06-.38.09-.65.09-.79,0-.42-.13-.62-.4-.62-.36,0-.84.33-1.47.98-.62.64-1.43,1.62-2.42,2.95l-.94,4.73-1.61.58,2.55-14.02c.03-.08.05-.17.05-.26v-.26c-.04-.34-.12-.58-.27-.74-.13-.16-.36-.24-.69-.24l.09-.65,3.05-.74-2.09,10.49c2.02-2.83,3.66-4.25,4.92-4.25.24,0,.44.13.6.38.18.26.27.66.27,1.22,0,.34-.04.7-.1,1.1-.06.38-.14.77-.22,1.15l-.64,3.46c-.04.13-.07.28-.1.46-.03.16-.05.3-.05.43,0,.11.01.22.03.34.01.11.07.17.16.17.18,0,.56-.32,1.13-.96l.29.5Zm10.44.12c-.17.26-.38.52-.62.79-.24.26-.5.5-.77.72-.26.21-.51.38-.77.53-.25.14-.49.22-.69.22-.18,0-.31-.06-.39-.19-.08-.11-.12-.34-.12-.7,0-.11,0-.25.03-.41.03-.18.07-.39.12-.65.06-.26.13-.58.21-.96.1-.38.21-.86.34-1.42-1.04,1.47-1.95,2.57-2.71,3.29s-1.45,1.08-2.09,1.08c-.24,0-.44-.14-.6-.41-.16-.29-.24-.71-.24-1.27,0-.32.02-.66.07-1.03.06-.37.14-.74.22-1.13l.64-3.46c.07-.22.11-.42.12-.58.02-.16.03-.28.03-.36,0-.32-.06-.48-.17-.48-.16,0-.54.34-1.13,1.01l-.26-.55c.16-.24.37-.5.62-.77.26-.27.52-.51.79-.72.29-.22.57-.41.84-.55.28-.14.52-.22.72-.22.18,0,.3.05.36.14.08.1.14.27.17.53v.31c0,.06-.01.16-.05.29l-1,4.99c-.23,1.17-.34,1.93-.34,2.28,0,.19.04.34.12.43.08.1.18.14.31.14.34,0,.79-.36,1.37-1.08.59-.74,1.39-1.86,2.4-3.36l.91-4.25,1.59-.6-1.54,7.85c-.03.1-.05.27-.05.53,0,.3.06.46.17.46.16,0,.53-.33,1.1-.98l.29.53Zm5.78-.12c-.18.26-.4.52-.68.79-.25.27-.53.52-.84.74-.28.21-.58.38-.88.5-.31.14-.58.22-.82.22-.21,0-.39-.07-.55-.22-.15-.14-.22-.37-.22-.67v-.34l1.44-8.06h-1.44l.41-.94h1.2l.43-2.14,1.35-1.34.55.29-.65,3.19h1.34c.18,0,.34-.02.48-.05.15-.05.28-.1.41-.14l-.62,1.03-1.83.07-1.08,6.12c-.03.13-.06.29-.09.48-.02.18-.03.33-.03.46,0,.18.02.32.05.43.05.11.14.17.27.17.17,0,.4-.1.69-.31.29-.21.56-.47.82-.79l.29.5Zm1.77-8.45c.55-.35.97-.67,1.27-.96.32-.3.56-.58.72-.82.16-.26.26-.47.29-.65.03-.19.05-.36.05-.5,0-.19-.08-.31-.24-.36-.16-.06-.34-.12-.53-.17-.17-.05-.34-.13-.5-.24-.16-.11-.24-.32-.24-.62,0-.59.14-1.04.43-1.34.3-.3.68-.46,1.13-.46.96,0,1.44.54,1.44,1.61,0,1.14-.31,2.12-.94,2.95-.62.82-1.49,1.52-2.59,2.11l-.29-.55Z"/>
      <path d="m6.82,125.65c0-.18-.07-.26-.22-.26h-1.15l.53-.94h.7c.16,0,.28-.22.36-.65.11-.85.33-1.63.65-2.35.32-.72.69-1.34,1.1-1.85.43-.53.88-.94,1.34-1.22.48-.3.93-.46,1.35-.46.45,0,.79.12,1.03.36.24.22.36.5.36.82,0,.29-.06.55-.19.79-.13.24-.33.36-.6.36-.18,0-.3-.06-.38-.17-.06-.11-.13-.23-.19-.36-.06-.14-.14-.27-.24-.38-.08-.11-.22-.17-.41-.17-.37,0-.69.2-.96.6-.26.38-.48.85-.67,1.39-.18.53-.31,1.06-.41,1.61-.08.54-.12.96-.12,1.25s.09.43.26.43h1.9l-.22.94h-1.82c-.19,0-.31.09-.36.26l-1.1,7.51c-.1.66-.26,1.32-.48,1.99-.21.67-.49,1.28-.84,1.82-.35.54-.77.98-1.25,1.32-.46.35-.99.53-1.58.53-.56,0-.98-.11-1.27-.34-.3-.21-.46-.54-.46-.98,0-.27.06-.5.19-.7.11-.19.31-.29.6-.29.18,0,.31.06.41.17.1.11.18.23.26.36.08.14.18.27.31.38.13.11.31.17.55.17.29,0,.53-.11.72-.34.21-.21.38-.51.53-.91.14-.38.26-.85.36-1.39.11-.54.22-1.14.31-1.8l1.11-7.51Zm7.79,6.77c-.18.26-.39.52-.65.79-.24.27-.5.52-.77.74-.27.21-.54.38-.82.5-.27.14-.5.22-.7.22-.26,0-.42-.09-.48-.26-.06-.18-.1-.38-.1-.6v-.19s.03-.1.05-.17l1.34-7.08s.02-.08.02-.14c0-.13-.05-.19-.14-.19-.18,0-.55.33-1.13.98l-.29-.53c.18-.26.39-.51.65-.77.26-.27.52-.51.79-.72.27-.22.54-.41.82-.55.27-.14.51-.22.72-.22.18,0,.3.06.38.19.1.13.14.36.14.7v.17s0,.11-.02.19l-1.27,6c-.03.18-.06.35-.1.53-.03.16-.05.31-.05.46,0,.27.06.41.19.41.18,0,.55-.32,1.13-.96l.26.5Zm-.5-10.39c-.77,0-1.15-.46-1.15-1.39s.42-1.34,1.25-1.34c.78,0,1.18.45,1.18,1.34s-.42,1.39-1.27,1.39Zm5.34,10.39c-.18.26-.39.52-.65.79-.26.27-.53.52-.82.74-.27.21-.54.38-.82.5-.27.14-.5.22-.7.22-.18,0-.32-.06-.43-.19-.1-.13-.15-.37-.17-.72,0-.08.02-.2.05-.36l2.18-12.58c.02-.08.02-.17.02-.26.02-.11.02-.2.02-.26-.05-.66-.38-.98-1.01-.98l.07-.65,2.98-.74-2.28,13.56c-.03.16-.06.33-.1.5-.02.16-.02.31-.02.46,0,.29.06.43.19.43.22,0,.61-.32,1.15-.96l.31.5Zm5.51,0c-.18.26-.4.52-.67.79-.26.27-.54.52-.84.74-.29.21-.58.38-.89.5-.3.14-.58.22-.82.22-.21,0-.39-.07-.55-.22-.14-.14-.22-.37-.22-.67v-.34l1.44-8.06h-1.44l.41-.94h1.2l.43-2.14,1.34-1.34.55.29-.65,3.19h1.34c.18,0,.34-.02.48-.05.14-.05.28-.1.41-.14l-.62,1.03-1.82.07-1.08,6.12c-.03.13-.06.29-.1.48-.02.18-.02.33-.02.46,0,.18.02.32.05.43.05.11.14.17.26.17.18,0,.41-.1.7-.31.29-.21.56-.47.82-.79l.29.5Zm2.09,2.42l1.39-7.82c.02-.1.02-.18.02-.26.02-.1.02-.19.02-.29,0-.29-.06-.43-.19-.43-.08,0-.23.09-.46.26-.22.16-.49.4-.79.72l-.26-.53c.18-.26.38-.51.6-.77.24-.27.48-.51.72-.72.26-.22.5-.41.74-.55.26-.14.5-.22.72-.22.14,0,.26.05.36.14.1.08.14.25.14.5,0,.19-.02.53-.05,1.01-.03.48-.14,1.08-.34,1.8.21-.43.43-.86.67-1.27.26-.43.52-.82.79-1.15.29-.34.57-.61.84-.82.29-.22.57-.34.84-.34s.5.09.67.26c.18.18.26.44.26.79,0,.42-.08.75-.24,1.01s-.38.38-.67.38c-.16,0-.28-.02-.36-.07-.06-.05-.13-.1-.19-.17-.05-.06-.11-.12-.19-.17-.06-.05-.18-.07-.34-.07-.24,0-.54.28-.89.84-.35.54-.82,1.39-1.39,2.54l-.84,4.8-1.61.58Zm10.34.1c-.54,0-1.02-.1-1.44-.31-.4-.21-.74-.5-1.03-.86-.27-.37-.48-.8-.62-1.3-.13-.51-.19-1.06-.19-1.63,0-1.02.16-1.94.48-2.76s.73-1.51,1.22-2.09c.51-.58,1.07-1.02,1.68-1.32.62-.32,1.22-.48,1.8-.48.51,0,.96.1,1.34.31.38.21.7.5.96.86.27.37.47.8.6,1.3.14.5.22,1.03.22,1.61,0,1.04-.16,1.98-.48,2.81-.3.82-.7,1.51-1.2,2.09-.5.58-1.04,1.02-1.63,1.32-.59.3-1.16.46-1.7.46Zm.24-1.01c.66,0,1.18-.21,1.58-.62.4-.43.7-.95.91-1.56.22-.61.37-1.25.43-1.92.08-.69.12-1.3.12-1.82,0-.38-.02-.75-.07-1.1-.03-.37-.11-.69-.24-.96-.11-.27-.27-.49-.48-.65-.21-.18-.48-.26-.82-.26-.69,0-1.24.22-1.66.67-.42.43-.74.96-.96,1.58-.21.62-.35,1.28-.43,1.97-.06.69-.1,1.29-.1,1.8,0,.38.02.75.07,1.1.05.34.14.64.26.91.13.26.3.46.53.62s.5.24.84.24Zm8.48,1.01l-.74-8.52c0-.27-.07-.41-.22-.41-.08,0-.21.08-.38.24s-.36.4-.55.72l-.36-.48c.1-.26.23-.51.41-.77.18-.27.37-.51.58-.72.22-.22.45-.41.67-.55.24-.14.46-.22.65-.22.05,0,.11.02.19.07.1.05.19.12.29.22.1.1.18.22.26.38.08.16.13.35.14.58l.43,6.91c.32-.48.66-1,1.01-1.56.37-.56.7-1.12.98-1.68.3-.56.55-1.09.74-1.58.19-.51.29-.95.29-1.32,0-.14-.02-.26-.05-.34-.03-.1-.07-.18-.12-.24-.03-.06-.06-.13-.1-.19-.03-.06-.05-.14-.05-.24,0-.32.1-.56.29-.72.19-.18.4-.26.62-.26.34,0,.57.12.7.36.14.22.22.52.22.89,0,.27-.05.57-.14.89-.1.3-.28.7-.55,1.2-.27.5-.65,1.13-1.13,1.9-.46.77-1.07,1.74-1.82,2.9l-1.51,2.33-.74.22Zm12.94-9.31c-.16-.16-.34-.28-.53-.36-.18-.08-.4-.12-.67-.12-.53,0-1,.23-1.42.7-.42.46-.77,1.03-1.06,1.7-.29.67-.51,1.39-.67,2.16-.14.75-.22,1.42-.22,1.99,0,.38,0,.69.02.91.03.21.07.36.12.46.06.1.14.16.22.19.1.02.2.02.31.02.18,0,.42-.14.72-.41.3-.29.62-.64.96-1.06.34-.42.66-.87.96-1.37.32-.51.58-.99.77-1.44l.48-3.38Zm2.28,6.79c-.16.26-.37.52-.62.79-.24.27-.5.52-.77.74-.27.21-.54.38-.82.5-.26.14-.48.22-.67.22-.16,0-.29-.06-.38-.17-.1-.1-.16-.29-.19-.58v-.24c.02-.08.03-.16.05-.24l.29-2.4c-.21.35-.47.74-.79,1.18-.3.42-.65.82-1.03,1.2-.37.37-.75.68-1.15.94-.38.24-.77.36-1.15.36-.18,0-.35-.02-.53-.07-.18-.05-.34-.16-.48-.34-.14-.19-.26-.46-.36-.82-.1-.37-.14-.86-.14-1.49,0-1.04.18-2.03.53-2.98.37-.96.84-1.8,1.42-2.52.59-.72,1.25-1.29,1.97-1.7.72-.43,1.44-.65,2.16-.65.29,0,.51.03.67.1.18.05.34.1.48.17.14.06.29.13.43.19.14.05.33.07.55.07l-.96,6.79c-.02.13-.03.27-.05.43s-.02.31-.02.46c0,.13,0,.25.02.36.03.1.09.14.17.14.16,0,.51-.32,1.06-.96l.34.5Zm10.65,0c-.18.26-.39.52-.65.79-.24.27-.5.52-.79.74-.27.21-.54.38-.82.5-.27.14-.51.22-.72.22-.19,0-.34-.06-.43-.19-.08-.11-.12-.34-.12-.67,0-.1.02-.22.07-.36l.96-5.04c.11-.54.2-.99.26-1.34s.1-.63.1-.84c0-.42-.14-.62-.41-.62-.69,0-2.02,1.47-3.98,4.42l-.89,4.25-1.61.58,1.56-7.82c.02-.08.02-.17.02-.26.02-.1.02-.19.02-.29,0-.29-.06-.43-.17-.43-.18,0-.55.33-1.13.98l-.31-.53c.19-.26.41-.51.65-.77.24-.27.49-.51.74-.72.26-.22.51-.41.77-.55.26-.14.49-.22.7-.22.16,0,.28.06.36.19.1.11.14.31.14.6,0,.13,0,.27-.02.43s-.05.38-.1.65c-.05.26-.11.58-.19.98-.08.38-.18.87-.31,1.46,2.02-2.93,3.66-4.39,4.94-4.39.22,0,.42.13.6.38.18.26.26.66.26,1.2,0,.34-.03.7-.1,1.1s-.14.79-.22,1.18l-.65,3.46c-.06.3-.1.54-.12.72-.02.16-.02.28-.02.36,0,.21.06.31.19.31.16,0,.54-.32,1.13-.96l.26.5Zm7.78-6.79c-.16-.16-.34-.28-.53-.36-.18-.08-.4-.12-.67-.12-.53,0-1,.23-1.42.7-.42.46-.77,1.03-1.06,1.7-.29.67-.51,1.39-.67,2.16-.14.75-.22,1.42-.22,1.99,0,.38,0,.69.02.91.03.21.07.36.12.46.06.1.14.16.22.19.1.02.2.02.31.02.18,0,.42-.14.72-.41.3-.29.62-.64.96-1.06.34-.42.66-.87.96-1.37.32-.51.58-.99.77-1.44l.48-3.38Zm2.28,6.79c-.16.26-.37.52-.62.79-.24.27-.5.52-.77.74-.27.21-.54.38-.82.5-.26.14-.48.22-.67.22-.16,0-.29-.06-.38-.17-.1-.1-.16-.29-.19-.58v-.24c.02-.08.03-.16.05-.24l.29-2.4c-.21.35-.47.74-.79,1.18-.3.42-.65.82-1.03,1.2-.37.37-.75.68-1.15.94-.38.24-.77.36-1.15.36-.18,0-.35-.02-.53-.07-.18-.05-.34-.16-.48-.34-.14-.19-.26-.46-.36-.82-.1-.37-.14-.86-.14-1.49,0-1.04.18-2.03.53-2.98.37-.96.84-1.8,1.42-2.52.59-.72,1.25-1.29,1.97-1.7.72-.43,1.44-.65,2.16-.65.29,0,.51.03.67.1.18.05.34.1.48.17.14.06.29.13.43.19.14.05.33.07.55.07l-.96,6.79c-.02.13-.03.27-.05.43-.02.16-.02.31-.02.46,0,.13,0,.25.02.36.03.1.09.14.17.14.16,0,.51-.32,1.06-.96l.34.5Zm-4.37-10.61c.45-.22.89-.49,1.32-.79.43-.3.86-.59,1.27-.86.42-.27.82-.5,1.2-.7.4-.19.78-.29,1.13-.29s.58.08.7.24c.13.16.19.33.19.5,0,.37-.22.67-.65.91-.42.22-.92.42-1.51.6-.58.18-1.18.34-1.8.5-.62.14-1.13.32-1.51.53l-.34-.65Zm19.83,10.73c-.5.75-.97,1.32-1.42,1.7-.45.37-.77.55-.96.55-.13,0-.3-.06-.5-.19-.21-.11-.44-.37-.7-.77-.26-.4-.54-.98-.86-1.75-.3-.77-.63-1.79-.98-3.07l-.94,1.13-.77,4.13-1.61.58,2.52-14.02c.03-.08.05-.17.05-.26v-.26c-.03-.34-.12-.58-.26-.74-.13-.16-.36-.24-.7-.24l.1-.65,3.05-.74-2.04,10.66c1.1-1.47,2.06-2.57,2.88-3.29s1.58-1.08,2.28-1.08c.22,0,.42.08.6.24.18.14.26.38.26.7s-.06.54-.19.72c-.11.18-.3.26-.58.26-.13,0-.22-.02-.29-.05-.06-.03-.13-.06-.19-.1-.06-.05-.14-.09-.22-.12-.08-.03-.19-.05-.34-.05-.3,0-.58.05-.82.14-.22.08-.44.21-.65.38-.21.16-.42.36-.62.6-.19.22-.39.47-.6.74.19.58.42,1.19.7,1.85.27.66.54,1.26.82,1.82.27.54.54,1,.79,1.37.26.35.47.53.65.53.06,0,.14-.04.24-.12.11-.08.22-.18.31-.31.11-.13.22-.26.34-.41.11-.16.22-.3.31-.43l.34.55Zm7.52-6.91c-.16-.16-.34-.28-.53-.36-.18-.08-.4-.12-.67-.12-.53,0-1,.23-1.42.7-.42.46-.77,1.03-1.06,1.7-.29.67-.51,1.39-.67,2.16-.14.75-.22,1.42-.22,1.99,0,.38,0,.69.02.91.03.21.07.36.12.46.06.1.14.16.22.19.1.02.2.02.31.02.18,0,.42-.14.72-.41.3-.29.62-.64.96-1.06.34-.42.66-.87.96-1.37.32-.51.58-.99.77-1.44l.48-3.38Zm2.28,6.79c-.16.26-.37.52-.62.79-.24.27-.5.52-.77.74-.27.21-.54.38-.82.5-.26.14-.48.22-.67.22-.16,0-.29-.06-.38-.17-.1-.1-.16-.29-.19-.58v-.24c.02-.08.03-.16.05-.24l.29-2.4c-.21.35-.47.74-.79,1.18-.3.42-.65.82-1.03,1.2-.37.37-.75.68-1.15.94-.38.24-.77.36-1.15.36-.18,0-.35-.02-.53-.07-.18-.05-.34-.16-.48-.34-.14-.19-.26-.46-.36-.82-.1-.37-.14-.86-.14-1.49,0-1.04.18-2.03.53-2.98.37-.96.84-1.8,1.42-2.52.59-.72,1.25-1.29,1.97-1.7.72-.43,1.44-.65,2.16-.65.29,0,.51.03.67.1.18.05.34.1.48.17.14.06.29.13.43.19.14.05.33.07.55.07l-.96,6.79c-.02.13-.03.27-.05.43s-.02.31-.02.46c0,.13,0,.25.02.36.03.1.09.14.17.14.16,0,.51-.32,1.06-.96l.34.5Zm-4.37-10.61c.45-.22.89-.49,1.32-.79s.86-.59,1.27-.86c.42-.27.82-.5,1.2-.7.4-.19.78-.29,1.13-.29s.58.08.7.24c.13.16.19.33.19.5,0,.37-.22.67-.65.91-.42.22-.92.42-1.51.6-.58.18-1.18.34-1.8.5-.62.14-1.13.32-1.51.53l-.34-.65Zm8.02,13.13l-.74-8.52c0-.27-.07-.41-.22-.41-.08,0-.21.08-.38.24-.18.16-.36.4-.55.72l-.36-.48c.1-.26.23-.51.41-.77.18-.27.37-.51.58-.72.22-.22.45-.41.67-.55.24-.14.46-.22.65-.22.05,0,.11.02.19.07.1.05.19.12.29.22.1.1.18.22.26.38.08.16.13.35.14.58l.43,6.91c.32-.48.66-1,1.01-1.56.37-.56.7-1.12.98-1.68.3-.56.55-1.09.74-1.58.19-.51.29-.95.29-1.32,0-.14-.02-.26-.05-.34-.03-.1-.07-.18-.12-.24-.03-.06-.06-.13-.1-.19-.03-.06-.05-.14-.05-.24,0-.32.1-.56.29-.72.19-.18.4-.26.62-.26.34,0,.57.12.7.36.14.22.22.52.22.89,0,.27-.05.57-.14.89-.1.3-.28.7-.55,1.2-.27.5-.65,1.13-1.13,1.9-.46.77-1.07,1.74-1.82,2.9l-1.51,2.33-.74.22Zm12.94-9.31c-.16-.16-.34-.28-.53-.36-.18-.08-.4-.12-.67-.12-.53,0-1,.23-1.42.7-.42.46-.77,1.03-1.06,1.7-.29.67-.51,1.39-.67,2.16-.14.75-.22,1.42-.22,1.99,0,.38,0,.69.02.91.03.21.07.36.12.46.06.1.14.16.22.19.1.02.2.02.31.02.18,0,.42-.14.72-.41.3-.29.62-.64.96-1.06.34-.42.66-.87.96-1.37.32-.51.58-.99.77-1.44l.48-3.38Zm2.28,6.79c-.16.26-.37.52-.62.79-.24.27-.5.52-.77.74-.27.21-.54.38-.82.5-.26.14-.48.22-.67.22-.16,0-.29-.06-.38-.17-.1-.1-.16-.29-.19-.58v-.24c.02-.08.03-.16.05-.24l.29-2.4c-.21.35-.47.74-.79,1.18-.3.42-.65.82-1.03,1.2s-.75.68-1.15.94c-.38.24-.77.36-1.15.36-.18,0-.35-.02-.53-.07-.18-.05-.34-.16-.48-.34-.14-.19-.26-.46-.36-.82-.1-.37-.14-.86-.14-1.49,0-1.04.18-2.03.53-2.98.37-.96.84-1.8,1.42-2.52.59-.72,1.25-1.29,1.97-1.7.72-.43,1.44-.65,2.16-.65.29,0,.51.03.67.1.18.05.34.1.48.17.14.06.29.13.43.19.14.05.33.07.55.07l-.96,6.79c-.02.13-.03.27-.05.43-.02.16-.02.31-.02.46,0,.13,0,.25.02.36.03.1.09.14.17.14.16,0,.51-.32,1.06-.96l.34.5Z"/>
      <path d="m682.55,127.32c-.46.7-.96,1.28-1.49,1.73-.52.45-1.18.67-1.96.67-.58,0-1.08-.1-1.52-.31-.43-.21-.79-.5-1.08-.86-.28-.37-.5-.8-.64-1.3-.13-.5-.2-1.03-.2-1.61,0-.85.13-1.66.39-2.42.25-.78.6-1.47,1.03-2.06.45-.61.96-1.09,1.54-1.44.57-.37,1.18-.55,1.82-.55.7,0,1.29.14,1.75.43.47.27.7.78.7,1.51,0,.16-.03.38-.1.67-.06.27-.26.59-.6.96-.33.35-.86.74-1.58,1.18-.72.42-1.74.85-3.05,1.3.05,1.02.27,1.79.67,2.3.4.5.94.74,1.61.74.46,0,.9-.14,1.32-.41.43-.29.76-.58.98-.89l.41.36Zm-4.97-2.9c.42-.18.84-.37,1.28-.58.43-.21.82-.43,1.17-.67.37-.24.67-.5.89-.79.24-.29.36-.6.36-.94,0-.94-.35-1.42-1.06-1.42-.4,0-.76.14-1.08.41-.32.26-.6.59-.84,1.01-.22.42-.4.89-.52,1.42-.13.51-.2,1.03-.2,1.56Zm11.66,1.92c0,.48-.12.93-.36,1.34-.24.4-.54.75-.91,1.06-.35.3-.75.54-1.18.72-.41.18-.81.26-1.2.26s-.72-.06-1.01-.19c-.27-.11-.49-.25-.67-.41-.17-.18-.3-.36-.38-.55-.08-.19-.12-.35-.12-.48,0-.38.1-.66.31-.84.22-.18.39-.26.5-.26.23,0,.38.09.46.26s.17.37.26.58c.1.21.24.4.44.58.2.18.53.26.98.26.42,0,.75-.12,1.01-.36.27-.24.41-.62.41-1.15,0-.34-.08-.62-.24-.86-.15-.26-.34-.48-.58-.67-.22-.21-.47-.41-.74-.6-.28-.19-.53-.4-.77-.62-.23-.24-.42-.5-.58-.79-.14-.29-.21-.64-.21-1.06,0-.48.09-.92.28-1.32.21-.4.48-.75.8-1.06.33-.3.71-.54,1.12-.7.44-.18.88-.26,1.35-.26.32,0,.57.06.77.17.2.1.36.22.48.38.11.14.18.3.21.46.05.16.07.29.07.38,0,.21-.06.42-.19.62-.13.21-.28.31-.45.31-.24,0-.42-.06-.53-.19-.11-.14-.22-.29-.31-.43-.08-.16-.2-.3-.34-.43-.13-.14-.34-.22-.65-.22-.11,0-.24.02-.38.05-.15.03-.28.1-.41.19-.11.1-.21.23-.29.41-.08.16-.12.37-.12.62,0,.46.16.87.48,1.22.34.34.71.67,1.11,1.01s.76.7,1.08,1.1c.33.4.5.89.5,1.46Zm.27,7.49l.14-.65c.64,0,1.01-.25,1.11-.74l2.04-11.52c-.23.05-.48.16-.77.34-.29.16-.63.37-1.03.62l-.17-.72c.4-.27.76-.49,1.08-.65.32-.18.61-.33.86-.46l.27-1.18,2.01-1.27-.48,1.9c.51-.21,1.19-.31,2.02-.31.45,0,.85.06,1.22.19.37.11.68.3.94.58.27.27.48.64.62,1.1.15.45.22,1.02.22,1.7,0,.9-.15,1.77-.43,2.62-.28.83-.67,1.58-1.18,2.23-.51.64-1.12,1.16-1.82,1.56-.71.38-1.48.58-2.33.58-.16,0-.32-.02-.48-.07-.16-.03-.28-.09-.36-.17l-.41,2.21c-.06.21-.1.41-.1.6,0,.34.09.56.27.67.19.11.59.18,1.2.19l-.12.65h-4.32Zm3.72-5.69c.09.1.19.22.29.38.11.16.34.24.69.24.5,0,.96-.18,1.39-.53.45-.35.84-.81,1.16-1.37.32-.56.57-1.18.76-1.87.2-.7.29-1.4.29-2.09,0-.48-.06-.89-.19-1.22-.11-.34-.27-.61-.48-.82-.19-.21-.42-.35-.7-.43-.25-.1-.52-.14-.81-.14-.18,0-.36,0-.55.02-.2.02-.4.05-.63.1l-1.22,7.73Zm8.04,1.7l1.39-7.82c.01-.1.02-.18.02-.26.02-.1.03-.19.03-.29,0-.29-.07-.43-.2-.43-.08,0-.23.09-.45.26-.23.16-.49.4-.79.72l-.27-.53c.18-.26.38-.51.6-.77.24-.27.48-.51.72-.72.26-.22.51-.41.75-.55.25-.14.49-.22.72-.22.14,0,.26.05.36.14.09.08.14.25.14.5,0,.19-.02.53-.05,1.01-.03.48-.14,1.08-.33,1.8.2-.43.43-.86.67-1.27.25-.43.52-.82.79-1.15.29-.34.57-.61.84-.82.29-.22.57-.34.84-.34s.5.09.67.26c.18.18.27.44.27.79,0,.42-.08.75-.24,1.01-.16.26-.39.38-.68.38-.16,0-.28-.02-.36-.07-.06-.05-.12-.1-.19-.17-.05-.06-.11-.12-.19-.17-.06-.05-.18-.07-.34-.07-.24,0-.53.28-.88.84-.36.54-.82,1.39-1.4,2.54l-.84,4.8-1.6.58Zm13.91-2.52c-.47.7-.96,1.28-1.49,1.73s-1.18.67-1.97.67c-.57,0-1.08-.1-1.51-.31-.43-.21-.79-.5-1.08-.86-.29-.37-.5-.8-.65-1.3-.13-.5-.19-1.03-.19-1.61,0-.85.13-1.66.38-2.42.26-.78.6-1.47,1.04-2.06.44-.61.96-1.09,1.53-1.44.58-.37,1.19-.55,1.83-.55.7,0,1.28.14,1.75.43.46.27.69.78.69,1.51,0,.16-.03.38-.09.67-.07.27-.27.59-.6.96-.34.35-.87.74-1.59,1.18-.72.42-1.73.85-3.04,1.3.04,1.02.27,1.79.67,2.3.4.5.93.74,1.61.74.46,0,.9-.14,1.32-.41.43-.29.76-.58.98-.89l.41.36Zm-4.97-2.9c.42-.18.84-.37,1.27-.58.43-.21.83-.43,1.18-.67.37-.24.66-.5.89-.79.24-.29.36-.6.36-.94,0-.94-.36-1.42-1.06-1.42-.4,0-.76.14-1.08.41-.32.26-.6.59-.84,1.01-.22.42-.4.89-.53,1.42-.13.51-.19,1.03-.19,1.56Zm11.65,1.92c0,.48-.12.93-.36,1.34-.24.4-.54.75-.91,1.06-.35.3-.74.54-1.17.72-.42.18-.82.26-1.2.26s-.72-.06-1.01-.19c-.27-.11-.5-.25-.67-.41-.18-.18-.31-.36-.39-.55-.08-.19-.12-.35-.12-.48,0-.38.11-.66.31-.84.23-.18.4-.26.51-.26.22,0,.37.09.45.26.08.18.17.37.27.58.09.21.24.4.43.58.21.18.54.26.98.26s.76-.12,1.01-.36c.27-.24.41-.62.41-1.15,0-.34-.08-.62-.24-.86-.14-.26-.34-.48-.58-.67-.22-.21-.47-.41-.74-.6-.27-.19-.53-.4-.77-.62-.22-.24-.41-.5-.57-.79-.15-.29-.22-.64-.22-1.06,0-.48.1-.92.29-1.32.21-.4.47-.75.79-1.06.34-.3.71-.54,1.13-.7.43-.18.88-.26,1.34-.26.32,0,.58.06.77.17.21.1.37.22.48.38.11.14.18.3.22.46.04.16.07.29.07.38,0,.21-.07.42-.19.62-.13.21-.28.31-.46.31-.24,0-.42-.06-.53-.19-.11-.14-.21-.29-.31-.43-.08-.16-.19-.3-.34-.43-.12-.14-.34-.22-.64-.22-.12,0-.24.02-.39.05-.14.03-.28.1-.41.19-.11.1-.2.23-.28.41-.08.16-.12.37-.12.62,0,.46.16.87.48,1.22.33.34.7.67,1.1,1.01.4.34.76.7,1.08,1.1.34.4.5.89.5,1.46Zm6.85,0c0,.48-.12.93-.36,1.34-.24.4-.55.75-.91,1.06-.36.3-.75.54-1.18.72-.42.18-.82.26-1.2.26s-.72-.06-1.01-.19c-.27-.11-.49-.25-.67-.41-.18-.18-.3-.36-.38-.55-.08-.19-.12-.35-.12-.48,0-.38.1-.66.31-.84.22-.18.39-.26.5-.26.23,0,.38.09.46.26.08.18.17.37.26.58.1.21.24.4.43.58.21.18.54.26.99.26.41,0,.75-.12,1.01-.36.27-.24.4-.62.4-1.15,0-.34-.08-.62-.24-.86-.14-.26-.33-.48-.57-.67-.23-.21-.47-.41-.75-.6-.27-.19-.52-.4-.76-.62-.23-.24-.42-.5-.58-.79-.14-.29-.22-.64-.22-1.06,0-.48.1-.92.29-1.32.21-.4.47-.75.79-1.06.34-.3.72-.54,1.13-.7.43-.18.88-.26,1.35-.26.32,0,.57.06.76.17.21.1.37.22.48.38.12.14.19.3.22.46.05.16.07.29.07.38,0,.21-.06.42-.19.62-.13.21-.28.31-.46.31-.24,0-.41-.06-.52-.19-.12-.14-.22-.29-.32-.43-.08-.16-.19-.3-.33-.43-.13-.14-.35-.22-.65-.22-.11,0-.24.02-.38.05-.15.03-.28.1-.41.19-.11.1-.21.23-.29.41-.08.16-.12.37-.12.62,0,.46.16.87.48,1.22.34.34.7.67,1.1,1.01.4.34.76.7,1.08,1.1.34.4.51.89.51,1.46Zm4.92,3.6c-.54,0-1.02-.1-1.44-.31-.4-.21-.74-.5-1.03-.86-.27-.37-.48-.8-.62-1.3-.13-.51-.2-1.06-.2-1.63,0-1.02.16-1.94.48-2.76.32-.82.73-1.51,1.23-2.09.51-.58,1.07-1.02,1.68-1.32.62-.32,1.22-.48,1.8-.48.51,0,.96.1,1.34.31.39.21.71.5.96.86.27.37.47.8.6,1.3.15.5.22,1.03.22,1.61,0,1.04-.16,1.98-.48,2.81-.31.82-.71,1.51-1.2,2.09-.5.58-1.04,1.02-1.63,1.32-.6.3-1.16.46-1.71.46Zm.24-1.01c.66,0,1.19-.21,1.59-.62.4-.43.7-.95.91-1.56.22-.61.37-1.25.43-1.92.08-.69.12-1.3.12-1.82,0-.38-.02-.75-.07-1.1-.03-.37-.11-.69-.24-.96-.11-.27-.27-.49-.48-.65-.21-.18-.48-.26-.82-.26-.69,0-1.24.22-1.65.67-.42.43-.74.96-.96,1.58-.21.62-.36,1.28-.44,1.97-.06.69-.09,1.29-.09,1.8,0,.38.02.75.07,1.1.05.34.14.64.26.91.13.26.31.46.53.62.23.16.51.24.84.24Z"/>
      <path d="m3.98,181.42c-.18.26-.4.52-.67.79-.26.27-.54.52-.84.74-.29.21-.58.38-.89.5-.3.14-.58.22-.82.22-.21,0-.39-.07-.55-.22-.14-.14-.22-.37-.22-.67v-.34l1.44-8.06H0l.41-.94h1.2l.43-2.14,1.34-1.34.55.29-.65,3.19h1.34c.18,0,.34-.02.48-.05.14-.05.28-.1.41-.14l-.62,1.03-1.82.07-1.08,6.12c-.03.13-.06.29-.1.48-.02.18-.02.33-.02.46,0,.18.02.32.05.43.05.11.14.17.26.17.18,0,.41-.1.7-.31.29-.21.56-.47.82-.79l.29.5Zm8.61-.1c-.46.7-.96,1.28-1.49,1.73-.53.45-1.18.67-1.97.67-.58,0-1.08-.1-1.51-.31s-.79-.5-1.08-.86c-.29-.37-.5-.8-.65-1.3-.13-.5-.19-1.03-.19-1.61,0-.85.13-1.66.38-2.42.26-.78.6-1.47,1.03-2.06.45-.61.96-1.09,1.54-1.44.58-.37,1.18-.55,1.82-.55.7,0,1.29.14,1.75.43.46.27.7.78.7,1.51,0,.16-.03.38-.1.67-.06.27-.26.59-.6.96-.34.35-.86.74-1.58,1.18-.72.42-1.74.85-3.05,1.3.05,1.02.27,1.79.67,2.3.4.5.94.74,1.61.74.46,0,.9-.14,1.32-.41.43-.29.76-.58.98-.89l.41.36Zm-4.97-2.9c.42-.18.84-.37,1.27-.58s.82-.43,1.18-.67c.37-.24.66-.5.89-.79.24-.29.36-.6.36-.94,0-.94-.35-1.42-1.06-1.42-.4,0-.76.14-1.08.41-.32.26-.6.59-.84,1.01-.22.42-.4.89-.53,1.42-.13.51-.19,1.03-.19,1.56Zm5.08,9.41l.14-.65c.64,0,1.01-.25,1.1-.74l2.04-11.52c-.22.05-.48.16-.77.34-.29.16-.63.37-1.03.62l-.17-.72c.4-.27.76-.49,1.08-.65.32-.18.61-.33.86-.46l.26-1.18,2.02-1.27-.48,1.9c.51-.21,1.18-.31,2.02-.31.45,0,.86.06,1.22.19.37.11.68.3.94.58.27.27.48.64.62,1.1.14.45.22,1.02.22,1.7,0,.9-.14,1.77-.43,2.62-.27.83-.66,1.58-1.18,2.23-.51.64-1.12,1.16-1.82,1.56-.7.38-1.48.58-2.33.58-.16,0-.32-.02-.48-.07-.16-.03-.28-.09-.36-.17l-.41,2.21c-.06.21-.1.41-.1.6,0,.34.09.56.26.67.19.11.59.18,1.2.19l-.12.65h-4.32Zm3.72-5.69c.1.1.19.22.29.38.11.16.34.24.7.24.5,0,.96-.18,1.39-.53.45-.35.83-.81,1.15-1.37s.58-1.18.77-1.87c.19-.7.29-1.4.29-2.09,0-.48-.06-.89-.19-1.22-.11-.34-.27-.61-.48-.82-.19-.21-.42-.35-.7-.43-.26-.1-.53-.14-.82-.14-.18,0-.36,0-.55.02-.19.02-.4.05-.62.1l-1.22,7.73Zm11.04-.72c-.18.26-.39.52-.65.79-.26.27-.53.52-.82.74-.27.21-.54.38-.82.5-.27.14-.5.22-.7.22-.18,0-.32-.06-.43-.19-.1-.13-.15-.37-.17-.72,0-.08.02-.2.05-.36l2.18-12.58c.02-.08.02-.17.02-.26.02-.11.02-.2.02-.26-.05-.66-.38-.98-1.01-.98l.07-.65,2.98-.74-2.28,13.56c-.03.16-.06.33-.1.5-.02.16-.02.31-.02.46,0,.29.06.43.19.43.22,0,.61-.32,1.15-.96l.31.5Zm4.5,2.52c-.54,0-1.02-.1-1.44-.31-.4-.21-.74-.5-1.03-.86-.27-.37-.48-.8-.62-1.3-.13-.51-.19-1.06-.19-1.63,0-1.02.16-1.94.48-2.76s.73-1.51,1.22-2.09c.51-.58,1.07-1.02,1.68-1.32.62-.32,1.22-.48,1.8-.48.51,0,.96.1,1.34.31.38.21.7.5.96.86.27.37.47.8.6,1.3.14.5.22,1.03.22,1.61,0,1.04-.16,1.98-.48,2.81-.3.82-.7,1.51-1.2,2.09-.5.58-1.04,1.02-1.63,1.32-.59.3-1.16.46-1.7.46Zm.24-1.01c.66,0,1.18-.21,1.58-.62.4-.43.7-.95.91-1.56.22-.61.37-1.25.43-1.92.08-.69.12-1.3.12-1.82,0-.38-.02-.75-.07-1.1-.03-.37-.11-.69-.24-.96-.11-.27-.27-.49-.48-.65-.21-.18-.48-.26-.82-.26-.69,0-1.24.22-1.66.67-.42.43-.74.96-.96,1.58-.21.62-.35,1.28-.43,1.97-.06.69-.1,1.29-.1,1.8,0,.38.02.75.07,1.1.05.34.14.64.26.91.13.26.3.46.53.62s.5.24.84.24Zm10.57-1.51c-.18.26-.4.52-.67.79-.26.27-.54.52-.84.74-.29.21-.58.38-.89.5-.3.14-.58.22-.82.22-.21,0-.39-.07-.55-.22-.14-.14-.22-.37-.22-.67v-.34l1.44-8.06h-1.44l.41-.94h1.2l.43-2.14,1.34-1.34.55.29-.65,3.19h1.34c.18,0,.34-.02.48-.05.14-.05.28-.1.41-.14l-.62,1.03-1.82.07-1.08,6.12c-.03.13-.06.29-.1.48-.02.18-.02.33-.02.46,0,.18.02.32.05.43.05.11.14.17.26.17.18,0,.41-.1.7-.31.29-.21.56-.47.82-.79l.29.5Zm8.06-6.79c-.16-.16-.34-.28-.53-.36-.18-.08-.4-.12-.67-.12-.53,0-1,.23-1.42.7-.42.46-.77,1.03-1.06,1.7-.29.67-.51,1.39-.67,2.16-.14.75-.22,1.42-.22,1.99,0,.38,0,.69.02.91.03.21.07.36.12.46.06.1.14.16.22.19.1.02.2.02.31.02.18,0,.42-.14.72-.41.3-.29.62-.64.96-1.06.34-.42.66-.87.96-1.37.32-.51.58-.99.77-1.44l.48-3.38Zm2.28,6.79c-.16.26-.37.52-.62.79-.24.27-.5.52-.77.74-.27.21-.54.38-.82.5-.26.14-.48.22-.67.22-.16,0-.29-.06-.38-.17-.1-.1-.16-.29-.19-.58v-.24c.02-.08.03-.16.05-.24l.29-2.4c-.21.35-.47.74-.79,1.18-.3.42-.65.82-1.03,1.2-.37.37-.75.68-1.15.94-.38.24-.77.36-1.15.36-.18,0-.35-.02-.53-.07-.18-.05-.34-.16-.48-.34-.14-.19-.26-.46-.36-.82-.1-.37-.14-.86-.14-1.49,0-1.04.18-2.03.53-2.98.37-.96.84-1.8,1.42-2.52.59-.72,1.25-1.29,1.97-1.7.72-.43,1.44-.65,2.16-.65.29,0,.51.03.67.1.18.05.34.1.48.17.14.06.29.13.43.19.14.05.33.07.55.07l-.96,6.79c-.02.13-.03.27-.05.43-.02.16-.02.31-.02.46,0,.13,0,.25.02.36.03.1.09.14.17.14.16,0,.51-.32,1.06-.96l.34.5Zm6.12-2.46l.2-1.22h4.24l-.16,1.22h-4.28Zm9.77,4.5l.08-.6c.65,0,1.18-.11,1.58-.32.4-.23.63-.55.7-.98l1.26-8.76v-.1s.02-.07.02-.1c0-.43-.19-.64-.58-.64h-1.52l.08-.6c.47-.08.86-.15,1.18-.22.32-.08.61-.17.86-.28.27-.12.52-.27.76-.44.25-.17.55-.39.88-.66l.46.14c-.17.49-.28.93-.32,1.3l-1.5,10.36c-.01.05-.02.12-.02.2,0,.73.66,1.1,1.98,1.1l-.06.6h-5.84Zm14.67-12.38c-.24-.12-.49-.18-.76-.18-.33,0-.72.11-1.16.34-.43.21-.85.57-1.26,1.08-.41.49-.79,1.14-1.14,1.94-.33.79-.58,1.75-.74,2.88.67-.96,1.69-1.44,3.08-1.44.83,0,1.47.26,1.94.78.47.51.7,1.16.7,1.96,0,.84-.11,1.59-.34,2.26-.23.65-.54,1.21-.94,1.66s-.87.8-1.4,1.04c-.52.24-1.08.36-1.68.36-1.15,0-2.01-.32-2.6-.96-.57-.64-.86-1.51-.86-2.62,0-.19,0-.37.02-.56.03-.19.05-.38.08-.58.2-1.44.51-2.72.92-3.84.41-1.13.91-2.08,1.48-2.84.57-.77,1.22-1.36,1.94-1.76.72-.41,1.49-.62,2.32-.62.92,0,1.38.34,1.38,1.02s-.25,1.04-.74,1.04c-.32,0-.48-.13-.48-.4,0-.24.08-.43.24-.56Zm-3.58,11.86c.41,0,.78-.11,1.1-.34.32-.24.59-.55.8-.92.23-.39.39-.82.5-1.3.12-.49.18-1,.18-1.52,0-.77-.17-1.34-.5-1.7-.33-.37-.79-.56-1.38-.56-.75,0-1.37.32-1.86.96-.49.63-.74,1.57-.74,2.84,0,.33.03.65.1.96.08.31.19.58.34.82.16.23.36.41.6.56.24.13.53.2.86.2Zm5.41-3.98l.2-1.22h4.24l-.16,1.22h-4.28Zm6.23,4.5c-.25,0-.49,0-.72.02-.23.01-.43.03-.62.06v-.54c.96-.92,1.87-1.81,2.72-2.68.85-.88,1.59-1.73,2.22-2.56.64-.84,1.14-1.66,1.5-2.46.37-.8.56-1.59.56-2.38,0-.61-.17-1.07-.52-1.38-.33-.31-.82-.46-1.46-.46-.69,0-1.23.14-1.62.42-.39.27-.61.65-.68,1.14.35.12.52.33.52.62,0,.37-.09.65-.26.84-.17.17-.39.26-.64.26-.4,0-.6-.27-.6-.8,0-1.15.37-2.03,1.1-2.64.73-.61,1.73-.92,3-.92,1.88,0,2.82.84,2.82,2.52,0,.84-.14,1.64-.42,2.4-.28.75-.7,1.49-1.26,2.24-.56.73-1.27,1.49-2.12,2.26-.84.76-1.83,1.57-2.96,2.44h3.22c.32,0,.59-.02.82-.06.24-.04.45-.12.62-.24.19-.12.35-.29.5-.5.16-.23.33-.52.5-.88l.44.08-1.1,3.2h-5.56Zm10.99,0l.08-.6c.59,0,.92-.28,1-.84l.26-1.98c0-.11-.01-.2-.04-.28-.01-.08-.09-.12-.24-.12h-4.3l.1-.74,7.04-9,.6.08c-.11.25-.19.52-.26.8-.07.27-.12.53-.16.8l-.9,6.4s-.02.07-.02.14c0,.16.07.24.2.24h.7c.16,0,.31-.01.46-.04.16-.03.31-.06.46-.1l-.2,1.42h-1.58c-.19,0-.3.13-.34.4l-.26,1.98s-.02.1-.02.18c0,.44.23.66.7.66l-.06.6h-3.22Zm2.38-10.66l-4.36,5.56h3.22c.27,0,.41-.13.42-.38l.72-5.18Zm8.53-.18c0-.45-.17-.83-.5-1.14-.32-.32-.71-.48-1.18-.48s-.88.16-1.2.48c-.32.31-.48.69-.48,1.14,0,.52.16.93.48,1.22.32.28.72.42,1.2.42s.86-.14,1.18-.42c.33-.29.5-.7.5-1.22Zm-4.44,0c0-.36.07-.7.22-1.02.15-.32.34-.6.58-.84.25-.24.55-.43.88-.56.33-.15.69-.22,1.08-.22s.75.07,1.1.22c.35.13.65.32.9.56.25.24.45.52.6.84.15.32.22.66.22,1.02s-.07.71-.22,1.04c-.15.32-.35.61-.6.86-.25.24-.55.43-.9.58-.35.13-.71.2-1.1.2s-.75-.07-1.1-.2c-.33-.15-.63-.34-.88-.58-.24-.25-.43-.54-.58-.86-.13-.33-.2-.68-.2-1.04Zm16.04,7.02c-.21.69-.51,1.3-.88,1.82-.36.51-.78.93-1.26,1.28-.47.33-.98.59-1.54.76-.55.17-1.11.26-1.68.26-.76,0-1.43-.13-2.02-.4s-1.09-.64-1.5-1.12c-.4-.48-.71-1.05-.92-1.7-.21-.65-.32-1.37-.32-2.16,0-1.2.19-2.31.58-3.34.39-1.03.89-1.91,1.52-2.66.63-.76,1.34-1.35,2.14-1.76.81-.43,1.63-.64,2.46-.64.45,0,.89.08,1.3.24.43.15.82.37,1.18.68.24-.23.47-.41.7-.56.24-.15.48-.24.72-.28.04.05.07.25.1.58.04.32.06.74.06,1.26,0,.39-.01.81-.04,1.28-.03.45-.07.93-.14,1.44h-.62c-.11-1.28-.45-2.24-1.04-2.88-.57-.65-1.32-.98-2.24-.98-.85,0-1.58.25-2.18.74-.59.48-1.07,1.09-1.44,1.84-.36.75-.63,1.56-.8,2.44-.16.88-.24,1.72-.24,2.52,0,.68.06,1.3.18,1.86.12.56.31,1.04.58,1.44.27.4.61.71,1.02.94.41.21.91.32,1.5.32.45,0,.87-.05,1.24-.16.39-.11.75-.29,1.1-.54.35-.27.68-.62,1-1.06.32-.45.65-1.01.98-1.68l.5.22Z"/>
      <path d="m614.98,174.42c-.18.26-.4.52-.67.79-.26.27-.54.52-.84.74-.29.21-.58.38-.89.5-.3.14-.58.22-.82.22-.21,0-.39-.07-.55-.22-.14-.14-.22-.37-.22-.67v-.34l1.44-8.06h-1.44l.41-.94h1.2l.43-2.14,1.34-1.34.55.29-.65,3.19h1.34c.18,0,.34-.02.48-.05.14-.05.28-.1.41-.14l-.62,1.03-1.82.07-1.08,6.12c-.03.13-.06.29-.1.48-.02.18-.02.33-.02.46,0,.18.02.32.05.43.05.11.14.17.26.17.18,0,.41-.1.7-.31.29-.21.56-.47.82-.79l.29.5Zm8.61-.1c-.46.7-.96,1.28-1.49,1.73-.53.45-1.18.67-1.97.67-.58,0-1.08-.1-1.51-.31-.43-.21-.79-.5-1.08-.86-.29-.37-.5-.8-.65-1.3-.13-.5-.19-1.03-.19-1.61,0-.85.13-1.66.38-2.42.26-.78.6-1.47,1.03-2.06.45-.61.96-1.09,1.54-1.44.58-.37,1.18-.55,1.82-.55.7,0,1.29.14,1.75.43.46.27.7.78.7,1.51,0,.16-.03.38-.1.67-.06.27-.26.59-.6.96-.34.35-.86.74-1.58,1.18-.72.42-1.74.85-3.05,1.3.05,1.02.27,1.79.67,2.3.4.5.94.74,1.61.74.46,0,.9-.14,1.32-.41.43-.29.76-.58.98-.89l.41.36Zm-4.97-2.9c.42-.18.84-.37,1.27-.58s.82-.43,1.18-.67c.37-.24.66-.5.89-.79.24-.29.36-.6.36-.94,0-.94-.35-1.42-1.06-1.42-.4,0-.76.14-1.08.41-.32.26-.6.59-.84,1.01-.22.42-.4.89-.53,1.42-.13.51-.19,1.03-.19,1.56Zm5.08,9.41l.14-.65c.64,0,1.01-.25,1.1-.74l2.04-11.52c-.22.05-.48.16-.77.34-.29.16-.63.37-1.03.62l-.17-.72c.4-.27.76-.49,1.08-.65.32-.18.61-.33.86-.46l.26-1.18,2.02-1.27-.48,1.9c.51-.21,1.18-.31,2.02-.31.45,0,.86.06,1.22.19.37.11.68.3.94.58.27.27.48.64.62,1.1.14.45.22,1.02.22,1.7,0,.9-.14,1.77-.43,2.62-.27.83-.66,1.58-1.18,2.23-.51.64-1.12,1.16-1.82,1.56-.7.38-1.48.58-2.33.58-.16,0-.32-.02-.48-.07-.16-.03-.28-.09-.36-.17l-.41,2.21c-.06.21-.1.41-.1.6,0,.34.09.56.26.67.19.11.59.18,1.2.19l-.12.65h-4.32Zm3.72-5.69c.1.1.19.22.29.38.11.16.34.24.7.24.5,0,.96-.18,1.39-.53.45-.35.83-.81,1.15-1.37s.58-1.18.77-1.87c.19-.7.29-1.4.29-2.09,0-.48-.06-.89-.19-1.22-.11-.34-.27-.61-.48-.82-.19-.21-.42-.35-.7-.43-.26-.1-.53-.14-.82-.14-.18,0-.36,0-.55.02-.19.02-.4.05-.62.1l-1.22,7.73Zm11.04-.72c-.18.26-.39.52-.65.79-.25.27-.53.52-.81.74-.28.21-.55.38-.82.5-.27.14-.5.22-.7.22-.17,0-.32-.06-.43-.19-.1-.13-.15-.37-.17-.72,0-.08.02-.2.05-.36l2.19-12.58c.01-.08.02-.17.02-.26.02-.11.02-.2.02-.26-.04-.66-.38-.98-1-.98l.07-.65,2.97-.74-2.28,13.56c-.03.16-.06.33-.09.5-.02.16-.03.31-.03.46,0,.29.07.43.2.43.22,0,.6-.32,1.15-.96l.31.5Zm4.5,2.52c-.55,0-1.03-.1-1.44-.31-.4-.21-.75-.5-1.03-.86-.28-.37-.48-.8-.63-1.3-.13-.51-.19-1.06-.19-1.63,0-1.02.16-1.94.48-2.76.32-.82.73-1.51,1.22-2.09.52-.58,1.08-1.02,1.68-1.32.63-.32,1.23-.48,1.8-.48.52,0,.96.1,1.35.31.38.21.7.5.96.86.27.37.47.8.6,1.3.14.5.21,1.03.21,1.61,0,1.04-.16,1.98-.48,2.81-.3.82-.7,1.51-1.2,2.09-.49.58-1.04,1.02-1.63,1.32-.59.3-1.16.46-1.7.46Zm.24-1.01c.65,0,1.18-.21,1.58-.62.4-.43.71-.95.91-1.56.23-.61.37-1.25.44-1.92.08-.69.12-1.3.12-1.82,0-.38-.03-.75-.08-1.1-.03-.37-.11-.69-.24-.96-.11-.27-.27-.49-.48-.65-.2-.18-.48-.26-.81-.26-.69,0-1.24.22-1.66.67-.41.43-.73.96-.96,1.58-.21.62-.35,1.28-.43,1.97-.06.69-.1,1.29-.1,1.8,0,.38.03.75.08,1.1.04.34.13.64.26.91.13.26.3.46.53.62.22.16.5.24.84.24Zm10.56-1.51c-.17.26-.4.52-.67.79-.25.27-.53.52-.84.74-.29.21-.58.38-.89.5-.3.14-.57.22-.81.22-.21,0-.39-.07-.55-.22-.15-.14-.22-.37-.22-.67v-.34l1.44-8.06h-1.44l.41-.94h1.2l.43-2.14,1.34-1.34.56.29-.65,3.19h1.34c.18,0,.34-.02.48-.05.15-.05.28-.1.41-.14l-.62,1.03-1.83.07-1.08,6.12c-.03.13-.06.29-.09.48-.02.18-.03.33-.03.46,0,.18.02.32.05.43.05.11.14.17.26.17.18,0,.41-.1.7-.31.29-.21.56-.47.82-.79l.28.5Zm8.07-6.79c-.16-.16-.34-.28-.53-.36-.18-.08-.4-.12-.67-.12-.53,0-1,.23-1.42.7-.42.46-.77,1.03-1.06,1.7-.28.67-.51,1.39-.67,2.16-.14.75-.21,1.42-.21,1.99,0,.38,0,.69.02.91.03.21.07.36.12.46.06.1.14.16.22.19.09.02.2.02.31.02.17,0,.41-.14.72-.41.3-.29.62-.64.96-1.06.33-.42.65-.87.96-1.37.32-.51.57-.99.77-1.44l.48-3.38Zm2.28,6.79c-.16.26-.37.52-.63.79-.24.27-.49.52-.77.74-.27.21-.54.38-.81.5-.26.14-.48.22-.67.22-.16,0-.29-.06-.39-.17-.09-.1-.16-.29-.19-.58v-.24c.02-.08.03-.16.05-.24l.29-2.4c-.21.35-.48.74-.8,1.18-.3.42-.64.82-1.03,1.2-.37.37-.75.68-1.15.94-.38.24-.77.36-1.15.36-.18,0-.35-.02-.53-.07-.18-.05-.34-.16-.48-.34-.14-.19-.26-.46-.36-.82-.1-.37-.14-.86-.14-1.49,0-1.04.17-2.03.52-2.98.37-.96.84-1.8,1.42-2.52.59-.72,1.25-1.29,1.97-1.7.72-.43,1.44-.65,2.16-.65.29,0,.51.03.67.1.18.05.34.1.48.17.14.06.29.13.43.19.15.05.33.07.55.07l-.96,6.79c-.01.13-.03.27-.04.43-.02.16-.03.31-.03.46,0,.13.01.25.03.36.03.1.08.14.16.14.16,0,.52-.32,1.06-.96l.34.5Zm6.11-2.46l.2-1.22h4.24l-.16,1.22h-4.28Zm11.07,4.5c-.25,0-.49,0-.72.02-.22.01-.43.03-.62.06v-.54c.96-.92,1.87-1.81,2.72-2.68.86-.88,1.6-1.73,2.22-2.56.64-.84,1.14-1.66,1.5-2.46.38-.8.56-1.59.56-2.38,0-.61-.17-1.07-.52-1.38-.33-.31-.82-.46-1.46-.46-.69,0-1.23.14-1.62.42-.38.27-.61.65-.68,1.14.35.12.52.33.52.62,0,.37-.08.65-.26.84-.17.17-.38.26-.64.26-.4,0-.6-.27-.6-.8,0-1.15.37-2.03,1.1-2.64.74-.61,1.74-.92,3-.92,1.88,0,2.82.84,2.82,2.52,0,.84-.14,1.64-.42,2.4-.28.75-.7,1.49-1.26,2.24-.56.73-1.26,1.49-2.12,2.26-.84.76-1.82,1.57-2.96,2.44h3.22c.32,0,.6-.02.82-.06.24-.04.45-.12.62-.24.19-.12.36-.29.5-.5.16-.23.33-.52.5-.88l.44.08-1.1,3.2h-5.56Zm8.81,0c-.25,0-.49,0-.72.02-.22.01-.43.03-.62.06v-.54c.96-.92,1.87-1.81,2.72-2.68.86-.88,1.6-1.73,2.22-2.56.64-.84,1.14-1.66,1.5-2.46.38-.8.56-1.59.56-2.38,0-.61-.17-1.07-.52-1.38-.33-.31-.82-.46-1.46-.46-.69,0-1.23.14-1.62.42-.38.27-.61.65-.68,1.14.35.12.52.33.52.62,0,.37-.08.65-.26.84-.17.17-.38.26-.64.26-.4,0-.6-.27-.6-.8,0-1.15.37-2.03,1.1-2.64.74-.61,1.74-.92,3-.92,1.88,0,2.82.84,2.82,2.52,0,.84-.14,1.64-.42,2.4-.28.75-.7,1.49-1.26,2.24-.56.73-1.26,1.49-2.12,2.26-.84.76-1.82,1.57-2.96,2.44h3.22c.32,0,.6-.02.82-.06.24-.04.45-.12.62-.24.19-.12.36-.29.5-.5.16-.23.33-.52.5-.88l.44.08-1.1,3.2h-5.56Zm8.05-4.5l.2-1.22h4.24l-.16,1.22h-4.28Zm10.31-3c1.49.16,2.24,1.05,2.24,2.66,0,1.72-.45,3.01-1.36,3.86-.91.84-2.15,1.26-3.74,1.26-1.71,0-2.56-.55-2.56-1.64,0-.87.35-1.3,1.06-1.3.35,0,.52.17.52.5,0,.47-.15.75-.46.84,0,.24.08.43.24.56.17.12.45.18.84.18,1.15,0,2.03-.35,2.66-1.04.64-.71.96-1.75.96-3.14,0-1.31-.55-1.96-1.64-1.96h-.88c-.12,0-.18-.07-.18-.2,0-.33.09-.5.26-.5.92,0,1.65-.31,2.2-.92.55-.61.82-1.48.82-2.6,0-1.05-.49-1.58-1.46-1.58-1.09,0-1.69.28-1.78.84.17.13.26.31.26.52,0,.33-.09.59-.26.76-.16.16-.36.24-.6.24-.4,0-.6-.19-.6-.58,0-.91.33-1.59.98-2.04.65-.47,1.52-.7,2.6-.7,1.63,0,2.44.73,2.44,2.2,0,.96-.22,1.75-.66,2.36-.44.6-1.07,1.01-1.88,1.24l-.02.18Zm6.46,7.8c-.49,0-.92-.12-1.28-.36s-.66-.57-.9-1c-.24-.43-.42-.93-.54-1.5-.12-.59-.18-1.21-.18-1.88,0-1.08.13-2.16.4-3.24.28-1.08.65-2.05,1.12-2.9.47-.87,1.01-1.57,1.62-2.1.63-.53,1.29-.8,2-.8.48,0,.9.13,1.26.4.36.25.67.61.92,1.06s.44.99.56,1.6c.13.6.2,1.25.2,1.94,0,.65-.06,1.33-.18,2.02-.12.69-.29,1.37-.52,2.02-.21.64-.48,1.25-.8,1.84-.31.57-.65,1.07-1.04,1.5-.37.43-.79.77-1.24,1.02-.44.25-.91.38-1.4.38Zm.4-.86c.56,0,1.04-.25,1.44-.76.41-.52.75-1.17,1-1.96.25-.8.44-1.69.56-2.66s.18-1.92.18-2.84c0-.49-.03-.97-.1-1.42-.05-.47-.15-.87-.3-1.22-.15-.36-.35-.65-.6-.86s-.57-.32-.94-.32-.71.17-1,.52c-.29.33-.55.77-.78,1.32-.21.53-.39,1.13-.54,1.8-.15.67-.27,1.32-.36,1.96-.09.63-.16,1.21-.2,1.76-.04.53-.06.95-.06,1.24,0,1.09.13,1.94.4,2.54s.7.9,1.3.9Zm10.55-10.28c0-.45-.17-.83-.5-1.14-.32-.32-.72-.48-1.18-.48s-.88.16-1.2.48c-.32.31-.48.69-.48,1.14,0,.52.16.93.48,1.22.32.28.72.42,1.2.42s.86-.14,1.18-.42c.33-.29.5-.7.5-1.22Zm-4.44,0c0-.36.07-.7.22-1.02.14-.32.34-.6.58-.84.25-.24.54-.43.88-.56.33-.15.69-.22,1.08-.22s.75.07,1.1.22c.34.13.64.32.9.56.25.24.45.52.6.84.14.32.22.66.22,1.02s-.08.71-.22,1.04c-.15.32-.35.61-.6.86-.26.24-.56.43-.9.58-.35.13-.72.2-1.1.2s-.76-.07-1.1-.2c-.34-.15-.63-.34-.88-.58-.24-.25-.44-.54-.58-.86-.14-.33-.2-.68-.2-1.04Zm16.03,7.02c-.21.69-.51,1.3-.88,1.82-.36.51-.78.93-1.26,1.28-.47.33-.98.59-1.54.76-.55.17-1.11.26-1.68.26-.76,0-1.43-.13-2.02-.4s-1.09-.64-1.5-1.12c-.4-.48-.71-1.05-.92-1.7-.21-.65-.32-1.37-.32-2.16,0-1.2.19-2.31.58-3.34.39-1.03.89-1.91,1.52-2.66.63-.76,1.34-1.35,2.14-1.76.81-.43,1.63-.64,2.46-.64.45,0,.89.08,1.3.24.43.15.82.37,1.18.68.24-.23.47-.41.7-.56.24-.15.48-.24.72-.28.04.05.07.25.1.58.04.32.06.74.06,1.26,0,.39-.01.81-.04,1.28-.03.45-.07.93-.14,1.44h-.62c-.11-1.28-.45-2.24-1.04-2.88-.57-.65-1.32-.98-2.24-.98-.85,0-1.58.25-2.18.74-.59.48-1.07,1.09-1.44,1.84-.36.75-.63,1.56-.8,2.44-.16.88-.24,1.72-.24,2.52,0,.68.06,1.3.18,1.86s.31,1.04.58,1.44c.27.4.61.71,1.02.94.41.21.91.32,1.5.32.45,0,.87-.05,1.24-.16.39-.11.75-.29,1.1-.54.35-.27.68-.62,1-1.06.32-.45.65-1.01.98-1.68l.5.22Z"/>
      <path d="m57.9,221.54c-.5.75-.97,1.32-1.42,1.7-.45.37-.77.55-.96.55-.13,0-.3-.06-.5-.19-.21-.11-.44-.37-.7-.77s-.54-.98-.86-1.75c-.3-.77-.63-1.79-.98-3.07l-.94,1.13-.77,4.13-1.61.58,2.52-14.02c.03-.08.05-.17.05-.26v-.26c-.03-.34-.12-.58-.26-.74-.13-.16-.36-.24-.7-.24l.1-.65,3.05-.74-2.04,10.66c1.1-1.47,2.06-2.57,2.88-3.29.82-.72,1.58-1.08,2.28-1.08.22,0,.42.08.6.24.18.14.26.38.26.7s-.06.54-.19.72c-.11.18-.3.26-.58.26-.13,0-.22-.02-.29-.05-.06-.03-.13-.06-.19-.1-.06-.05-.14-.09-.22-.12-.08-.03-.19-.05-.34-.05-.3,0-.58.05-.82.14-.22.08-.44.21-.65.38-.21.16-.42.36-.62.6-.19.22-.39.47-.6.74.19.58.42,1.19.7,1.85.27.66.54,1.26.82,1.82.27.54.54,1,.79,1.37.26.35.47.53.65.53.06,0,.14-.04.24-.12.11-.08.22-.18.31-.31.11-.13.22-.26.34-.41.11-.16.22-.3.31-.43l.34.55Zm4.5,2.4c-.54,0-1.02-.1-1.44-.31-.4-.21-.74-.5-1.03-.86-.27-.37-.48-.8-.62-1.3-.13-.51-.19-1.06-.19-1.63,0-1.02.16-1.94.48-2.76.32-.82.73-1.51,1.22-2.09.51-.58,1.07-1.02,1.68-1.32.62-.32,1.22-.48,1.8-.48.51,0,.96.1,1.34.31.38.21.7.5.96.86.27.37.47.8.6,1.3.14.5.22,1.03.22,1.61,0,1.04-.16,1.98-.48,2.81-.3.82-.7,1.51-1.2,2.09-.5.58-1.04,1.02-1.63,1.32-.59.3-1.16.46-1.7.46Zm.24-1.01c.66,0,1.18-.21,1.58-.62.4-.43.7-.95.91-1.56.22-.61.37-1.25.43-1.92.08-.69.12-1.3.12-1.82,0-.38-.02-.75-.07-1.1-.03-.37-.11-.69-.24-.96-.11-.27-.27-.49-.48-.65-.21-.18-.48-.26-.82-.26-.69,0-1.24.22-1.66.67-.42.43-.74.96-.96,1.58-.21.62-.35,1.28-.43,1.97-.06.69-.1,1.29-.1,1.8,0,.38.02.75.07,1.1.05.34.14.64.26.91.13.26.3.46.53.62s.5.24.84.24Zm7.59-8.28c0-.18-.07-.26-.22-.26h-1.15l.53-.94h.7c.16,0,.28-.22.36-.65.11-.85.33-1.63.65-2.35s.69-1.34,1.1-1.85c.43-.53.88-.94,1.34-1.22.48-.3.93-.46,1.34-.46.45,0,.79.12,1.03.36.24.22.36.5.36.82,0,.29-.06.55-.19.79-.13.24-.33.36-.6.36-.18,0-.3-.06-.38-.17-.06-.11-.13-.23-.19-.36-.06-.14-.14-.27-.24-.38-.08-.11-.22-.17-.41-.17-.37,0-.69.2-.96.6-.26.38-.48.85-.67,1.39-.18.53-.31,1.06-.41,1.61-.08.54-.12.96-.12,1.25s.09.43.26.43h1.9l-.22.94h-1.82c-.19,0-.31.09-.36.26l-1.1,7.51c-.1.66-.26,1.32-.48,1.99-.21.67-.49,1.28-.84,1.82-.35.54-.77.98-1.25,1.32-.46.35-.99.53-1.58.53-.56,0-.98-.11-1.27-.34-.3-.21-.46-.54-.46-.98,0-.27.06-.5.19-.7.11-.19.31-.29.6-.29.18,0,.31.06.41.17s.18.23.26.36c.08.14.18.27.31.38.13.11.31.17.55.17.29,0,.53-.11.72-.34.21-.21.38-.51.53-.91.14-.38.26-.85.36-1.39.11-.54.22-1.14.31-1.8l1.1-7.51Zm10.82,6.67c-.46.7-.96,1.28-1.49,1.73-.53.45-1.18.67-1.97.67-.58,0-1.08-.1-1.51-.31-.43-.21-.79-.5-1.08-.86-.29-.37-.5-.8-.65-1.3-.13-.5-.19-1.03-.19-1.61,0-.85.13-1.66.38-2.42.26-.78.6-1.47,1.03-2.06.45-.61.96-1.09,1.54-1.44.58-.37,1.18-.55,1.82-.55.7,0,1.29.14,1.75.43.46.27.7.78.7,1.51,0,.16-.03.38-.1.67-.06.27-.26.59-.6.96-.34.35-.86.74-1.58,1.18-.72.42-1.74.85-3.05,1.3.05,1.02.27,1.79.67,2.3.4.5.94.74,1.61.74.46,0,.9-.14,1.32-.41.43-.29.76-.58.98-.89l.41.36Zm-4.97-2.9c.42-.18.84-.37,1.27-.58.43-.21.82-.43,1.18-.67.37-.24.66-.5.89-.79.24-.29.36-.6.36-.94,0-.94-.35-1.42-1.06-1.42-.4,0-.76.14-1.08.41-.32.26-.6.59-.84,1.01-.22.42-.4.89-.53,1.42-.13.51-.19,1.03-.19,1.56Zm10.29,3c-.18.26-.39.52-.65.79-.24.27-.5.52-.77.74-.27.21-.54.38-.82.5-.27.14-.5.22-.7.22-.26,0-.42-.09-.48-.26-.06-.18-.1-.38-.1-.6v-.19s.03-.1.05-.17l1.34-7.08s.02-.08.02-.14c0-.13-.05-.19-.14-.19-.18,0-.55.33-1.13.98l-.29-.53c.18-.26.39-.51.65-.77.26-.27.52-.51.79-.72.27-.22.54-.41.82-.55.27-.14.51-.22.72-.22.18,0,.3.06.38.19.1.13.14.36.14.7v.17s0,.11-.02.19l-1.27,6c-.03.18-.06.35-.1.53-.03.16-.05.31-.05.46,0,.27.06.41.19.41.18,0,.55-.32,1.13-.96l.26.5Zm-.5-10.39c-.77,0-1.15-.46-1.15-1.39s.42-1.34,1.25-1.34c.78,0,1.18.45,1.18,1.34s-.42,1.39-1.27,1.39Zm11.22,10.39c-.18.26-.39.52-.65.79-.24.27-.5.52-.79.74-.27.21-.54.38-.82.5-.27.14-.51.22-.72.22-.19,0-.34-.06-.43-.19-.08-.11-.12-.34-.12-.67,0-.1.02-.22.07-.36l.96-5.04c.11-.54.2-.99.26-1.34.06-.35.1-.63.1-.84,0-.42-.14-.62-.41-.62-.69,0-2.02,1.47-3.98,4.42l-.89,4.25-1.61.58,1.56-7.82c.02-.08.02-.17.02-.26.02-.1.02-.19.02-.29,0-.29-.06-.43-.17-.43-.18,0-.55.33-1.13.98l-.31-.53c.19-.26.41-.51.65-.77.24-.27.49-.51.74-.72.26-.22.51-.41.77-.55.26-.14.49-.22.7-.22.16,0,.28.06.36.19.1.11.14.31.14.6,0,.13,0,.27-.02.43-.02.16-.05.38-.1.65-.05.26-.11.58-.19.98-.08.38-.18.87-.31,1.46,2.02-2.93,3.66-4.39,4.94-4.39.22,0,.42.13.6.38.18.26.26.66.26,1.2,0,.34-.03.7-.1,1.1-.06.4-.14.79-.22,1.18l-.65,3.46c-.06.3-.1.54-.12.72-.02.16-.02.28-.02.36,0,.21.06.31.19.31.16,0,.54-.32,1.13-.96l.26.5Zm6.15-2.46l.2-1.22h4.24l-.16,1.22h-4.28Zm9.77,4.5l.08-.6c.65,0,1.18-.11,1.58-.32.4-.23.63-.55.7-.98l1.26-8.76v-.1s.02-.07.02-.1c0-.43-.19-.64-.58-.64h-1.52l.08-.6c.47-.08.86-.15,1.18-.22.32-.08.61-.17.86-.28.27-.12.52-.27.76-.44.25-.17.55-.39.88-.66l.46.14c-.17.49-.28.93-.32,1.3l-1.5,10.36c-.01.05-.02.12-.02.2,0,.73.66,1.1,1.98,1.1l-.06.6h-5.84Zm6.87,2.74c.45-.29.81-.57,1.06-.82.27-.24.46-.46.58-.66.13-.2.21-.39.24-.56.03-.16.04-.3.04-.42,0-.15-.07-.24-.2-.28-.12-.05-.26-.1-.42-.14-.16-.04-.31-.1-.44-.18-.12-.09-.18-.26-.18-.5,0-.51.12-.89.36-1.14.24-.27.55-.4.92-.4.81,0,1.22.46,1.22,1.38s-.27,1.75-.8,2.42c-.52.68-1.23,1.27-2.14,1.76l-.24-.46Zm4.73-2.74l.08-.6c.65,0,1.18-.11,1.58-.32.4-.23.63-.55.7-.98l1.26-8.76v-.1s.02-.07.02-.1c0-.43-.19-.64-.58-.64h-1.52l.08-.6c.47-.08.86-.15,1.18-.22.32-.08.61-.17.86-.28.27-.12.52-.27.76-.44.25-.17.55-.39.88-.66l.46.14c-.17.49-.28.93-.32,1.3l-1.5,10.36c-.01.05-.02.12-.02.2,0,.73.66,1.1,1.98,1.1l-.06.6h-5.84Zm12.45-4.5l.2-1.22h4.24l-.16,1.22h-4.28Zm9.77,4.5l.08-.6c.65,0,1.18-.11,1.58-.32.4-.23.63-.55.7-.98l1.26-8.76v-.1s.02-.07.02-.1c0-.43-.19-.64-.58-.64h-1.52l.08-.6c.47-.08.86-.15,1.18-.22.32-.08.61-.17.86-.28.27-.12.52-.27.76-.44.25-.17.55-.39.88-.66l.46.14c-.17.49-.28.93-.32,1.3l-1.5,10.36c-.01.05-.02.12-.02.2,0,.73.66,1.1,1.98,1.1l-.06.6h-5.84Zm6.87,2.74c.45-.29.81-.57,1.06-.82.27-.24.46-.46.58-.66.13-.2.21-.39.24-.56.03-.16.04-.3.04-.42,0-.15-.07-.24-.2-.28-.12-.05-.26-.1-.42-.14-.16-.04-.31-.1-.44-.18-.12-.09-.18-.26-.18-.5,0-.51.12-.89.36-1.14.24-.27.55-.4.92-.4.81,0,1.22.46,1.22,1.38s-.27,1.75-.8,2.42c-.52.68-1.23,1.27-2.14,1.76l-.24-.46Zm6.28-14.4c-.48,0-.97.61-1.48,1.82l-.4-.22.9-3.26c.23.03.48.05.76.06h5.94l-.12.86c-.27.4-.55.87-.84,1.4-.28.52-.56,1.06-.84,1.62-.27.56-.53,1.11-.78,1.66-.24.53-.45,1.02-.62,1.46-.35.85-.66,1.73-.94,2.62-.28.88-.48,1.76-.6,2.64-.12.87-.51,1.3-1.18,1.3-.6,0-.9-.27-.9-.82,0-.36.09-.8.26-1.32.19-.53.41-1.08.66-1.64.27-.57.55-1.13.84-1.68.29-.55.55-1.03.78-1.44.25-.47.53-.95.82-1.44.31-.51.59-.98.86-1.42.27-.45.51-.85.72-1.2.21-.36.37-.63.48-.82,0-.12-.05-.18-.16-.18h-4.16Zm12.66,5.34c-1.4,0-2.1-.75-2.1-2.24s.35-2.57,1.06-3.3c.71-.73,1.67-1.1,2.9-1.1s1.88.72,1.88,2.16-.34,2.61-1.02,3.36c-.68.75-1.59,1.12-2.72,1.12Zm.2-.54c.79,0,1.43-.33,1.94-1,.52-.67.78-1.67.78-3.02,0-1.07-.35-1.6-1.06-1.6-.35,0-.69.09-1.02.28-.32.17-.61.44-.86.8-.25.36-.46.81-.62,1.34-.15.53-.22,1.15-.22,1.86,0,.89.35,1.34,1.06,1.34Zm-1.18,6.86l8.64-13.26h.98l-8.72,13.26h-.9Zm6.92.16c-1.41,0-2.12-.75-2.12-2.24s.35-2.58,1.06-3.3c.71-.72,1.67-1.08,2.9-1.08s1.9.71,1.9,2.12-.35,2.6-1.04,3.36c-.68.76-1.58,1.14-2.7,1.14Zm.2-.54c.8,0,1.45-.33,1.94-1,.51-.67.76-1.67.76-3.02,0-1.08-.35-1.62-1.06-1.62-.35,0-.69.09-1.02.28-.32.17-.61.44-.86.8-.25.35-.46.79-.62,1.32-.15.53-.22,1.15-.22,1.86,0,.92.36,1.38,1.08,1.38Z"/>
      <path d="m576.9,221.54c-.5.75-.97,1.32-1.42,1.7-.45.37-.77.55-.96.55-.13,0-.3-.06-.5-.19-.21-.11-.44-.37-.7-.77s-.54-.98-.86-1.75c-.3-.77-.63-1.79-.98-3.07l-.94,1.13-.77,4.13-1.61.58,2.52-14.02c.03-.08.05-.17.05-.26v-.26c-.03-.34-.12-.58-.26-.74-.13-.16-.36-.24-.7-.24l.1-.65,3.05-.74-2.04,10.66c1.1-1.47,2.06-2.57,2.88-3.29s1.58-1.08,2.28-1.08c.22,0,.42.08.6.24.18.14.26.38.26.7s-.06.54-.19.72c-.11.18-.3.26-.58.26-.13,0-.22-.02-.29-.05-.06-.03-.13-.06-.19-.1-.06-.05-.14-.09-.22-.12-.08-.03-.19-.05-.34-.05-.3,0-.58.05-.82.14-.22.08-.44.21-.65.38-.21.16-.42.36-.62.6-.19.22-.39.47-.6.74.19.58.42,1.19.7,1.85.27.66.54,1.26.82,1.82.27.54.54,1,.79,1.37.26.35.47.53.65.53.06,0,.14-.04.24-.12.11-.08.22-.18.31-.31.11-.13.22-.26.34-.41.11-.16.22-.3.31-.43l.34.55Zm4.5,2.4c-.54,0-1.02-.1-1.44-.31-.4-.21-.74-.5-1.03-.86-.27-.37-.48-.8-.62-1.3-.13-.51-.19-1.06-.19-1.63,0-1.02.16-1.94.48-2.76s.73-1.51,1.22-2.09c.51-.58,1.07-1.02,1.68-1.32.62-.32,1.22-.48,1.8-.48.51,0,.96.1,1.34.31.38.21.7.5.96.86.27.37.47.8.6,1.3.14.5.22,1.03.22,1.61,0,1.04-.16,1.98-.48,2.81-.3.82-.7,1.51-1.2,2.09-.5.58-1.04,1.02-1.63,1.32-.59.3-1.16.46-1.7.46Zm.24-1.01c.66,0,1.18-.21,1.58-.62.4-.43.7-.95.91-1.56.22-.61.37-1.25.43-1.92.08-.69.12-1.3.12-1.82,0-.38-.02-.75-.07-1.1-.03-.37-.11-.69-.24-.96-.11-.27-.27-.49-.48-.65-.21-.18-.48-.26-.82-.26-.69,0-1.24.22-1.66.67-.42.43-.74.96-.96,1.58-.21.62-.35,1.28-.43,1.97-.06.69-.1,1.29-.1,1.8,0,.38.02.75.07,1.1.05.34.14.64.26.91.13.26.3.46.53.62s.5.24.84.24Zm7.59-8.28c0-.18-.07-.26-.22-.26h-1.15l.53-.94h.7c.16,0,.28-.22.36-.65.11-.85.33-1.63.65-2.35s.69-1.34,1.1-1.85c.43-.53.88-.94,1.34-1.22.48-.3.93-.46,1.34-.46.45,0,.79.12,1.03.36.24.22.36.5.36.82,0,.29-.06.55-.19.79-.13.24-.33.36-.6.36-.18,0-.3-.06-.38-.17-.06-.11-.13-.23-.19-.36-.06-.14-.14-.27-.24-.38-.08-.11-.22-.17-.41-.17-.37,0-.69.2-.96.6-.26.38-.48.85-.67,1.39-.18.53-.31,1.06-.41,1.61-.08.54-.12.96-.12,1.25s.09.43.26.43h1.9l-.22.94h-1.82c-.19,0-.31.09-.36.26l-1.1,7.51c-.1.66-.26,1.32-.48,1.99-.21.67-.49,1.28-.84,1.82-.35.54-.77.98-1.25,1.32-.46.35-.99.53-1.58.53-.56,0-.98-.11-1.27-.34-.3-.21-.46-.54-.46-.98,0-.27.06-.5.19-.7.11-.19.31-.29.6-.29.18,0,.31.06.41.17s.18.23.26.36c.08.14.18.27.31.38s.31.17.55.17c.29,0,.53-.11.72-.34.21-.21.38-.51.53-.91.14-.38.26-.85.36-1.39.11-.54.22-1.14.31-1.8l1.1-7.51Zm10.82,6.67c-.46.7-.96,1.28-1.49,1.73-.53.45-1.18.67-1.97.67-.58,0-1.08-.1-1.51-.31s-.79-.5-1.08-.86c-.29-.37-.5-.8-.65-1.3-.13-.5-.19-1.03-.19-1.61,0-.85.13-1.66.38-2.42.26-.78.6-1.47,1.03-2.06.45-.61.96-1.09,1.54-1.44.58-.37,1.18-.55,1.82-.55.7,0,1.29.14,1.75.43.46.27.7.78.7,1.51,0,.16-.03.38-.1.67-.06.27-.26.59-.6.96-.34.35-.86.74-1.58,1.18-.72.42-1.74.85-3.05,1.3.05,1.02.27,1.79.67,2.3.4.5.94.74,1.61.74.46,0,.9-.14,1.32-.41.43-.29.76-.58.98-.89l.41.36Zm-4.97-2.9c.42-.18.84-.37,1.27-.58s.82-.43,1.18-.67c.37-.24.66-.5.89-.79.24-.29.36-.6.36-.94,0-.94-.35-1.42-1.06-1.42-.4,0-.76.14-1.08.41-.32.26-.6.59-.84,1.01-.22.42-.4.89-.53,1.42-.13.51-.19,1.03-.19,1.56Zm10.29,3c-.18.26-.39.52-.65.79-.24.27-.5.52-.77.74-.27.21-.54.38-.82.5-.27.14-.5.22-.7.22-.26,0-.42-.09-.48-.26-.06-.18-.1-.38-.1-.6v-.19s.03-.1.05-.17l1.34-7.08s.02-.08.02-.14c0-.13-.05-.19-.14-.19-.18,0-.55.33-1.13.98l-.29-.53c.18-.26.39-.51.65-.77.26-.27.52-.51.79-.72.27-.22.54-.41.82-.55.27-.14.51-.22.72-.22.18,0,.3.06.38.19.1.13.14.36.14.7v.17s0,.11-.02.19l-1.27,6c-.03.18-.06.35-.1.53-.03.16-.05.31-.05.46,0,.27.06.41.19.41.18,0,.55-.32,1.13-.96l.26.5Zm-.5-10.39c-.77,0-1.15-.46-1.15-1.39s.42-1.34,1.25-1.34c.78,0,1.18.45,1.18,1.34s-.42,1.39-1.27,1.39Zm11.22,10.39c-.18.26-.39.52-.65.79-.24.27-.5.52-.79.74-.27.21-.54.38-.82.5-.27.14-.51.22-.72.22-.19,0-.34-.06-.43-.19-.08-.11-.12-.34-.12-.67,0-.1.02-.22.07-.36l.96-5.04c.11-.54.2-.99.26-1.34.06-.35.1-.63.1-.84,0-.42-.14-.62-.41-.62-.69,0-2.02,1.47-3.98,4.42l-.89,4.25-1.61.58,1.56-7.82c.02-.08.02-.17.02-.26.02-.1.02-.19.02-.29,0-.29-.06-.43-.17-.43-.18,0-.55.33-1.13.98l-.31-.53c.19-.26.41-.51.65-.77.24-.27.49-.51.74-.72.26-.22.51-.41.77-.55.26-.14.49-.22.7-.22.16,0,.28.06.36.19.1.11.14.31.14.6,0,.13,0,.27-.02.43s-.05.38-.1.65c-.05.26-.11.58-.19.98-.08.38-.18.87-.31,1.46,2.02-2.93,3.66-4.39,4.94-4.39.22,0,.42.13.6.38.18.26.26.66.26,1.2,0,.34-.03.7-.1,1.1-.06.4-.14.79-.22,1.18l-.65,3.46c-.06.3-.1.54-.12.72-.02.16-.02.28-.02.36,0,.21.06.31.19.31.16,0,.54-.32,1.13-.96l.26.5Zm6.15-2.46l.2-1.22h4.24l-.16,1.22h-4.28Zm11.07,4.5c-.25,0-.49,0-.72.02-.23.01-.43.03-.62.06v-.54c.96-.92,1.87-1.81,2.72-2.68.86-.88,1.6-1.73,2.22-2.56.64-.84,1.14-1.66,1.5-2.46.38-.8.56-1.59.56-2.38,0-.61-.17-1.07-.52-1.38-.33-.31-.82-.46-1.46-.46-.69,0-1.23.14-1.62.42-.38.27-.61.65-.68,1.14.35.12.52.33.52.62,0,.37-.09.65-.26.84-.17.17-.39.26-.64.26-.4,0-.6-.27-.6-.8,0-1.15.37-2.03,1.1-2.64.74-.61,1.74-.92,3-.92,1.88,0,2.82.84,2.82,2.52,0,.84-.14,1.64-.42,2.4-.28.75-.7,1.49-1.26,2.24-.56.73-1.26,1.49-2.12,2.26-.84.76-1.82,1.57-2.96,2.44h3.22c.32,0,.6-.02.82-.06.24-.04.45-.12.62-.24.19-.12.36-.29.5-.5.16-.23.33-.52.5-.88l.44.08-1.1,3.2h-5.56Zm12.9-4.5l.2-1.22h4.24l-.16,1.22h-4.28Zm13.25,4.5l.08-.6c.58,0,.92-.28,1-.84l.26-1.98c0-.11-.02-.2-.04-.28-.02-.08-.1-.12-.24-.12h-4.3l.1-.74,7.04-9,.6.08c-.11.25-.2.52-.26.8-.07.27-.12.53-.16.8l-.9,6.4s-.02.07-.02.14c0,.16.06.24.2.24h.7c.16,0,.31-.01.46-.04.16-.03.31-.06.46-.1l-.2,1.42h-1.58c-.19,0-.3.13-.34.4l-.26,1.98s-.02.1-.02.18c0,.44.23.66.7.66l-.06.6h-3.22Zm2.38-10.66l-4.36,5.56h3.22c.26,0,.4-.13.42-.38l.72-5.18Zm2.2,13.4c.45-.29.81-.57,1.06-.82.27-.24.46-.46.58-.66.13-.2.21-.39.24-.56.03-.16.04-.3.04-.42,0-.15-.07-.24-.2-.28-.12-.05-.26-.1-.42-.14-.16-.04-.31-.1-.44-.18-.12-.09-.18-.26-.18-.5,0-.51.12-.89.36-1.14.24-.27.55-.4.92-.4.81,0,1.22.46,1.22,1.38s-.27,1.75-.8,2.42c-.52.68-1.23,1.27-2.14,1.76l-.24-.46Zm6.05-9.5l1.94-6.58c.47.07.93.12,1.38.16.45.04.9.06,1.34.06.6,0,1.13-.05,1.58-.16.45-.12.82-.29,1.1-.52h.22c-.8,1.57-1.93,2.36-3.38,2.36-.65,0-1.26-.07-1.82-.22l-1.1,3.68c.59-.37,1.23-.56,1.92-.56,2.16,0,3.24,1.09,3.24,3.26,0,1.87-.46,3.27-1.38,4.2-.92.92-2.21,1.38-3.88,1.38s-2.52-.47-2.52-1.42c0-.67.23-1,.68-1,.31,0,.46.14.46.42,0,.15-.03.27-.08.38-.04.11-.13.21-.28.32.23.36.75.54,1.58.54,1.12,0,2.01-.39,2.68-1.16.67-.77,1-1.93,1-3.48s-.71-2.36-2.12-2.36c-.83,0-1.49.33-2,1l-.56-.3Zm10.3.44c-1.4,0-2.1-.75-2.1-2.24s.35-2.57,1.06-3.3c.71-.73,1.67-1.1,2.9-1.1s1.88.72,1.88,2.16-.34,2.61-1.02,3.36c-.68.75-1.59,1.12-2.72,1.12Zm.2-.54c.79,0,1.43-.33,1.94-1,.52-.67.78-1.67.78-3.02,0-1.07-.35-1.6-1.06-1.6-.35,0-.69.09-1.02.28-.32.17-.61.44-.86.8-.25.36-.46.81-.62,1.34-.15.53-.22,1.15-.22,1.86,0,.89.35,1.34,1.06,1.34Zm-1.18,6.86l8.64-13.26h.98l-8.72,13.26h-.9Zm6.92.16c-1.41,0-2.12-.75-2.12-2.24s.35-2.58,1.06-3.3c.71-.72,1.67-1.08,2.9-1.08s1.9.71,1.9,2.12-.35,2.6-1.04,3.36c-.68.76-1.58,1.14-2.7,1.14Zm.2-.54c.8,0,1.45-.33,1.94-1,.51-.67.76-1.67.76-3.02,0-1.08-.35-1.62-1.06-1.62-.35,0-.69.09-1.02.28-.32.17-.61.44-.86.8-.25.35-.46.79-.62,1.32-.15.53-.22,1.15-.22,1.86,0,.92.36,1.38,1.08,1.38Z"/>
      <path class="cls-8" d="m189.23,57.16c13.98,0,19.98,1.12,27.18,13.12"/>
      <path class="cls-8" d="m151.64,130.15c.03-.21,41.93-2.85,47.45-3.95"/>
      <path class="cls-8" d="m196.77,218.19c1.08-4.87,16.07-9.4,20.62-10.31"/>
      <path class="cls-8" d="m512.26,84.95c13.41-.61,26.01-6.49,39.87-6.49"/>
      <path class="cls-8" d="m527.09,121.11c20.61,0,113.82-31.95,126.09-7.42"/>
      <path class="cls-8" d="m529.87,150.78c24.98,0,47.57,7.56,69.53,18.54"/>
      <path class="cls-8" d="m516.89,200.84c15.91,0,33.63-3.58,48.21,3.71"/>
      <path class="cls-8" d="m135.71,167.19c17.5,0,33.67-17.33,53.57-17.33"/>
    </g>
  </g>
</svg>